<?xml version="1.0" encoding="UTF-8" standalone="no"?>
<!-- Created with Inkscape (http://www.inkscape.org/) -->

<svg
   width="122.36358mm"
   height="171.86684mm"
   viewBox="0 0 122.36358 171.86684"
   version="1.1"
   id="svg1"
   xmlns="http://www.w3.org/2000/svg"
   xmlns:svg="http://www.w3.org/2000/svg">
  <defs
     id="defs1">
    <clipPath
       id="SVGID_00000054261904813507136830000004844503045422642843_">
				<rect
   id="use60"
   width="750"
   height="500"
   x="0"
   y="0" />

			</clipPath>
    <clipPath
       clipPathUnits="userSpaceOnUse"
       id="clipPath411">
      <path
         d="m 0,5363 h 7500 v 5000 H 0 Z"
         transform="translate(0,-2.5e-4)"
         id="path411" />
    </clipPath>
    <clipPath
       clipPathUnits="userSpaceOnUse"
       id="clipPath413">
      <path
         d="m 0,5363 h 7500 v 5000 H 0 Z"
         transform="translate(0,-2.5e-4)"
         id="path413" />
    </clipPath>
    <clipPath
       clipPathUnits="userSpaceOnUse"
       id="clipPath403">
      <path
         d="m 0,5363 h 7500 v 5000 H 0 Z"
         transform="translate(0,-2.5e-4)"
         id="path403" />
    </clipPath>
  </defs>
  <g
     id="layer1"
     transform="translate(-43.820771,-46.720366)">
    <ellipse
       style="fill:#18502d;fill-opacity:0.358329"
       cx="355.39801"
       cy="458.177"
       rx="38.856998"
       ry="12.225"
       clip-path="url(#SVGID_00000054261904813507136830000004844503045422642843_)"
       id="ellipse370"
       transform="matrix(0.9826007,0,0,0.9826007,-241.98903,-243.63014)" />
    <g
       id="g1">
      <path
         id="path402"
         d="m 5786.91,6622.51 c 84.28,85.56 207.78,218.87 75.43,885.7 -33.83,170.42 -495.98,393.4 -495.98,393.4 l -1.68,65.41 c 0,0 181.25,-107.84 303.03,-181.15 -27.67,65.83 -81.02,192.47 -82.92,194.84 -2.56,3.2 19.49,1.83 19.49,1.83 0,0 81.48,-160.77 116.34,-228.62 22.18,-13.46 39.22,-23.91 48.15,-29.59 54.05,-34.43 68.59,-46.47 79.74,-36.15 11.15,10.33 34.45,44.75 -34.88,254.74 -69.33,209.98 24.9,526.68 24.9,526.68 l 70.84,3.45 c 0,0 -52.36,-74.01 -28.48,-249.57 19.98,-146.85 120.48,-320.05 190.82,-498.14 l 102.7,172.14 28.17,-16.64 c -9.82,-12.76 -67.79,-181.28 -95.47,-255.21 15.73,-50.96 27.38,-101.99 32.35,-152.6 1.54,-15.6 50.84,32.94 110.84,107.8 3.58,26.75 9.48,69.7 13.78,119.48 7.68,88.99 7.04,137.64 7.04,137.64 l 23.69,-1.92 c 0,0 -3.04,-148.4 -5.54,-204.78 9.18,12.32 18.42,25.01 27.61,37.99 85.33,120.49 93.13,261.63 93.13,261.63 l 35.67,-27.54 c 0,0 -30.69,-112.21 -68.89,-209.62 49.51,30.53 180.49,135.26 180.49,135.26 l 1.28,-33.93 c 0,0 -155.3,-127.41 -213.73,-174.04 -52.44,-101.41 -164.44,-223.21 -161.48,-255.23 15.86,-171.55 33.57,-479.16 68.91,-743.26 h -465.35"
         style="fill:#4b351e;fill-opacity:1;fill-rule:evenodd;stroke:none"
         transform="matrix(0.05316311,0,0,-0.05316311,-213.61441,559.30549)"
         clip-path="url(#clipPath403)" />
      <path
         id="path410"
         d="m 5785.72,9483.52 c -7.48,-1.88 -15.82,-4.96 -23.43,-9.97 -55.77,-16.16 -95.14,-68.95 -92.14,-129.31 -13.52,3.64 -27.83,5.22 -42.57,4.38 -68.71,-3.89 -122.44,-58.73 -126.59,-125.76 -16.34,6.06 -34.18,8.93 -52.7,7.89 -72.02,-4.08 -127.09,-65.76 -123.01,-137.78 1.01,-17.78 5.53,-34.54 12.85,-49.62 -62.62,-16.68 -107.09,-75.5 -103.28,-142.74 0.57,-10.02 2.18,-19.72 4.72,-29.02 -31.59,-11.92 -53.22,-43.28 -51.21,-78.78 0.71,-12.38 4.21,-23.94 9.87,-34.1 -43.71,-3.59 -77.8,-38.15 -81.84,-80.76 -10.82,5.42 -23.15,8.16 -36.09,7.43 -38.79,-2.19 -68.62,-34.83 -67.62,-73.4 -47.05,-6.55 -81.96,-48.24 -79.22,-96.5 1.14,-20.29 8.76,-38.66 20.73,-53.24 -23.85,-8.61 -40.27,-32.1 -38.77,-58.72 0.66,-11.56 4.61,-22.14 10.89,-30.91 -0.56,-1.55 -1.09,-3.09 -1.6,-4.64 -20.41,-12.43 -33.48,-35.43 -32.03,-60.96 0.77,-13.77 5.67,-26.33 13.41,-36.56 -1.94,-2.33 -4,-4.69 -6.13,-7.07 -36.19,-19.08 -59.88,-58.04 -57.42,-101.56 0.72,-12.77 3.64,-24.88 8.36,-36.01 4.34,-13.83 11.93,-23.84 21.05,-32.11 6.06,-6.38 12.89,-12.03 20.33,-16.77 -3.67,-8.23 -5.49,-17.43 -4.95,-27.04 1.6,-28.13 22.9,-50.47 49.75,-54.36 -20.33,-16.03 -32.79,-41.39 -31.22,-69.19 2.57,-45.29 41.37,-79.94 86.66,-77.38 15.43,0.88 29.63,5.96 41.53,14.08 12.48,-23.04 37.46,-38.06 65.35,-36.49 15.87,0.9 30.2,7.04 41.42,16.65 l 5.77,-0.91 c 12.71,-15.73 32.54,-25.32 54.27,-24.09 16.14,0.91 30.57,7.65 41.38,18.04 9.47,0.51 18.51,1.44 27.02,2.84 17.73,-14.72 40.85,-23.04 65.67,-21.64 33.43,1.89 61.8,20.96 77.06,48.14 18.11,-10.43 39.36,-15.89 61.79,-14.63 32.29,1.83 60.57,17.24 79.64,40.36 13.9,-14.85 34.03,-23.66 55.93,-22.43 20.62,1.17 38.67,11.01 50.84,25.79 24.66,-34.7 66.05,-56.36 111.7,-53.78 23.36,1.32 44.89,8.83 63.11,20.84 18.06,-29.13 51.08,-47.72 87.7,-45.64 25.09,1.41 47.4,12.29 63.67,28.97 25.92,-43.34 74.43,-71.18 128.34,-68.13 28.26,1.61 54.09,11.47 75.28,27.12 14.64,-11.04 33.12,-17.15 52.86,-16.03 15.69,0.89 30.07,6.23 42,14.71 16.56,-9.92 36.16,-15.16 56.88,-13.99 36.44,2.06 67.19,23.42 82.92,53.59 28.28,-35.13 72.51,-56.57 120.96,-53.82 32.76,1.85 62.34,14.46 85.53,34.2 14.49,-8.03 31.34,-12.19 49.11,-11.19 35.59,2.01 65.23,24.24 78.41,54.9 5.66,-0.03 11.12,0.13 16.41,0.47 12.53,-3.44 25.82,-4.94 39.51,-4.17 54.95,3.11 99.42,41.87 112.24,92.54 8.84,10.05 17.79,20.55 27.18,31.28 8.88,-1.51 18.06,-2.05 27.44,-1.52 67.42,3.82 118.99,61.58 115.17,129 -0.48,8.5 -1.82,16.75 -3.93,24.67 31.52,15.34 52.39,48.5 50.29,85.69 -0.87,15.21 -5.47,29.32 -12.88,41.49 9.73,15.53 14.9,34.14 13.79,53.83 -1.84,32.45 -20.31,60 -46.66,74.85 9.36,15.4 14.33,33.7 13.23,53.05 -2.87,50.84 -46.42,89.72 -97.25,86.84 -4.74,-0.27 -9.38,-0.89 -13.89,-1.84 -6.18,34.57 -37.34,59.86 -73.28,57.82 l -1.29,-0.08 c 2.48,7.49 3.61,15.56 3.14,23.91 -1.98,35 -31.44,61.91 -66.24,60.99 1.99,8.35 2.82,17.12 2.31,26.14 -2.48,43.87 -35.8,78.67 -77.72,84.58 0.11,3.54 0.07,7.11 -0.13,10.72 -3.24,57.2 -45.1,103.05 -98.82,113.65 -3.09,33.97 -29.18,60.69 -61.89,65.54 11.18,14.53 17.39,32.98 16.28,52.71 -2.38,42.12 -37.29,74.67 -78.95,74.67 -1.09,1.99 -2.24,4 -3.43,6.01 4.36,11.07 6.46,23.26 5.74,35.93 -2.29,40.35 -32.32,72.55 -70.53,79.11 0.21,3.67 0.22,7.39 0.01,11.16 -3.04,53.65 -49,94.69 -102.65,91.65 -6.57,-0.37 -12.95,-1.38 -19.08,-2.97 -2.91,51.17 -46.74,90.31 -97.92,87.41 -16.51,-0.93 -31.76,-6.12 -44.76,-14.45 -11.54,13.94 -27.37,24.11 -45.33,28.58 4.4,11.18 6.52,23.46 5.8,36.25 -2.68,47.3 -43.2,83.48 -90.51,80.8 -3.64,-0.21 -7.24,-0.64 -10.74,-1.29 0.17,3.4 0.17,6.83 -0.03,10.3 -2.98,52.6 -48.03,92.82 -100.63,89.85 -40.84,-2.32 -74.22,-30 -85.71,-66.88 -3.47,0.11 -6.98,0.07 -10.53,-0.13 -53.18,-3.01 -95.93,-41.42 -106.7,-91.06"
         style="fill:#929f2c;fill-opacity:1;fill-rule:evenodd;stroke:none"
         transform="matrix(0.05316311,0,0,-0.05316311,-213.61441,559.30549)"
         clip-path="url(#clipPath411)" />
      <path
         id="path412"
         d="m 5785.72,9483.52 c -7.48,-1.88 -15.82,-4.96 -23.43,-9.97 -55.77,-16.16 -95.14,-68.95 -92.14,-129.31 -13.52,3.64 -27.83,5.22 -42.57,4.38 -68.71,-3.89 -122.44,-58.73 -126.59,-125.76 -16.34,6.06 -34.18,8.93 -52.7,7.89 -72.02,-4.08 -127.09,-65.76 -123.01,-137.78 1.01,-17.78 5.53,-34.54 12.85,-49.62 -62.62,-16.68 -107.09,-75.5 -103.28,-142.74 0.57,-10.02 2.18,-19.72 4.72,-29.02 -31.59,-11.92 -53.22,-43.28 -51.21,-78.78 0.71,-12.38 4.21,-23.94 9.87,-34.1 -43.71,-3.59 -77.8,-38.15 -81.84,-80.76 -10.82,5.42 -23.15,8.16 -36.09,7.43 -38.79,-2.19 -68.62,-34.83 -67.62,-73.4 -47.05,-6.55 -81.96,-48.24 -79.22,-96.5 1.14,-20.29 8.76,-38.66 20.73,-53.24 -23.85,-8.61 -40.27,-32.1 -38.77,-58.72 0.66,-11.56 4.61,-22.14 10.89,-30.91 -0.56,-1.55 -1.09,-3.09 -1.6,-4.64 -20.41,-12.43 -33.48,-35.43 -32.03,-60.96 0.77,-13.77 5.67,-26.33 13.41,-36.56 -1.94,-2.33 -4,-4.69 -6.13,-7.07 -36.19,-19.08 -59.88,-58.04 -57.42,-101.56 0.72,-12.77 3.64,-24.88 8.36,-36.01 4.34,-13.83 11.93,-23.84 21.05,-32.11 6.06,-6.38 12.89,-12.03 20.33,-16.77 -3.67,-8.23 -5.49,-17.43 -4.95,-27.04 1.6,-28.13 22.9,-50.47 49.75,-54.36 -20.33,-16.03 -32.79,-41.39 -31.22,-69.19 2.57,-45.29 41.37,-79.94 86.66,-77.38 15.43,0.88 29.63,5.96 41.53,14.08 12.48,-23.04 37.46,-38.06 65.35,-36.49 15.87,0.9 30.2,7.04 41.42,16.65 l 5.77,-0.91 c 12.71,-15.73 32.54,-25.32 54.27,-24.09 16.14,0.91 30.57,7.65 41.38,18.04 9.47,0.51 18.51,1.44 27.02,2.84 17.73,-14.72 40.85,-23.04 65.67,-21.64 33.43,1.89 61.8,20.96 77.06,48.14 18.11,-10.43 39.36,-15.89 61.79,-14.63 32.29,1.83 60.57,17.24 79.64,40.36 13.9,-14.85 34.03,-23.66 55.93,-22.43 20.62,1.17 38.67,11.01 50.84,25.79 24.66,-34.7 66.05,-56.36 111.7,-53.78 18.22,1.03 35.34,5.82 50.63,13.59 15.97,15.37 25.92,36.97 25.92,60.9 l -0.01,0.2 c 7.41,-2.61 15.38,-4.04 23.69,-4.04 28.36,0 52.83,16.6 64.23,40.62 9.63,-3.49 20.02,-5.4 30.85,-5.4 43.01,0 79.02,29.98 88.28,70.18 7.93,-3.94 16.86,-6.16 26.32,-6.16 32.71,0 59.22,26.52 59.22,59.22 0,17.18 -7.31,32.64 -18.99,43.46 0.7,3.86 1.06,7.85 1.06,11.92 0,7.56 -1.26,14.82 -3.58,21.58 15.66,11.13 25.88,29.42 25.88,50.1 0,33.93 -27.51,61.43 -61.44,61.43 -3.75,0 -7.43,-0.34 -11,-0.98 -0.95,12.42 -5.18,23.92 -11.83,33.64 17.38,12.69 28.68,33.22 28.68,56.39 0,12.13 -3.09,23.54 -8.53,33.47 14.65,10.35 24.22,27.41 24.22,46.72 0,31.56 -25.58,57.14 -57.13,57.14 -13.21,0 -25.36,-4.48 -35.03,-11.99 -7.78,26.89 -32.58,46.56 -61.97,46.56 -19.63,0 -37.21,-8.78 -49.04,-22.61 l -0.47,0.04 c -3.78,21.38 -22.45,37.62 -44.91,37.62 -1.49,0 -2.97,-0.08 -4.42,-0.22 1.55,3.32 2.7,6.85 3.42,10.53 l 2.11,-0.06 c 12.47,0 23.37,6.65 29.37,16.61 2.88,-0.81 5.91,-1.25 9.05,-1.25 18.39,0 33.29,14.91 33.29,33.29 l -0.04,1.73 c 4.71,-2.33 10.03,-3.65 15.65,-3.65 19.5,0 35.3,15.8 35.3,35.29 0,14.61 -8.88,27.15 -21.54,32.52 0.05,0.92 0.08,1.84 0.08,2.78 0,6.29 -1.18,12.3 -3.33,17.83 7.04,5.46 12.87,12.42 17,20.4 9.99,-4.51 21.08,-7.02 32.75,-7.02 44.02,0 79.71,35.68 79.71,79.7 0,5.99 -0.68,11.82 -1.92,17.44 6.59,-1.97 13.58,-3.03 20.81,-3.03 40.13,0 72.66,32.53 72.66,72.66 0,40.14 -32.53,72.67 -72.66,72.67 -7.17,0 -14.1,-1.04 -20.63,-2.98 -8.16,30.83 -36.24,53.56 -69.63,53.56 -17.95,0 -34.37,-6.57 -46.98,-17.43 -6.18,17.96 -23.23,30.87 -43.29,30.87 -5.68,0 -11.11,-1.03 -16.13,-2.92 -0.87,7.68 -3.05,14.97 -6.3,21.64 6.12,0.98 11.87,3.09 17.01,6.11 10.13,-7.17 22.48,-11.38 35.84,-11.38 34.3,0 62.1,27.8 62.1,62.09 0,18.66 -8.23,35.4 -21.25,46.78 9.63,10.66 15.49,24.79 15.49,40.29 0,9.97 -2.43,19.37 -6.72,27.65 23.72,1.59 43.07,19.13 47.42,41.98 2.5,-0.31 5.06,-0.46 7.65,-0.46 34.47,0 62.42,27.94 62.42,62.42 0,26.15 -16.09,48.54 -38.92,57.83 0.75,3.86 1.15,7.86 1.15,11.94 0,34.48 -27.95,62.43 -62.42,62.43 -11.73,0 -22.71,-3.24 -32.08,-8.87 -11.12,20.17 -32.58,33.84 -57.24,33.84 -8.29,0 -16.21,-1.55 -23.51,-4.37 0.73,3.48 1.11,7.08 1.11,10.77 0,4.42 -0.55,8.72 -1.58,12.82 3.57,4.23 6.75,8.18 9.55,11.87 17.95,5.13 31.08,21.66 31.08,41.25 0,3.74 -0.48,7.36 -1.38,10.83 24.86,7.39 42.99,30.41 42.99,57.68 0,19.86 -9.63,37.48 -24.48,48.44 -29.98,-9.39 -53.32,-33.07 -62.55,-62.68 -3.47,0.11 -6.98,0.07 -10.53,-0.13 -53.18,-3.01 -95.93,-41.42 -106.7,-91.06"
         style="fill:#aab031;fill-opacity:1;fill-rule:evenodd;stroke:none"
         transform="matrix(0.05316311,0,0,-0.05316311,-213.61441,559.30549)"
         clip-path="url(#clipPath413)" />
    </g>
  </g>
</svg>
