<?xml version="1.0" encoding="UTF-8" standalone="no"?>
<!-- Created with Inkscape (http://www.inkscape.org/) -->

<svg
   width="210.00009mm"
   height="133.80122mm"
   viewBox="0 0 210.00009 133.80122"
   version="1.1"
   id="svg1"
   xml:space="preserve"
   xmlns="http://www.w3.org/2000/svg"
   xmlns:svg="http://www.w3.org/2000/svg"><defs
   id="defs1"><clipPath
     clipPathUnits="userSpaceOnUse"
     id="clipPath8"><rect
       id="rect8"
       x="-530"
       width="500.00003"
       height="500.00003"
       y="1.5021454e-05"
       style="stroke-width:0.999999" /></clipPath><clipPath
     clipPathUnits="userSpaceOnUse"
     id="clipPath21"><rect
       id="rect21"
       width="750"
       height="499.99997"
       x="7.0258034e-07"
       y="-1.8594712e-06"
       style="stroke-width:0.999999" /></clipPath><clipPath
     clipPathUnits="userSpaceOnUse"
     id="clipPath22"><rect
       id="rect22"
       width="750"
       height="499.99997"
       x="7.0258034e-07"
       y="-1.8594712e-06"
       style="stroke-width:0.999999" /></clipPath><clipPath
     clipPathUnits="userSpaceOnUse"
     id="clipPath23"><rect
       id="rect23"
       width="750"
       height="499.99997"
       x="7.0258034e-07"
       y="-1.8594712e-06"
       style="stroke-width:0.999999" /></clipPath><clipPath
     clipPathUnits="userSpaceOnUse"
     id="clipPath24"><rect
       id="rect24"
       width="750"
       height="499.99997"
       x="7.0258034e-07"
       y="-1.8594712e-06"
       style="stroke-width:0.999999" /></clipPath><clipPath
     clipPathUnits="userSpaceOnUse"
     id="clipPath25"><rect
       id="rect25"
       width="750"
       height="499.99997"
       x="7.0258034e-07"
       y="-1.8594712e-06"
       style="stroke-width:0.999999" /></clipPath><clipPath
     clipPathUnits="userSpaceOnUse"
     id="clipPath26"><rect
       id="rect26"
       width="750"
       height="499.99997"
       x="7.0258034e-07"
       y="-1.8594712e-06"
       style="stroke-width:0.999999" /></clipPath><clipPath
     clipPathUnits="userSpaceOnUse"
     id="clipPath27"><rect
       id="rect27"
       width="750"
       height="499.99997"
       x="7.0258034e-07"
       y="-1.8594712e-06"
       style="stroke-width:0.999999" /></clipPath><clipPath
     clipPathUnits="userSpaceOnUse"
     id="clipPath28"><rect
       id="rect28"
       width="750"
       height="499.99997"
       x="7.0258034e-07"
       y="-1.8594712e-06"
       style="stroke-width:0.999999" /></clipPath><clipPath
     clipPathUnits="userSpaceOnUse"
     id="clipPath29"><rect
       id="rect29"
       width="750"
       height="499.99997"
       x="7.0258034e-07"
       y="-1.8594712e-06"
       style="stroke-width:0.999999" /></clipPath><clipPath
     clipPathUnits="userSpaceOnUse"
     id="clipPath30"><rect
       id="rect30"
       width="750"
       height="499.99997"
       x="7.0258034e-07"
       y="-1.8594712e-06"
       style="stroke-width:0.999999" /></clipPath><clipPath
     clipPathUnits="userSpaceOnUse"
     id="clipPath31"><rect
       id="rect31"
       width="750"
       height="499.99997"
       x="7.0258034e-07"
       y="-1.8594712e-06"
       style="stroke-width:0.999999" /></clipPath><clipPath
     clipPathUnits="userSpaceOnUse"
     id="clipPath32"><rect
       id="rect32"
       width="750"
       height="499.99997"
       x="7.0258034e-07"
       y="-1.8594712e-06"
       style="stroke-width:0.999999" /></clipPath><clipPath
     clipPathUnits="userSpaceOnUse"
     id="clipPath33"><rect
       id="rect33"
       width="750"
       height="499.99997"
       x="7.0258034e-07"
       y="-1.8594712e-06"
       style="stroke-width:0.999999" /></clipPath></defs><path
   style="fill:#33ad61"
   d="m -8.77,304.693 c -1.82,0.79 -4.07,0.77 -6,0.68 -0.89,-0.04 -1.13,-1.05 -0.72,-1.59 -0.06,-0.38 0.17,-0.8 0.68,-0.85 1.49,-0.15 2.97,-0.27 4.46,-0.39 0.97,-3.29 0.35,-4.72 -1.88,-4.23 -1.36,-0.19 -4.29,0.64 -5.77,0.99 -3.12,0.74 -6.05,1.91 -8.94,3.25 -0.29,0.28 -0.58,0.55 -0.86,0.8 -0.04,0.27 -0.17,0.52 -0.44,0.73 -0.55,0.4 -1.1,0.77 -1.68,1.13 -1.05,0.66 -2.25,-0.89 -1.33,-1.73 1.3,-1.18 2.62,-2.34 3.9,-3.54 0.5,-0.47 1.3,-1.05 1.48,-1.73 0.4,-1.57 -1.1,-1.78 -2.15,-1.47 -2.63,0.78 -4.43,2.27 -6.31,3.98 l -1.53,-1.08 c 1.2,-1.7 3.04,-3.06 4.82,-3.97 1.63,-0.84 4.14,-1.95 5.99,-1.21 2.48,1 2.2,2.86 0.98,4.77 2.5,-1.08 5.1,-1.92 7.75,-2.5 2.59,-0.57 6.61,-1.61 9.03,0.11 1.79,1.27 2.07,3.52 1.13,5.4 16.93,-1.06 34.13,-0.61 51.03,-0.94 19.89,-0.39 39.79,-1.01 59.68,-1.1 1.84,-0.01 1.83,2.79 0,2.84 -0.41,0.02 -0.83,0.02 -1.24,0.03 1.47,9.57 2.81,19.16 4,28.77 5.22,42.18 7.88,84.65 8.2,127.15 0.15,20.92 -0.31,41.85 -1.39,62.74 -0.29,5.55 -0.6,11.1 -0.99,16.64 -0.22,3.15 -0.39,6.49 -2.12,9.24 -3.91,6.25 -13.79,4.37 -19.95,4.36 -86.02,-0.1 -172.04,-0.16 -258.06,-0.28 -86.57,-0.12 -173.14,-0.3 -259.71,-0.38 -42.79,-0.03 -85.59,-0.03 -128.38,-0.19 -21.51,-0.08 -43.03,-0.22 -64.54,-0.44 -10.59,-0.11 -21.18,-0.26 -31.77,-0.4 -5.96,-0.08 -14.33,1.01 -18.22,-4.71 -2.08,-3.06 -2.1,-7.16 -2.35,-10.71 -0.35,-4.87 -0.64,-9.75 -0.89,-14.63 -0.57,-10.74 -0.96,-21.48 -1.18,-32.23 -0.42,-20.85 -0.19,-41.71 0.7,-62.54 1.69,-39.63 5.14,-79.63 12.49,-118.67 -0.74,-0.15 -0.74,-1.3 0.07,-1.28 0.06,0 0.12,0 0.17,0 0.3,-1.56 0.59,-3.12 0.9,-4.67 0.29,-1.46 2.38,-0.8 2.19,0.6 -0.2,1.38 -0.39,2.76 -0.59,4.14 19.45,0.52 38.85,1.57 58.32,1.49 20.34,-0.09 40.65,-0.96 60.98,-1.51 0.15,-0.01 0.27,0.03 0.36,0.09 0.03,0.03 0.07,0.05 0.1,0.08 l 0.02,0.01 c 0.31,0.35 0.14,1.07 -0.48,1.12 -20.25,1.57 -40.67,1.8 -60.98,1.7 -19.47,-0.1 -39.09,-0.11 -58.52,-1.58 -1.19,8.43 -2.39,16.85 -3.53,25.28 -5.44,40.3 -8.59,80.87 -9.18,121.53 -0.28,20.2 0.04,40.41 0.98,60.58 0.24,5.21 0.53,10.41 0.85,15.62 0.26,4.32 -0.45,11.44 2.82,14.8 3.37,3.46 10.62,2.45 14.97,2.52 4.97,0.09 9.93,0.15 14.89,0.21 82.25,1.03 164.51,0.76 246.76,0.76 82.56,0 165.11,-0.01 247.66,-0.01 41.52,0 83.03,0.02 124.55,0.04 l 61.77,0.03 c 9.97,0.01 19.93,0.01 29.89,0.01 5.65,0.01 11.3,0.01 16.94,0.01 4.06,0 10.35,1.13 14.18,-0.54 5.5,-2.4 4.44,-11.36 4.75,-16.3 0.29,-4.57 0.55,-9.14 0.78,-13.71 0.52,-10.45 0.88,-20.9 1.11,-31.36 0.43,-20.26 0.3,-40.54 -0.46,-60.79 -1.52,-41.03 -5.53,-81.89 -11.54,-122.5 -18.33,0.47 -36.68,0.55 -55.01,0.82 -17.77,0.26 -35.83,1.39 -53.64,0.71 z"
   id="path7"
   clip-path="url(#clipPath8)"
   transform="matrix(0.26458333,0,0,0.26458333,182.21362,-31.642174)" /><path
   id="rect10"
   style="fill:#5aa02c;fill-opacity:1;fill-rule:evenodd;stroke:none;stroke-width:0.807752;stroke-linecap:square;stroke-miterlimit:3.5;paint-order:stroke fill markers"
   d="m 72.265873,8.5741945 c -1.574725,0.0602 2.874173,11.2155295 5.197616,17.8149395 -5.14357,-9.91198 -20.222615,-13.67254 -3.359485,-1.26659 -4.567938,-2.20083 -2.845875,1.09289 -2.421041,1.82934 H 55.814681 c 0,0 3.35401,-2.4204 0.07906,-1.13843 4.089273,-2.29625 2.918743,-5.97795 -0.887801,-0.65319 2.951745,-4.99793 0.29097,-6.90562 -0.742591,-0.56586 0.262136,-1.84134 0.666958,-3.40885 0.588078,-5.6534 -0.188073,-5.34437 -1.494514,0.6756 -1.521354,6.21358 -0.201469,-4.55057 -0.472215,-11.14176 -1.545642,-0.63304 0.721915,-7.86624 -1.203016,-10.54309 -0.809253,-0.31368 -0.953636,-9.76349 -3.703726,-10.6626 -1.32395,-2.16214 -1.506278,-2.58689 -4.67214,-1.37091 -2.452047,0.3204 0.952954,0.726 1.861803,1.40897 2.251542,3.20755 -1.150862,-2.67953 -4.312466,-2.08103 -3.039091,-0.0935 0.646626,1.0094 2.556186,1.46871 2.568836,1.47174 H 37.805961 c 0.450073,-3.26183 1.214654,-3.14659 3.316594,-4.8643 -1.379571,-0.64144 -2.731761,0.27855 -4.03438,2.00298 0.282998,-2.16311 3.02882,-5.09465 4.073137,-5.92574 -1.524566,0 -4.327164,4.14942 -5.782593,5.21054 0.348019,-1.45674 1.414845,-3.46668 2.461349,-4.43487 -1.452959,0.76002 -2.382468,2.30275 -3.692282,4.00544 0.728808,-2.9968 2.918361,-5.45057 3.690731,-6.97425 -2.122238,1.01503 -3.661659,4.20652 -4.579565,5.68699 0.29547,-1.44213 0.730206,-2.92235 1.299145,-4.1491 -2.784457,2.05057 -1.923744,4.0703 -2.578137,5.87819 -0.09033,-1.3203 0.257082,-5.24716 -0.02015,-6.73654 -0.417551,1.3103 -0.839735,2.56438 -0.957564,4.29224 -0.246372,-2.06216 0.125948,-3.50494 -0.957048,-6.29522 v 7.01043 c -0.368734,-1.54261 -0.560837,-3.8433 -2.278413,-4.91237 0.823213,2.17524 1.067874,4.85247 1.517736,6.60994 -0.793719,-2.86655 -0.990222,-5.06857 -3.957381,-5.2741 1.480327,1.7723 2.086805,1.90879 2.735234,4.43487 -1.715648,-2.41113 -1.930322,-1.70501 -3.697966,-1.64331 1.650694,1.94776 2.343656,0.78162 2.808614,2.6448 -1.217362,-0.51165 -1.28612,-1.49139 -3.999755,-0.3576 1.567302,0.86762 3.348203,0.0888 3.589961,3.79098 H 16.689937 c 0,0 -0.342911,-4.8234 -1.616438,-7.65276 0,2.31939 0.333321,4.02782 -0.551905,6.23425 0,-3.7181 -0.717273,-7.06609 -4.444173,-9.55084 2.434507,2.11311 2.705616,5.59292 2.498039,8.67337 -0.783195,-4.75849 -4.3642329,-8.12875 -7.6408774,-11.73417 2.1254177,3.32072 3.452593,6.05033 4.9102949,9.2754 -1.6487105,-2.75937 -4.0833272,-4.56765 -7.7023725,-6.59701 3.0881334,2.68039 5.9842071,7.0227 7.3473555,10.84172 -1.0566884,-2.14024 -2.118098,-3.78908 -4.8493168,-4.97438 -0.060271,-0.0262 -1.2762686,-0.46999 -1.0288777,-0.25528 1.99311,1.64174 3.8592654,2.66536 3.8209554,5.7397 H 1.1822239e-7 V 133.80121 H 210.0001 V 26.951914 h -10.54096 c 0,0 0.12042,-3.61709 0.93896,-5.27099 -0.79068,0.88752 -1.83635,2.44889 -2.06602,4.00595 0,-3.8584 -0.29559,-6.74117 4.78989,-8.22223 -3.98566,0 -5.6541,2.36422 -5.96398,6.90449 0,-3.1102 -0.48821,-6.37236 1.17409,-8.90747 -1.76005,1.72872 -2.75412,3.75963 -2.95848,7.85327 -0.56366,-1.87041 -0.19469,-5.03325 0.23513,-7.00991 -1.61342,1.81085 -1.65105,4.83572 -1.87844,7.4843 0,-2.08848 -0.64392,-3.84204 -1.50275,-5.58674 0.94653,4.60185 0.28164,5.53403 0.28164,5.53403 -0.44271,-3.97578 -2.5521,-9.13326 -6.94996,-7.74785 4.53352,0 5.94891,4.5532 5.49423,8.59121 -0.67823,-2.89277 -2.84578,-4.40528 -5.40018,-3.63699 2.30526,-0.36952 3.67331,1.03966 4.13256,3.79512 0.0988,0.77552 0.0935,2.21381 0.0935,2.21381 h -13.83534 c 0.98527,-1.52859 9.44945,-14.73586 -0.96738,-1.26659 3.54335,-5.12056 1.92693,-16.1364895 -1.60662,-0.56275 0,-16.1576295 -4.06643,-22.3492595 -2.16162,-4.56923 -0.90732,-3.73499 -2.78578,-7.01538 -4.55786,-10.7719495 -4.84188,-5.43522 0.89826,8.7862495 3.65197,16.6077695 -5.14357,-9.91198 -20.22313,-13.67254 -3.36,-1.26659 -4.56794,-2.20083 -2.84588,1.09289 -2.42104,1.82934 h -15.86773 c 0,0 3.35349,-2.4204 0.0785,-1.13843 4.08927,-2.29625 2.91874,-5.97795 -0.8878,-0.65319 2.95174,-4.99793 0.29097,-6.90562 -0.74259,-0.56586 0.26214,-1.84134 0.66698,-3.40885 0.58808,-5.6534 -0.18807,-5.34437 -1.49456,0.6756 -1.52136,6.21358 -0.20147,-4.55057 -0.47221,-11.14176 -1.54564,-0.63304 0.72191,-7.86624 -1.20301,-10.54309 -0.80925,-0.31368 -0.95363,-9.76348 -3.70321,-10.66259 -1.32344,-2.16214 -1.50627,-2.58688 -4.67265,-1.3709 -2.45256,0.3204 0.95296,0.726 1.8618,1.40897 2.25154,3.20755 -1.15087,-2.67953 -4.31247,-2.08103 -3.03909,-0.0935 0.64662,1.0094 2.5567,1.46871 2.56935,1.47174 h -11.17451 c 0.45007,-3.26183 1.21414,-3.14659 3.31608,-4.8643 -1.37957,-0.64144 -2.73124,0.27855 -4.03386,2.00298 0.283,-2.16311 3.02881,-5.09465 4.07313,-5.92574 -1.52456,0 -4.32768,4.14942 -5.78311,5.21054 0.34802,-1.45674 1.41537,-3.46668 2.46187,-4.43487 -1.45296,0.76002 -2.38247,2.30275 -3.69228,4.00544 0.7288,-2.9968 2.91784,-5.45057 3.69021,-6.97425 -2.12224,1.01503 -3.66166,4.20652 -4.57956,5.68699 0.29547,-1.44213 0.73072,-2.92235 1.29966,-4.1491 -2.78446,2.05057 -1.92375,4.0703 -2.57814,5.87819 -0.0903,-1.3203 0.25657,-5.24716 -0.0207,-6.73654 -0.41755,1.3103 -0.83922,2.56438 -0.95705,4.29224 -0.24637,-2.06216 0.12543,-3.50494 -0.95756,-6.29522 v 7.01043 c -0.36874,-1.54261 -0.56085,-3.8433 -2.27842,-4.91237 0.82322,2.17524 1.06788,4.85247 1.51774,6.60994 -0.79372,-2.86655 -0.99022,-5.06857 -3.95738,-5.2741 1.48032,1.7723 2.0868,1.90879 2.73523,4.43487 -1.71565,-2.41113 -1.92981,-1.70501 -3.69745,-1.64331 1.65069,1.94776 2.34367,0.78162 2.80862,2.6448 -1.21736,-0.51165 -1.28663,-1.49139 -4.00027,-0.3576 1.56729,0.86762 3.3482,0.0888 3.58996,3.79098 h -10.07277 c 0,0 -0.34291,-4.8234 -1.61644,-7.65276 0,2.31939 0.33281,4.02782 -0.55242,6.23425 0,-3.7181 -0.71676,-7.06609 -4.44366,-9.55084 2.43449,2.11311 2.70562,5.59292 2.49804,8.67337 -0.78319,-4.75849 -4.36475,-8.12875 -7.641394,-11.73417 2.125422,3.32072 3.452594,6.05032 4.910294,9.2754 -1.64871,-2.75937 -4.083323,-4.56764 -7.702372,-6.59701 3.088133,2.68039 5.984202,7.0227 7.347352,10.84172 -1.05669,-2.14024 -2.11809,-3.78908 -4.849313,-4.97438 -0.05297,-0.023 -0.998587,-0.36837 -1.05885,-0.30592 -0.007,0.009 0.0015,0.0255 0.03049,0.0506 1.99311,1.64174 3.858733,2.66536 3.820433,5.7397 H 83.105522 c 0.985263,-1.52859 9.449445,-14.73586 -0.967383,-1.26659 3.54335,-5.12056 1.926413,-16.1364895 -1.607137,-0.56275 0,-16.1576295 -4.065916,-22.3492595 -2.161109,-4.56923 -0.907321,-3.73499 -2.785777,-7.01538 -4.557861,-10.7719495 -0.756544,-0.84926 -1.254543,-1.21831 -1.546159,-1.20717 z" /><g
   id="g138"
   transform="matrix(0.59536866,0,0,0.59536866,-231.85085,-146.86066)"
   clip-path="url(#clipPath33)">
					<path
   style="fill:#1d1d1b"
   d="m 403.805,271.253 c -0.125,0.039 -0.27,-0.029 -0.27,-0.202 0,-1.6 0.096,-3.2 0.193,-4.791 0.096,-1.571 0.53,-3.586 -0.048,-5.109 -0.068,-0.193 0.038,-0.328 0.193,-0.376 0,-0.01 0.01,-0.019 0.019,-0.029 -0.039,-0.058 -0.039,-0.135 0.019,-0.183 0.655,-0.675 1.523,-1.176 2.294,-1.706 0.019,-0.01 0.039,-0.01 0.067,-0.019 0,-0.145 0.087,-0.289 0.28,-0.299 28.091,-1.118 56.335,-0.656 84.445,-0.318 28.129,0.347 56.297,0.945 84.407,2.294 0.029,0 0.038,0.01 0.058,0.01 0.029,-0.01 0.058,0 0.087,0.019 0.308,0.135 0.289,0.646 -0.068,0.704 -0.299,1.475 -0.839,2.882 -0.925,4.415 -0.087,1.62 0.231,3.162 0.771,4.675 0.019,0.058 0.01,0.106 -0.01,0.154 0.26,-0.154 0.53,0.251 0.318,0.472 -0.386,0.424 -0.858,0.79 -1.301,1.166 -0.405,0.337 -0.81,0.704 -1.253,1.003 -0.048,0.039 -0.096,0.029 -0.145,0.01 -0.029,0.01 -0.058,0.029 -0.106,0.029 -28.139,-0.231 -56.277,-0.453 -84.426,-0.675 -28.119,-0.222 -56.316,0.106 -84.426,-0.781 -0.269,-0.009 -0.327,-0.328 -0.173,-0.463 z m 0.01,0 c 0.029,-0.01 0.058,-0.029 0.077,-0.048 -0.029,0 -0.058,0.019 -0.077,0.048 z m 0.087,-0.057 c 0.019,-0.01 0.048,-0.01 0.077,-0.01 28.119,-0.453 56.306,0.318 84.426,0.53 28.148,0.222 56.287,0.434 84.426,0.646 0.096,0 0.174,0.039 0.231,0.077 -0.472,-2.988 -0.376,-6.401 -0.203,-9.438 0,0 -0.01,0.01 -0.019,0.01 -56.162,-1.465 -112.285,-1.321 -168.447,-1.822 0.444,1.379 0.145,2.911 0.048,4.338 -0.125,1.841 -0.222,3.692 -0.463,5.524 -0.009,0.058 -0.038,0.116 -0.076,0.145 z m 171.242,-0.569 c -0.106,0.019 -0.241,-0.019 -0.299,-0.154 -1.272,-3.123 -0.771,-5.861 0.202,-8.849 -0.231,0.164 -0.482,0.309 -0.713,0.453 -0.318,0.193 -0.646,0.376 -0.974,0.549 0.01,0.029 0.019,0.039 0.019,0.068 0.26,3.046 0.443,6.497 0.058,9.553 0.212,-0.212 0.434,-0.424 0.656,-0.636 0.338,-0.338 0.685,-0.685 1.051,-0.984 z m -1.022,-8.917 c 0.222,-0.154 0.443,-0.328 0.665,-0.472 -27.927,-0.974 -55.844,-1.899 -83.79,-2.236 -28.129,-0.337 -56.249,0.289 -84.378,0.116 0,0.087 -0.029,0.183 -0.125,0.241 -0.627,0.405 -1.263,0.868 -1.938,1.224 56.046,-1.215 112.256,0.058 168.283,1.552 0.154,0 0.251,0.077 0.318,0.164 0.329,-0.194 0.647,-0.387 0.965,-0.589 z"
   id="path134" />
					<path
   style="fill:#f7be29"
   d="m 574.845,270.473 c 0.058,0.135 0.193,0.173 0.299,0.154 -0.366,0.299 -0.713,0.646 -1.051,0.983 -0.222,0.212 -0.443,0.424 -0.656,0.636 0.386,-3.056 0.203,-6.507 -0.058,-9.553 0,-0.029 -0.01,-0.039 -0.019,-0.068 0.328,-0.173 0.655,-0.357 0.974,-0.549 0.231,-0.145 0.482,-0.289 0.713,-0.453 -0.973,2.989 -1.474,5.726 -0.202,8.85 z"
   id="path135" />
					<path
   style="fill:#f7be29"
   d="m 574.787,261.238 c -0.222,0.145 -0.443,0.318 -0.665,0.472 -0.318,0.202 -0.636,0.395 -0.964,0.588 -0.068,-0.087 -0.164,-0.164 -0.318,-0.164 -56.027,-1.494 -112.237,-2.767 -168.283,-1.552 0.675,-0.357 1.311,-0.819 1.938,-1.224 0.096,-0.058 0.125,-0.154 0.125,-0.241 28.129,0.173 56.249,-0.453 84.378,-0.116 27.946,0.338 55.863,1.263 83.789,2.237 z"
   id="path136" />
					<path
   style="fill:#fcd86f"
   d="m 573.062,272.439 c -0.058,-0.039 -0.135,-0.077 -0.231,-0.077 -28.139,-0.212 -56.277,-0.424 -84.426,-0.646 -28.119,-0.212 -56.306,-0.983 -84.426,-0.53 -0.029,0 -0.058,0 -0.077,0.01 0.039,-0.029 0.068,-0.087 0.077,-0.145 0.241,-1.832 0.337,-3.682 0.463,-5.524 0.096,-1.427 0.395,-2.96 -0.048,-4.338 56.162,0.501 112.285,0.357 168.447,1.822 0.01,0 0.019,-0.01 0.019,-0.01 -0.174,3.037 -0.271,6.45 0.202,9.438 z"
   id="path137" />
					<path
   style="fill:#1d1d1b"
   d="m 403.892,271.205 c -0.019,0.019 -0.048,0.039 -0.077,0.048 0.019,-0.029 0.048,-0.048 0.077,-0.048 z"
   id="path138" />
				</g><g
   id="g143"
   transform="matrix(0.59536866,0,0,0.59536866,-231.85085,-146.86066)"
   clip-path="url(#clipPath32)">
					<path
   style="fill:#1d1d1b"
   d="m 402.636,300.064 c -0.125,0.039 -0.27,-0.029 -0.27,-0.202 0,-1.6 0.096,-3.201 0.193,-4.791 0.096,-1.571 0.53,-3.586 -0.048,-5.109 -0.067,-0.193 0.039,-0.328 0.193,-0.376 0,-0.01 0.01,-0.019 0.019,-0.029 -0.039,-0.058 -0.039,-0.135 0.019,-0.183 0.655,-0.675 1.523,-1.176 2.294,-1.706 0.019,-0.01 0.038,-0.01 0.067,-0.019 0,-0.145 0.087,-0.289 0.28,-0.299 28.091,-1.118 56.335,-0.655 84.445,-0.318 28.129,0.347 56.297,0.945 84.406,2.294 0.029,0 0.039,0.01 0.058,0.01 0.029,-0.01 0.058,0 0.087,0.019 0.309,0.135 0.289,0.646 -0.068,0.704 -0.299,1.475 -0.839,2.882 -0.925,4.415 -0.087,1.62 0.231,3.162 0.771,4.675 0.019,0.058 0.01,0.106 -0.01,0.154 0.26,-0.154 0.53,0.251 0.318,0.472 -0.386,0.424 -0.858,0.79 -1.301,1.166 -0.405,0.337 -0.81,0.704 -1.253,1.003 -0.048,0.039 -0.096,0.029 -0.145,0.01 -0.029,0.01 -0.058,0.029 -0.106,0.029 -28.139,-0.231 -56.278,-0.453 -84.426,-0.675 -28.119,-0.222 -56.316,0.106 -84.426,-0.781 -0.268,-0.01 -0.326,-0.328 -0.172,-0.463 z m 0.01,0 c 0.029,-0.01 0.058,-0.029 0.077,-0.048 -0.029,0 -0.058,0.019 -0.077,0.048 z m 0.087,-0.058 c 0.019,-0.01 0.048,-0.01 0.077,-0.01 28.119,-0.453 56.306,0.318 84.426,0.53 28.148,0.222 56.287,0.434 84.426,0.646 0.096,0 0.174,0.038 0.231,0.077 -0.472,-2.988 -0.376,-6.401 -0.202,-9.437 0,0 -0.01,0.01 -0.019,0.01 -56.162,-1.465 -112.285,-1.321 -168.447,-1.822 0.443,1.379 0.145,2.911 0.048,4.338 -0.125,1.841 -0.222,3.692 -0.463,5.524 -0.01,0.057 -0.039,0.115 -0.077,0.144 z m 171.242,-0.569 c -0.106,0.019 -0.241,-0.019 -0.299,-0.154 -1.273,-3.123 -0.771,-5.861 0.202,-8.849 -0.231,0.164 -0.482,0.309 -0.713,0.453 -0.318,0.193 -0.646,0.376 -0.974,0.549 0.01,0.029 0.019,0.039 0.019,0.068 0.26,3.046 0.444,6.497 0.058,9.553 0.212,-0.212 0.434,-0.424 0.656,-0.636 0.338,-0.338 0.685,-0.685 1.051,-0.984 z m -1.022,-8.916 c 0.222,-0.154 0.443,-0.328 0.665,-0.472 -27.927,-0.974 -55.844,-1.899 -83.79,-2.236 -28.129,-0.337 -56.249,0.289 -84.378,0.116 0,0.087 -0.029,0.183 -0.125,0.241 -0.626,0.405 -1.263,0.868 -1.938,1.224 56.046,-1.215 112.256,0.058 168.283,1.552 0.154,0 0.251,0.077 0.318,0.164 0.329,-0.194 0.647,-0.387 0.965,-0.589 z"
   id="path139" />
					<path
   style="fill:#f7be29"
   d="m 573.676,299.283 c 0.058,0.135 0.193,0.173 0.299,0.154 -0.366,0.299 -0.713,0.646 -1.051,0.983 -0.222,0.212 -0.443,0.424 -0.656,0.636 0.386,-3.056 0.202,-6.507 -0.058,-9.553 0,-0.029 -0.01,-0.039 -0.019,-0.068 0.328,-0.174 0.655,-0.357 0.974,-0.549 0.231,-0.145 0.482,-0.289 0.713,-0.453 -0.973,2.989 -1.474,5.727 -0.202,8.85 z"
   id="path140" />
					<path
   style="fill:#f7be29"
   d="m 573.619,290.048 c -0.222,0.145 -0.444,0.318 -0.665,0.472 -0.318,0.202 -0.636,0.395 -0.964,0.588 -0.068,-0.087 -0.164,-0.164 -0.318,-0.164 -56.027,-1.494 -112.237,-2.767 -168.283,-1.552 0.675,-0.357 1.311,-0.819 1.938,-1.224 0.096,-0.058 0.125,-0.154 0.125,-0.241 28.129,0.173 56.249,-0.453 84.378,-0.116 27.945,0.338 55.862,1.264 83.789,2.237 z"
   id="path141" />
					<path
   style="fill:#fcd86f"
   d="m 571.893,301.25 c -0.058,-0.039 -0.135,-0.077 -0.231,-0.077 -28.139,-0.212 -56.278,-0.424 -84.426,-0.646 -28.119,-0.212 -56.306,-0.983 -84.426,-0.53 -0.029,0 -0.058,0 -0.077,0.01 0.039,-0.029 0.068,-0.087 0.077,-0.145 0.241,-1.832 0.337,-3.682 0.463,-5.524 0.096,-1.427 0.395,-2.959 -0.048,-4.338 56.162,0.501 112.285,0.357 168.447,1.822 0.01,0 0.019,-0.01 0.019,-0.01 -0.174,3.037 -0.27,6.449 0.202,9.438 z"
   id="path142" />
					<path
   style="fill:#1d1d1b"
   d="m 402.723,300.016 c -0.019,0.019 -0.048,0.039 -0.077,0.048 0.019,-0.029 0.048,-0.048 0.077,-0.048 z"
   id="path143" />
				</g><g
   id="g155"
   transform="matrix(0.59536866,0,0,0.59536866,-231.85085,-146.86066)"
   clip-path="url(#clipPath31)">
					<path
   style="fill:#1d1d1b"
   d="m 416.257,254.256 c 0.077,0.145 0.01,0.299 -0.106,0.386 -0.019,0.077 -0.087,0.145 -0.202,0.164 0,0.01 0,0.019 0,0.029 -1.754,18.306 -1.031,36.333 -0.665,54.648 0,0.077 -0.039,0.116 -0.087,0.145 -0.019,0.048 -0.058,0.106 -0.116,0.135 -0.685,0.424 -1.456,0.877 -2.217,1.147 -0.019,0.173 -0.135,0.318 -0.357,0.318 -3.837,-0.096 -7.75,0.125 -11.568,-0.231 -0.135,-0.01 -0.193,-0.096 -0.202,-0.183 -0.125,0.019 -0.26,-0.048 -0.28,-0.212 -1.542,-18.682 -1.658,-37.634 -2.121,-56.374 0,-0.087 0.029,-0.154 0.058,-0.212 -0.058,-0.048 -0.096,-0.116 -0.077,-0.222 h 0.01 c -0.019,-0.087 0.106,-0.318 0.174,-0.443 0.424,-0.771 1.494,-1.475 2.13,-2.072 1.494,-1.408 2.988,-2.873 4.598,-4.165 0.048,-0.048 0.106,-0.067 0.164,-0.077 0.019,-0.202 0.289,-0.357 0.492,-0.193 0.019,0.019 0.039,0.029 0.058,0.039 1.147,-0.173 2.342,-0.26 3.509,-0.183 0.212,0.01 0.289,0.183 0.26,0.337 1.311,0.617 2.371,1.986 3.306,3.027 1.156,1.271 2.448,2.659 3.239,4.192 z m -1.485,54.986 c 0.038,-0.029 0.087,-0.039 0.125,-0.039 -2.207,-17.872 -1.157,-36.429 0.424,-54.301 -0.521,0.077 -1.051,0.145 -1.571,0.183 0.096,0.029 0.183,0.116 0.173,0.27 -0.241,9.216 -1.436,18.364 -1.369,27.608 0.068,9.168 1.494,18.248 0.337,27.416 0.58,-0.443 1.264,-0.819 1.881,-1.137 z m -1.022,-54.639 c 0.578,-0.135 1.166,-0.251 1.754,-0.337 -1.06,-1.176 -1.957,-2.497 -3.017,-3.682 -0.945,-1.06 -2.304,-2.063 -3.017,-3.307 -0.01,0 -0.01,0.01 -0.019,0.01 -1.07,0.067 -2.159,-0.01 -3.229,-0.154 2.699,2.217 5.321,4.753 7.519,7.461 0,-0.001 0,0.009 0.009,0.009 z m -0.434,0.752 c 0.01,-0.077 0.039,-0.135 0.087,-0.183 -0.058,-0.01 -0.106,-0.039 -0.154,-0.087 -2.516,-2.458 -4.984,-5.003 -7.461,-7.509 -0.01,0.019 -0.019,0.038 -0.039,0.058 -1.109,1.166 -2.352,2.227 -3.547,3.316 -1.031,0.945 -2.371,1.841 -3.277,2.902 0.135,0.058 0.251,0.183 0.26,0.376 0.549,18.74 1.889,37.605 1.735,56.355 0.01,0 0.01,-0.01 0.019,-0.01 3.789,-0.463 7.721,-0.222 11.539,-0.116 0.26,-18.471 -1.417,-36.651 0.838,-55.102 z"
   id="path144" />
					<path
   style="fill:#f7be29"
   d="m 414.897,309.203 c -0.039,0 -0.087,0.01 -0.125,0.039 -0.617,0.318 -1.301,0.694 -1.88,1.137 1.157,-9.167 -0.27,-18.248 -0.337,-27.416 -0.067,-9.245 1.128,-18.393 1.369,-27.608 0.01,-0.154 -0.077,-0.241 -0.173,-0.27 0.521,-0.039 1.051,-0.106 1.571,-0.183 -1.581,17.872 -2.632,36.429 -0.425,54.301 z"
   id="path145" />
					<path
   style="fill:#f7be29"
   d="m 415.505,254.266 c -0.588,0.087 -1.176,0.202 -1.754,0.337 -0.01,0 -0.01,-0.01 -0.01,-0.01 -2.198,-2.709 -4.82,-5.244 -7.519,-7.461 1.07,0.145 2.159,0.222 3.229,0.154 0.01,0 0.01,-0.01 0.019,-0.01 0.713,1.244 2.073,2.246 3.017,3.307 1.061,1.186 1.957,2.506 3.018,3.683 z"
   id="path146" />
					<path
   style="fill:#fcd86f"
   d="m 413.403,255.172 c -0.048,0.048 -0.077,0.106 -0.087,0.183 -2.256,18.451 -0.578,36.631 -0.839,55.101 -3.817,-0.106 -7.75,-0.347 -11.539,0.116 -0.01,0 -0.01,0.01 -0.019,0.01 0.154,-18.75 -1.186,-37.615 -1.735,-56.355 -0.01,-0.193 -0.125,-0.318 -0.26,-0.376 0.906,-1.06 2.246,-1.957 3.277,-2.902 1.195,-1.089 2.439,-2.15 3.547,-3.316 0.019,-0.019 0.029,-0.039 0.039,-0.058 2.477,2.506 4.945,5.051 7.461,7.509 0.049,0.049 0.097,0.078 0.155,0.088 z m -6.921,5.282 c 0.945,-0.376 1.774,-1.571 1.215,-2.584 -0.443,-0.81 -1.379,-0.81 -2.188,-0.588 -0.01,-0.029 -0.019,-0.058 -0.048,-0.058 -1.08,-0.231 -1.889,1.003 -1.629,1.976 0.317,1.139 1.589,1.688 2.65,1.254 z m 1.07,34.627 c 0.048,-0.887 -0.829,-1.668 -1.697,-1.379 -0.222,0.077 -0.202,0.453 0.067,0.434 0.058,-0.01 0.125,0 0.193,0.01 -0.116,0.058 -0.222,0.116 -0.337,0.193 -0.116,-0.174 -0.222,-0.357 -0.347,-0.53 0,-0.01 -0.01,-0.01 -0.019,-0.01 0.106,-0.038 0.212,-0.067 0.337,-0.067 0.125,-0.01 0.154,-0.183 0.029,-0.222 -0.819,-0.251 -1.716,0.472 -1.803,1.292 -0.106,0.954 0.733,1.764 1.648,1.841 0.917,0.086 1.881,-0.608 1.929,-1.562 z"
   id="path147" />
					<path
   style="fill:#1d1d1b"
   d="m 407.696,257.871 c 0.559,1.012 -0.27,2.208 -1.215,2.584 -1.06,0.434 -2.333,-0.116 -2.651,-1.253 -0.26,-0.974 0.549,-2.208 1.629,-1.976 0.029,0 0.038,0.029 0.048,0.058 0.811,-0.223 1.746,-0.223 2.189,0.587 z m -0.752,1.465 c 0.357,-0.472 0.472,-1.137 -0.067,-1.504 0.019,0.048 0.029,0.106 0,0.164 -0.174,0.289 -0.395,0.549 -0.627,0.8 0.232,0.183 0.473,0.347 0.694,0.54 z m -0.375,-1.571 c 0.029,-0.029 0.067,-0.029 0.096,-0.039 -0.511,-0.173 -1.195,0.096 -1.648,0.27 -0.116,0.048 -0.212,-0.019 -0.27,-0.106 -0.386,0.405 -0.54,0.964 -0.135,1.523 0.029,0.038 0.067,0.058 0.106,0.096 0.299,-0.28 0.598,-0.549 0.887,-0.839 -0.154,-0.183 -0.309,-0.366 -0.434,-0.54 -0.077,-0.116 0.096,-0.231 0.193,-0.145 0.164,0.154 0.328,0.309 0.492,0.453 0.231,-0.22 0.462,-0.451 0.713,-0.673 z m -0.078,2.005 c 0.067,-0.039 0.125,-0.096 0.193,-0.145 -0.251,-0.145 -0.482,-0.347 -0.704,-0.559 -0.299,0.27 -0.627,0.511 -0.954,0.723 0.434,0.26 1.003,0.251 1.465,-0.019 z"
   id="path148" />
					<path
   style="fill:#1d1d1b"
   d="m 405.855,293.702 c 0.868,-0.289 1.745,0.492 1.697,1.379 -0.048,0.954 -1.012,1.648 -1.928,1.562 -0.916,-0.077 -1.754,-0.887 -1.648,-1.841 0.087,-0.819 0.983,-1.542 1.803,-1.292 0.125,0.039 0.096,0.212 -0.029,0.222 -0.125,0 -0.231,0.029 -0.337,0.067 0.01,0 0.019,0 0.019,0.01 0.125,0.173 0.231,0.357 0.347,0.53 0.116,-0.077 0.222,-0.135 0.337,-0.193 -0.067,-0.01 -0.135,-0.019 -0.193,-0.01 -0.27,0.019 -0.29,-0.357 -0.068,-0.434 z m 1.041,1.543 c 0.096,-0.318 0.01,-0.607 -0.183,-0.81 -0.01,0.01 -0.01,0.019 -0.019,0.029 -0.202,0.106 -0.395,0.222 -0.588,0.337 0.202,0.26 0.434,0.492 0.607,0.762 0.077,-0.097 0.145,-0.203 0.183,-0.318 z m -1.378,0.732 c 0.289,0.067 0.607,0.01 0.877,-0.135 -0.26,-0.202 -0.492,-0.472 -0.704,-0.771 -0.251,0.183 -0.501,0.376 -0.752,0.598 0.145,0.135 0.338,0.25 0.579,0.308 z m -0.116,-1.369 c -0.116,-0.222 -0.231,-0.444 -0.318,-0.656 0,0 0,0 0,-0.01 -0.482,0.318 -0.617,0.945 -0.366,1.427 0.183,-0.269 0.414,-0.539 0.684,-0.761 z"
   id="path149" />
					<path
   style="fill:#f7be29"
   d="m 406.877,257.832 c 0.54,0.366 0.424,1.031 0.067,1.504 -0.222,-0.193 -0.463,-0.357 -0.694,-0.54 0.231,-0.251 0.453,-0.511 0.627,-0.8 0.029,-0.058 0.019,-0.116 0,-0.164 z"
   id="path150" />
					<path
   style="fill:#f7be29"
   d="m 406.713,294.435 c 0.193,0.202 0.279,0.492 0.183,0.81 -0.038,0.116 -0.106,0.222 -0.183,0.318 -0.174,-0.27 -0.405,-0.501 -0.607,-0.762 0.193,-0.116 0.385,-0.231 0.588,-0.337 0.009,-0.01 0.009,-0.02 0.019,-0.029 z"
   id="path151" />
					<path
   style="fill:#f7be29"
   d="m 406.665,257.726 c -0.029,0.01 -0.068,0.01 -0.096,0.039 -0.251,0.222 -0.482,0.453 -0.713,0.675 -0.164,-0.145 -0.328,-0.299 -0.492,-0.453 -0.096,-0.087 -0.27,0.029 -0.193,0.145 0.125,0.173 0.28,0.357 0.434,0.54 -0.289,0.289 -0.588,0.559 -0.887,0.839 -0.039,-0.039 -0.077,-0.058 -0.106,-0.096 -0.405,-0.559 -0.251,-1.118 0.135,-1.523 0.058,0.087 0.154,0.154 0.27,0.106 0.453,-0.175 1.137,-0.445 1.648,-0.272 z"
   id="path152" />
					<path
   style="fill:#f7be29"
   d="m 406.684,259.625 c -0.067,0.048 -0.125,0.106 -0.193,0.145 -0.463,0.27 -1.031,0.28 -1.465,0.019 0.328,-0.212 0.655,-0.453 0.954,-0.723 0.222,0.212 0.454,0.415 0.704,0.559 z"
   id="path153" />
					<path
   style="fill:#f7be29"
   d="m 406.395,295.842 c -0.27,0.145 -0.588,0.202 -0.877,0.135 -0.241,-0.058 -0.434,-0.174 -0.578,-0.308 0.251,-0.222 0.501,-0.415 0.752,-0.598 0.211,0.299 0.443,0.569 0.703,0.771 z"
   id="path154" />
					<path
   style="fill:#f7be29"
   d="m 405.084,293.953 c 0.087,0.212 0.202,0.434 0.318,0.656 -0.27,0.222 -0.501,0.492 -0.684,0.762 -0.251,-0.482 -0.116,-1.109 0.366,-1.427 z"
   id="path155" />
				</g><g
   id="g167"
   transform="matrix(0.59536866,0,0,0.59536866,-231.85085,-146.86066)"
   clip-path="url(#clipPath30)">
					<path
   style="fill:#1d1d1b"
   d="m 449.976,254.256 c 0.077,0.145 0.01,0.299 -0.106,0.386 -0.019,0.077 -0.087,0.145 -0.203,0.164 0,0.01 0,0.019 0,0.029 -1.754,18.306 -1.031,36.333 -0.665,54.648 0,0.077 -0.039,0.116 -0.087,0.145 -0.019,0.048 -0.058,0.106 -0.116,0.135 -0.684,0.424 -1.456,0.877 -2.217,1.147 -0.019,0.173 -0.135,0.318 -0.357,0.318 -3.837,-0.096 -7.75,0.125 -11.568,-0.231 -0.135,-0.01 -0.193,-0.096 -0.203,-0.183 -0.125,0.019 -0.26,-0.048 -0.279,-0.212 -1.542,-18.682 -1.658,-37.634 -2.121,-56.374 0,-0.087 0.029,-0.154 0.058,-0.212 -0.058,-0.048 -0.096,-0.116 -0.077,-0.222 h 0.01 c -0.019,-0.087 0.106,-0.318 0.173,-0.443 0.424,-0.771 1.494,-1.475 2.13,-2.072 1.494,-1.408 2.988,-2.873 4.598,-4.165 0.048,-0.048 0.106,-0.067 0.164,-0.077 0.019,-0.202 0.289,-0.357 0.492,-0.193 0.019,0.019 0.039,0.029 0.058,0.039 1.147,-0.173 2.342,-0.26 3.509,-0.183 0.212,0.01 0.289,0.183 0.26,0.337 1.311,0.617 2.371,1.986 3.307,3.027 1.157,1.271 2.449,2.659 3.24,4.192 z m -1.485,54.986 c 0.039,-0.029 0.087,-0.039 0.125,-0.039 -2.207,-17.872 -1.157,-36.429 0.424,-54.301 -0.521,0.077 -1.051,0.145 -1.571,0.183 0.096,0.029 0.183,0.116 0.174,0.27 -0.241,9.216 -1.436,18.364 -1.369,27.608 0.068,9.168 1.494,18.248 0.337,27.416 0.579,-0.443 1.263,-0.819 1.88,-1.137 z m -1.022,-54.639 c 0.578,-0.135 1.167,-0.251 1.755,-0.337 -1.06,-1.176 -1.957,-2.497 -3.017,-3.682 -0.945,-1.06 -2.304,-2.063 -3.017,-3.307 -0.01,0 -0.01,0.01 -0.019,0.01 -1.07,0.067 -2.159,-0.01 -3.229,-0.154 2.699,2.217 5.321,4.753 7.519,7.461 -0.001,-0.001 -0.001,0.009 0.008,0.009 z m -0.434,0.752 c 0.01,-0.077 0.039,-0.135 0.087,-0.183 -0.058,-0.01 -0.106,-0.039 -0.154,-0.087 -2.516,-2.458 -4.984,-5.003 -7.461,-7.509 -0.01,0.019 -0.019,0.038 -0.038,0.058 -1.109,1.166 -2.352,2.227 -3.548,3.316 -1.031,0.945 -2.371,1.841 -3.278,2.902 0.135,0.058 0.251,0.183 0.26,0.376 0.55,18.74 1.889,37.605 1.735,56.355 0.01,0 0.01,-0.01 0.019,-0.01 3.788,-0.463 7.721,-0.222 11.539,-0.116 0.261,-18.471 -1.416,-36.651 0.839,-55.102 z"
   id="path156" />
					<path
   style="fill:#f7be29"
   d="m 448.616,309.203 c -0.039,0 -0.087,0.01 -0.125,0.039 -0.617,0.318 -1.301,0.694 -1.88,1.137 1.157,-9.167 -0.27,-18.248 -0.337,-27.416 -0.068,-9.245 1.128,-18.393 1.369,-27.608 0.01,-0.154 -0.077,-0.241 -0.174,-0.27 0.521,-0.039 1.051,-0.106 1.571,-0.183 -1.58,17.872 -2.631,36.429 -0.424,54.301 z"
   id="path157" />
					<path
   style="fill:#f7be29"
   d="m 449.224,254.266 c -0.588,0.087 -1.176,0.202 -1.755,0.337 -0.01,0 -0.01,-0.01 -0.01,-0.01 -2.198,-2.709 -4.82,-5.244 -7.519,-7.461 1.07,0.145 2.159,0.222 3.229,0.154 0.01,0 0.01,-0.01 0.019,-0.01 0.713,1.244 2.073,2.246 3.017,3.307 1.062,1.186 1.958,2.506 3.019,3.683 z"
   id="path158" />
					<path
   style="fill:#fcd86f"
   d="m 447.122,255.172 c -0.048,0.048 -0.077,0.106 -0.087,0.183 -2.256,18.451 -0.578,36.631 -0.839,55.101 -3.817,-0.106 -7.75,-0.347 -11.539,0.116 -0.01,0 -0.01,0.01 -0.019,0.01 0.154,-18.75 -1.186,-37.615 -1.735,-56.355 -0.01,-0.193 -0.125,-0.318 -0.26,-0.376 0.906,-1.06 2.246,-1.957 3.278,-2.902 1.195,-1.089 2.439,-2.15 3.548,-3.316 0.019,-0.019 0.029,-0.039 0.038,-0.058 2.478,2.506 4.945,5.051 7.461,7.509 0.048,0.049 0.096,0.078 0.154,0.088 z m -6.921,5.282 c 0.945,-0.376 1.774,-1.571 1.215,-2.584 -0.443,-0.81 -1.378,-0.81 -2.188,-0.588 -0.01,-0.029 -0.019,-0.058 -0.048,-0.058 -1.08,-0.231 -1.889,1.003 -1.629,1.976 0.317,1.139 1.589,1.688 2.65,1.254 z m 1.07,34.627 c 0.048,-0.887 -0.829,-1.668 -1.697,-1.379 -0.222,0.077 -0.202,0.453 0.068,0.434 0.058,-0.01 0.125,0 0.193,0.01 -0.116,0.058 -0.222,0.116 -0.337,0.193 -0.116,-0.174 -0.222,-0.357 -0.347,-0.53 0,-0.01 -0.01,-0.01 -0.019,-0.01 0.106,-0.038 0.212,-0.067 0.337,-0.067 0.125,-0.01 0.154,-0.183 0.029,-0.222 -0.819,-0.251 -1.716,0.472 -1.803,1.292 -0.106,0.954 0.733,1.764 1.648,1.841 0.916,0.086 1.88,-0.608 1.928,-1.562 z"
   id="path159" />
					<path
   style="fill:#1d1d1b"
   d="m 441.415,257.871 c 0.559,1.012 -0.27,2.208 -1.215,2.584 -1.06,0.434 -2.333,-0.116 -2.651,-1.253 -0.26,-0.974 0.549,-2.208 1.629,-1.976 0.029,0 0.039,0.029 0.048,0.058 0.811,-0.223 1.746,-0.223 2.189,0.587 z m -0.751,1.465 c 0.357,-0.472 0.472,-1.137 -0.068,-1.504 0.019,0.048 0.029,0.106 0,0.164 -0.173,0.289 -0.395,0.549 -0.627,0.8 0.232,0.183 0.473,0.347 0.695,0.54 z m -0.376,-1.571 c 0.029,-0.029 0.068,-0.029 0.096,-0.039 -0.511,-0.173 -1.195,0.096 -1.648,0.27 -0.116,0.048 -0.212,-0.019 -0.27,-0.106 -0.386,0.405 -0.54,0.964 -0.135,1.523 0.029,0.038 0.067,0.058 0.106,0.096 0.299,-0.28 0.598,-0.549 0.887,-0.839 -0.154,-0.183 -0.309,-0.366 -0.434,-0.54 -0.077,-0.116 0.096,-0.231 0.193,-0.145 0.164,0.154 0.328,0.309 0.492,0.453 0.231,-0.22 0.462,-0.451 0.713,-0.673 z m -0.078,2.005 c 0.068,-0.039 0.125,-0.096 0.193,-0.145 -0.251,-0.145 -0.482,-0.347 -0.704,-0.559 -0.299,0.27 -0.627,0.511 -0.954,0.723 0.434,0.26 1.003,0.251 1.465,-0.019 z"
   id="path160" />
					<path
   style="fill:#1d1d1b"
   d="m 439.574,293.702 c 0.868,-0.289 1.745,0.492 1.697,1.379 -0.048,0.954 -1.012,1.648 -1.928,1.562 -0.916,-0.077 -1.754,-0.887 -1.648,-1.841 0.087,-0.819 0.983,-1.542 1.803,-1.292 0.125,0.039 0.096,0.212 -0.029,0.222 -0.125,0 -0.231,0.029 -0.337,0.067 0.01,0 0.019,0 0.019,0.01 0.125,0.173 0.231,0.357 0.347,0.53 0.116,-0.077 0.222,-0.135 0.337,-0.193 -0.068,-0.01 -0.135,-0.019 -0.193,-0.01 -0.27,0.019 -0.289,-0.357 -0.068,-0.434 z m 1.041,1.543 c 0.096,-0.318 0.01,-0.607 -0.183,-0.81 -0.01,0.01 -0.01,0.019 -0.019,0.029 -0.203,0.106 -0.395,0.222 -0.588,0.337 0.202,0.26 0.434,0.492 0.607,0.762 0.077,-0.097 0.145,-0.203 0.183,-0.318 z m -1.378,0.732 c 0.289,0.067 0.607,0.01 0.877,-0.135 -0.26,-0.202 -0.492,-0.472 -0.704,-0.771 -0.251,0.183 -0.501,0.376 -0.752,0.598 0.145,0.135 0.338,0.25 0.579,0.308 z m -0.116,-1.369 c -0.116,-0.222 -0.231,-0.444 -0.318,-0.656 0,0 0,0 0,-0.01 -0.482,0.318 -0.617,0.945 -0.366,1.427 0.183,-0.269 0.414,-0.539 0.684,-0.761 z"
   id="path161" />
					<path
   style="fill:#f7be29"
   d="m 440.596,257.832 c 0.54,0.366 0.424,1.031 0.068,1.504 -0.222,-0.193 -0.463,-0.357 -0.694,-0.54 0.231,-0.251 0.453,-0.511 0.627,-0.8 0.028,-0.058 0.018,-0.116 -10e-4,-0.164 z"
   id="path162" />
					<path
   style="fill:#f7be29"
   d="m 440.432,294.435 c 0.193,0.202 0.28,0.492 0.183,0.81 -0.039,0.116 -0.106,0.222 -0.183,0.318 -0.174,-0.27 -0.405,-0.501 -0.607,-0.762 0.193,-0.116 0.386,-0.231 0.588,-0.337 0.01,-0.01 0.01,-0.02 0.019,-0.029 z"
   id="path163" />
					<path
   style="fill:#f7be29"
   d="m 440.384,257.726 c -0.029,0.01 -0.067,0.01 -0.096,0.039 -0.251,0.222 -0.482,0.453 -0.713,0.675 -0.164,-0.145 -0.328,-0.299 -0.492,-0.453 -0.096,-0.087 -0.27,0.029 -0.193,0.145 0.125,0.173 0.279,0.357 0.434,0.54 -0.289,0.289 -0.588,0.559 -0.887,0.839 -0.039,-0.039 -0.077,-0.058 -0.106,-0.096 -0.405,-0.559 -0.251,-1.118 0.135,-1.523 0.058,0.087 0.154,0.154 0.27,0.106 0.453,-0.175 1.137,-0.445 1.648,-0.272 z"
   id="path164" />
					<path
   style="fill:#f7be29"
   d="m 440.403,259.625 c -0.068,0.048 -0.125,0.106 -0.193,0.145 -0.463,0.27 -1.031,0.28 -1.465,0.019 0.328,-0.212 0.656,-0.453 0.954,-0.723 0.222,0.212 0.454,0.415 0.704,0.559 z"
   id="path165" />
					<path
   style="fill:#f7be29"
   d="m 440.114,295.842 c -0.27,0.145 -0.588,0.202 -0.877,0.135 -0.241,-0.058 -0.434,-0.174 -0.578,-0.308 0.251,-0.222 0.501,-0.415 0.752,-0.598 0.211,0.299 0.443,0.569 0.703,0.771 z"
   id="path166" />
					<path
   style="fill:#f7be29"
   d="m 438.803,293.953 c 0.087,0.212 0.202,0.434 0.318,0.656 -0.27,0.222 -0.501,0.492 -0.684,0.762 -0.251,-0.482 -0.116,-1.109 0.366,-1.427 z"
   id="path167" />
				</g><g
   id="g179"
   transform="matrix(0.59536866,0,0,0.59536866,-231.85085,-146.86066)"
   clip-path="url(#clipPath29)">
					<path
   style="fill:#1d1d1b"
   d="m 484.815,254.256 c 0.077,0.145 0.01,0.299 -0.106,0.386 -0.019,0.077 -0.087,0.145 -0.202,0.164 0,0.01 0,0.019 0,0.029 -1.754,18.306 -1.031,36.333 -0.665,54.648 0,0.077 -0.039,0.116 -0.087,0.145 -0.019,0.048 -0.058,0.106 -0.116,0.135 -0.684,0.424 -1.456,0.877 -2.217,1.147 -0.019,0.173 -0.135,0.318 -0.357,0.318 -3.837,-0.096 -7.751,0.125 -11.568,-0.231 -0.135,-0.01 -0.193,-0.096 -0.203,-0.183 -0.125,0.019 -0.26,-0.048 -0.28,-0.212 -1.542,-18.682 -1.658,-37.634 -2.121,-56.374 0,-0.087 0.029,-0.154 0.058,-0.212 -0.058,-0.048 -0.096,-0.116 -0.077,-0.222 h 0.01 c -0.019,-0.087 0.106,-0.318 0.174,-0.443 0.424,-0.771 1.494,-1.475 2.13,-2.072 1.494,-1.408 2.988,-2.873 4.598,-4.165 0.048,-0.048 0.106,-0.067 0.164,-0.077 0.019,-0.202 0.289,-0.357 0.492,-0.193 0.019,0.019 0.039,0.029 0.058,0.039 1.147,-0.173 2.342,-0.26 3.509,-0.183 0.212,0.01 0.289,0.183 0.26,0.337 1.311,0.617 2.371,1.986 3.306,3.027 1.158,1.271 2.449,2.659 3.24,4.192 z m -1.485,54.986 c 0.039,-0.029 0.087,-0.039 0.125,-0.039 -2.208,-17.872 -1.157,-36.429 0.424,-54.301 -0.521,0.077 -1.051,0.145 -1.571,0.183 0.096,0.029 0.183,0.116 0.174,0.27 -0.241,9.216 -1.436,18.364 -1.369,27.608 0.068,9.168 1.494,18.248 0.337,27.416 0.579,-0.443 1.263,-0.819 1.88,-1.137 z m -1.022,-54.639 c 0.578,-0.135 1.166,-0.251 1.755,-0.337 -1.06,-1.176 -1.957,-2.497 -3.017,-3.682 -0.945,-1.06 -2.304,-2.063 -3.017,-3.307 -0.01,0 -0.01,0.01 -0.019,0.01 -1.07,0.067 -2.159,-0.01 -3.229,-0.154 2.699,2.217 5.321,4.753 7.519,7.461 -0.001,-0.001 -0.001,0.009 0.008,0.009 z m -0.433,0.752 c 0.01,-0.077 0.039,-0.135 0.087,-0.183 -0.058,-0.01 -0.106,-0.039 -0.154,-0.087 -2.516,-2.458 -4.984,-5.003 -7.461,-7.509 -0.01,0.019 -0.019,0.038 -0.039,0.058 -1.108,1.166 -2.352,2.227 -3.547,3.316 -1.032,0.945 -2.371,1.841 -3.278,2.902 0.135,0.058 0.251,0.183 0.26,0.376 0.549,18.74 1.889,37.605 1.735,56.355 0.01,0 0.01,-0.01 0.019,-0.01 3.788,-0.463 7.721,-0.222 11.539,-0.116 0.26,-18.471 -1.417,-36.651 0.839,-55.102 z"
   id="path168" />
					<path
   style="fill:#f7be29"
   d="m 483.456,309.203 c -0.039,0 -0.087,0.01 -0.125,0.039 -0.617,0.318 -1.301,0.694 -1.88,1.137 1.157,-9.167 -0.27,-18.248 -0.337,-27.416 -0.068,-9.245 1.128,-18.393 1.369,-27.608 0.01,-0.154 -0.077,-0.241 -0.174,-0.27 0.521,-0.039 1.051,-0.106 1.571,-0.183 -1.581,17.872 -2.632,36.429 -0.424,54.301 z"
   id="path169" />
					<path
   style="fill:#f7be29"
   d="m 484.063,254.266 c -0.588,0.087 -1.176,0.202 -1.755,0.337 -0.01,0 -0.01,-0.01 -0.01,-0.01 -2.198,-2.709 -4.82,-5.244 -7.519,-7.461 1.07,0.145 2.159,0.222 3.229,0.154 0.01,0 0.01,-0.01 0.019,-0.01 0.713,1.244 2.073,2.246 3.017,3.307 1.062,1.186 1.959,2.506 3.019,3.683 z"
   id="path170" />
					<path
   style="fill:#fcd86f"
   d="m 481.961,255.172 c -0.048,0.048 -0.077,0.106 -0.087,0.183 -2.256,18.451 -0.578,36.631 -0.839,55.101 -3.817,-0.106 -7.75,-0.347 -11.539,0.116 -0.01,0 -0.01,0.01 -0.019,0.01 0.154,-18.75 -1.186,-37.615 -1.735,-56.355 -0.01,-0.193 -0.125,-0.318 -0.26,-0.376 0.906,-1.06 2.246,-1.957 3.278,-2.902 1.195,-1.089 2.439,-2.15 3.547,-3.316 0.019,-0.019 0.029,-0.039 0.039,-0.058 2.477,2.506 4.945,5.051 7.461,7.509 0.048,0.049 0.097,0.078 0.154,0.088 z m -6.921,5.282 c 0.945,-0.376 1.774,-1.571 1.215,-2.584 -0.443,-0.81 -1.378,-0.81 -2.188,-0.588 -0.01,-0.029 -0.019,-0.058 -0.048,-0.058 -1.08,-0.231 -1.889,1.003 -1.629,1.976 0.317,1.139 1.59,1.688 2.65,1.254 z m 1.07,34.627 c 0.048,-0.887 -0.829,-1.668 -1.697,-1.379 -0.222,0.077 -0.202,0.453 0.068,0.434 0.058,-0.01 0.125,0 0.193,0.01 -0.116,0.058 -0.222,0.116 -0.337,0.193 -0.116,-0.174 -0.222,-0.357 -0.347,-0.53 0,-0.01 -0.01,-0.01 -0.019,-0.01 0.106,-0.038 0.212,-0.067 0.337,-0.067 0.125,-0.01 0.154,-0.183 0.029,-0.222 -0.819,-0.251 -1.716,0.472 -1.803,1.292 -0.106,0.954 0.733,1.764 1.648,1.841 0.916,0.086 1.88,-0.608 1.928,-1.562 z"
   id="path171" />
					<path
   style="fill:#1d1d1b"
   d="m 476.255,257.871 c 0.559,1.012 -0.27,2.208 -1.215,2.584 -1.06,0.434 -2.333,-0.116 -2.651,-1.253 -0.26,-0.974 0.549,-2.208 1.629,-1.976 0.029,0 0.039,0.029 0.048,0.058 0.81,-0.223 1.745,-0.223 2.189,0.587 z m -0.752,1.465 c 0.357,-0.472 0.472,-1.137 -0.068,-1.504 0.019,0.048 0.029,0.106 0,0.164 -0.173,0.289 -0.395,0.549 -0.627,0.8 0.232,0.183 0.473,0.347 0.695,0.54 z m -0.376,-1.571 c 0.029,-0.029 0.068,-0.029 0.096,-0.039 -0.511,-0.173 -1.195,0.096 -1.648,0.27 -0.116,0.048 -0.212,-0.019 -0.27,-0.106 -0.386,0.405 -0.54,0.964 -0.135,1.523 0.029,0.038 0.067,0.058 0.106,0.096 0.299,-0.28 0.598,-0.549 0.887,-0.839 -0.154,-0.183 -0.308,-0.366 -0.434,-0.54 -0.077,-0.116 0.096,-0.231 0.193,-0.145 0.164,0.154 0.328,0.309 0.492,0.453 0.231,-0.22 0.462,-0.451 0.713,-0.673 z m -0.077,2.005 c 0.068,-0.039 0.125,-0.096 0.193,-0.145 -0.251,-0.145 -0.482,-0.347 -0.704,-0.559 -0.299,0.27 -0.627,0.511 -0.954,0.723 0.433,0.26 1.002,0.251 1.465,-0.019 z"
   id="path172" />
					<path
   style="fill:#1d1d1b"
   d="m 474.413,293.702 c 0.868,-0.289 1.745,0.492 1.697,1.379 -0.048,0.954 -1.012,1.648 -1.928,1.562 -0.916,-0.077 -1.754,-0.887 -1.648,-1.841 0.087,-0.819 0.983,-1.542 1.803,-1.292 0.125,0.039 0.096,0.212 -0.029,0.222 -0.125,0 -0.231,0.029 -0.337,0.067 0.01,0 0.019,0 0.019,0.01 0.125,0.173 0.231,0.357 0.347,0.53 0.116,-0.077 0.222,-0.135 0.337,-0.193 -0.067,-0.01 -0.135,-0.019 -0.193,-0.01 -0.27,0.019 -0.289,-0.357 -0.068,-0.434 z m 1.042,1.543 c 0.096,-0.318 0.01,-0.607 -0.183,-0.81 -0.01,0.01 -0.01,0.019 -0.019,0.029 -0.202,0.106 -0.395,0.222 -0.588,0.337 0.202,0.26 0.434,0.492 0.607,0.762 0.076,-0.097 0.144,-0.203 0.183,-0.318 z m -1.379,0.732 c 0.289,0.067 0.607,0.01 0.877,-0.135 -0.26,-0.202 -0.492,-0.472 -0.704,-0.771 -0.251,0.183 -0.501,0.376 -0.752,0.598 0.145,0.135 0.338,0.25 0.579,0.308 z m -0.116,-1.369 c -0.116,-0.222 -0.231,-0.444 -0.318,-0.656 0,0 0,0 0,-0.01 -0.482,0.318 -0.617,0.945 -0.366,1.427 0.183,-0.269 0.414,-0.539 0.684,-0.761 z"
   id="path173" />
					<path
   style="fill:#f7be29"
   d="m 475.435,257.832 c 0.54,0.366 0.424,1.031 0.068,1.504 -0.222,-0.193 -0.463,-0.357 -0.694,-0.54 0.231,-0.251 0.453,-0.511 0.627,-0.8 0.028,-0.058 0.019,-0.116 -10e-4,-0.164 z"
   id="path174" />
					<path
   style="fill:#f7be29"
   d="m 475.271,294.435 c 0.193,0.202 0.28,0.492 0.183,0.81 -0.039,0.116 -0.106,0.222 -0.183,0.318 -0.174,-0.27 -0.405,-0.501 -0.607,-0.762 0.193,-0.116 0.386,-0.231 0.588,-0.337 0.01,-0.01 0.01,-0.02 0.019,-0.029 z"
   id="path175" />
					<path
   style="fill:#f7be29"
   d="m 475.223,257.726 c -0.029,0.01 -0.068,0.01 -0.096,0.039 -0.251,0.222 -0.482,0.453 -0.713,0.675 -0.164,-0.145 -0.328,-0.299 -0.492,-0.453 -0.096,-0.087 -0.27,0.029 -0.193,0.145 0.125,0.173 0.279,0.357 0.434,0.54 -0.289,0.289 -0.588,0.559 -0.887,0.839 -0.039,-0.039 -0.077,-0.058 -0.106,-0.096 -0.405,-0.559 -0.251,-1.118 0.135,-1.523 0.058,0.087 0.154,0.154 0.27,0.106 0.453,-0.175 1.137,-0.445 1.648,-0.272 z"
   id="path176" />
					<path
   style="fill:#f7be29"
   d="m 475.242,259.625 c -0.068,0.048 -0.125,0.106 -0.193,0.145 -0.463,0.27 -1.031,0.28 -1.465,0.019 0.328,-0.212 0.656,-0.453 0.954,-0.723 0.222,0.212 0.454,0.415 0.704,0.559 z"
   id="path177" />
					<path
   style="fill:#f7be29"
   d="m 474.953,295.842 c -0.27,0.145 -0.588,0.202 -0.877,0.135 -0.241,-0.058 -0.434,-0.174 -0.578,-0.308 0.251,-0.222 0.501,-0.415 0.752,-0.598 0.212,0.299 0.443,0.569 0.703,0.771 z"
   id="path178" />
					<path
   style="fill:#f7be29"
   d="m 473.642,293.953 c 0.087,0.212 0.202,0.434 0.318,0.656 -0.27,0.222 -0.501,0.492 -0.684,0.762 -0.251,-0.482 -0.116,-1.109 0.366,-1.427 z"
   id="path179" />
				</g><g
   id="g191"
   transform="matrix(0.59536866,0,0,0.59536866,-231.85085,-146.86066)"
   clip-path="url(#clipPath28)">
					<path
   style="fill:#1d1d1b"
   d="m 518.534,254.256 c 0.077,0.145 0.01,0.299 -0.106,0.386 -0.019,0.077 -0.087,0.145 -0.202,0.164 0,0.01 0,0.019 0,0.029 -1.754,18.306 -1.031,36.333 -0.665,54.648 0,0.077 -0.039,0.116 -0.087,0.145 -0.019,0.048 -0.058,0.106 -0.116,0.135 -0.684,0.424 -1.456,0.877 -2.217,1.147 -0.019,0.173 -0.135,0.318 -0.357,0.318 -3.837,-0.096 -7.75,0.125 -11.568,-0.231 -0.135,-0.01 -0.193,-0.096 -0.202,-0.183 -0.125,0.019 -0.26,-0.048 -0.28,-0.212 -1.542,-18.682 -1.658,-37.634 -2.121,-56.374 0,-0.087 0.029,-0.154 0.058,-0.212 -0.058,-0.048 -0.096,-0.116 -0.077,-0.222 h 0.01 c -0.019,-0.087 0.106,-0.318 0.174,-0.443 0.424,-0.771 1.494,-1.475 2.13,-2.072 1.494,-1.408 2.988,-2.873 4.598,-4.165 0.048,-0.048 0.106,-0.067 0.164,-0.077 0.019,-0.202 0.289,-0.357 0.492,-0.193 0.019,0.019 0.039,0.029 0.058,0.039 1.147,-0.173 2.342,-0.26 3.509,-0.183 0.212,0.01 0.289,0.183 0.26,0.337 1.311,0.617 2.371,1.986 3.306,3.027 1.157,1.271 2.448,2.659 3.239,4.192 z m -1.485,54.986 c 0.039,-0.029 0.087,-0.039 0.125,-0.039 -2.208,-17.872 -1.157,-36.429 0.424,-54.301 -0.521,0.077 -1.051,0.145 -1.571,0.183 0.096,0.029 0.183,0.116 0.173,0.27 -0.241,9.216 -1.436,18.364 -1.369,27.608 0.067,9.168 1.494,18.248 0.337,27.416 0.58,-0.443 1.264,-0.819 1.881,-1.137 z m -1.021,-54.639 c 0.578,-0.135 1.166,-0.251 1.754,-0.337 -1.06,-1.176 -1.957,-2.497 -3.017,-3.682 -0.945,-1.06 -2.304,-2.063 -3.017,-3.307 -0.01,0 -0.01,0.01 -0.019,0.01 -1.07,0.067 -2.159,-0.01 -3.229,-0.154 2.699,2.217 5.321,4.753 7.519,7.461 -10e-4,-0.001 -10e-4,0.009 0.009,0.009 z m -0.434,0.752 c 0.01,-0.077 0.039,-0.135 0.087,-0.183 -0.058,-0.01 -0.106,-0.039 -0.154,-0.087 -2.516,-2.458 -4.984,-5.003 -7.461,-7.509 -0.01,0.019 -0.019,0.038 -0.039,0.058 -1.109,1.166 -2.352,2.227 -3.547,3.316 -1.031,0.945 -2.371,1.841 -3.278,2.902 0.135,0.058 0.251,0.183 0.26,0.376 0.549,18.74 1.889,37.605 1.735,56.355 0.01,0 0.01,-0.01 0.019,-0.01 3.788,-0.463 7.722,-0.222 11.539,-0.116 0.26,-18.471 -1.417,-36.651 0.839,-55.102 z"
   id="path180" />
					<path
   style="fill:#f7be29"
   d="m 517.175,309.203 c -0.039,0 -0.087,0.01 -0.125,0.039 -0.617,0.318 -1.301,0.694 -1.88,1.137 1.157,-9.167 -0.27,-18.248 -0.337,-27.416 -0.068,-9.245 1.128,-18.393 1.369,-27.608 0.01,-0.154 -0.077,-0.241 -0.173,-0.27 0.521,-0.039 1.051,-0.106 1.571,-0.183 -1.582,17.872 -2.633,36.429 -0.425,54.301 z"
   id="path181" />
					<path
   style="fill:#f7be29"
   d="m 517.782,254.266 c -0.588,0.087 -1.176,0.202 -1.754,0.337 -0.01,0 -0.01,-0.01 -0.01,-0.01 -2.198,-2.709 -4.82,-5.244 -7.519,-7.461 1.07,0.145 2.159,0.222 3.229,0.154 0.01,0 0.01,-0.01 0.019,-0.01 0.713,1.244 2.073,2.246 3.017,3.307 1.061,1.186 1.958,2.506 3.018,3.683 z"
   id="path182" />
					<path
   style="fill:#fcd86f"
   d="m 515.681,255.172 c -0.048,0.048 -0.077,0.106 -0.087,0.183 -2.256,18.451 -0.578,36.631 -0.839,55.101 -3.817,-0.106 -7.75,-0.347 -11.539,0.116 -0.01,0 -0.01,0.01 -0.019,0.01 0.154,-18.75 -1.186,-37.615 -1.735,-56.355 -0.01,-0.193 -0.125,-0.318 -0.26,-0.376 0.906,-1.06 2.246,-1.957 3.278,-2.902 1.195,-1.089 2.439,-2.15 3.547,-3.316 0.019,-0.019 0.029,-0.039 0.039,-0.058 2.477,2.506 4.945,5.051 7.461,7.509 0.047,0.049 0.096,0.078 0.154,0.088 z m -6.922,5.282 c 0.945,-0.376 1.774,-1.571 1.215,-2.584 -0.444,-0.81 -1.379,-0.81 -2.188,-0.588 -0.01,-0.029 -0.019,-0.058 -0.048,-0.058 -1.08,-0.231 -1.889,1.003 -1.629,1.976 0.317,1.139 1.59,1.688 2.65,1.254 z m 1.07,34.627 c 0.048,-0.887 -0.829,-1.668 -1.697,-1.379 -0.222,0.077 -0.202,0.453 0.067,0.434 0.058,-0.01 0.125,0 0.193,0.01 -0.116,0.058 -0.222,0.116 -0.337,0.193 -0.116,-0.174 -0.222,-0.357 -0.347,-0.53 0,-0.01 -0.01,-0.01 -0.019,-0.01 0.106,-0.038 0.212,-0.067 0.337,-0.067 0.125,-0.01 0.154,-0.183 0.029,-0.222 -0.819,-0.251 -1.716,0.472 -1.803,1.292 -0.106,0.954 0.733,1.764 1.648,1.841 0.917,0.086 1.881,-0.608 1.929,-1.562 z"
   id="path183" />
					<path
   style="fill:#1d1d1b"
   d="m 509.974,257.871 c 0.559,1.012 -0.27,2.208 -1.215,2.584 -1.06,0.434 -2.333,-0.116 -2.651,-1.253 -0.26,-0.974 0.549,-2.208 1.629,-1.976 0.029,0 0.039,0.029 0.048,0.058 0.81,-0.223 1.745,-0.223 2.189,0.587 z m -0.752,1.465 c 0.357,-0.472 0.472,-1.137 -0.068,-1.504 0.019,0.048 0.029,0.106 0,0.164 -0.174,0.289 -0.395,0.549 -0.627,0.8 0.232,0.183 0.473,0.347 0.695,0.54 z m -0.376,-1.571 c 0.029,-0.029 0.068,-0.029 0.096,-0.039 -0.511,-0.173 -1.195,0.096 -1.648,0.27 -0.116,0.048 -0.212,-0.019 -0.27,-0.106 -0.386,0.405 -0.54,0.964 -0.135,1.523 0.029,0.038 0.067,0.058 0.106,0.096 0.299,-0.28 0.598,-0.549 0.887,-0.839 -0.154,-0.183 -0.308,-0.366 -0.434,-0.54 -0.077,-0.116 0.096,-0.231 0.193,-0.145 0.164,0.154 0.328,0.309 0.492,0.453 0.231,-0.22 0.462,-0.451 0.713,-0.673 z m -0.077,2.005 c 0.068,-0.039 0.125,-0.096 0.193,-0.145 -0.251,-0.145 -0.482,-0.347 -0.704,-0.559 -0.299,0.27 -0.627,0.511 -0.954,0.723 0.433,0.26 1.002,0.251 1.465,-0.019 z"
   id="path184" />
					<path
   style="fill:#1d1d1b"
   d="m 508.133,293.702 c 0.868,-0.289 1.745,0.492 1.697,1.379 -0.048,0.954 -1.012,1.648 -1.928,1.562 -0.916,-0.077 -1.754,-0.887 -1.648,-1.841 0.087,-0.819 0.983,-1.542 1.803,-1.292 0.125,0.039 0.096,0.212 -0.029,0.222 -0.125,0 -0.231,0.029 -0.337,0.067 0.01,0 0.019,0 0.019,0.01 0.125,0.173 0.231,0.357 0.347,0.53 0.116,-0.077 0.222,-0.135 0.337,-0.193 -0.067,-0.01 -0.135,-0.019 -0.193,-0.01 -0.271,0.019 -0.29,-0.357 -0.068,-0.434 z m 1.041,1.543 c 0.096,-0.318 0.01,-0.607 -0.183,-0.81 -0.01,0.01 -0.01,0.019 -0.019,0.029 -0.202,0.106 -0.395,0.222 -0.588,0.337 0.202,0.26 0.434,0.492 0.607,0.762 0.077,-0.097 0.144,-0.203 0.183,-0.318 z m -1.379,0.732 c 0.289,0.067 0.607,0.01 0.877,-0.135 -0.26,-0.202 -0.492,-0.472 -0.704,-0.771 -0.251,0.183 -0.501,0.376 -0.752,0.598 0.145,0.135 0.338,0.25 0.579,0.308 z m -0.116,-1.369 c -0.116,-0.222 -0.231,-0.444 -0.318,-0.656 0,0 0,0 0,-0.01 -0.482,0.318 -0.617,0.945 -0.366,1.427 0.183,-0.269 0.415,-0.539 0.684,-0.761 z"
   id="path185" />
					<path
   style="fill:#f7be29"
   d="m 509.154,257.832 c 0.54,0.366 0.424,1.031 0.068,1.504 -0.222,-0.193 -0.463,-0.357 -0.694,-0.54 0.231,-0.251 0.453,-0.511 0.627,-0.8 0.028,-0.058 0.019,-0.116 -10e-4,-0.164 z"
   id="path186" />
					<path
   style="fill:#f7be29"
   d="m 508.99,294.435 c 0.193,0.202 0.28,0.492 0.183,0.81 -0.039,0.116 -0.106,0.222 -0.183,0.318 -0.173,-0.27 -0.405,-0.501 -0.607,-0.762 0.193,-0.116 0.386,-0.231 0.588,-0.337 0.01,-0.01 0.01,-0.02 0.019,-0.029 z"
   id="path187" />
					<path
   style="fill:#f7be29"
   d="m 508.942,257.726 c -0.029,0.01 -0.068,0.01 -0.096,0.039 -0.251,0.222 -0.482,0.453 -0.713,0.675 -0.164,-0.145 -0.328,-0.299 -0.492,-0.453 -0.096,-0.087 -0.27,0.029 -0.193,0.145 0.125,0.173 0.28,0.357 0.434,0.54 -0.289,0.289 -0.588,0.559 -0.887,0.839 -0.039,-0.039 -0.077,-0.058 -0.106,-0.096 -0.405,-0.559 -0.251,-1.118 0.135,-1.523 0.058,0.087 0.154,0.154 0.27,0.106 0.453,-0.175 1.137,-0.445 1.648,-0.272 z"
   id="path188" />
					<path
   style="fill:#f7be29"
   d="m 508.962,259.625 c -0.068,0.048 -0.125,0.106 -0.193,0.145 -0.463,0.27 -1.031,0.28 -1.465,0.019 0.328,-0.212 0.656,-0.453 0.954,-0.723 0.222,0.212 0.453,0.415 0.704,0.559 z"
   id="path189" />
					<path
   style="fill:#f7be29"
   d="m 508.672,295.842 c -0.27,0.145 -0.588,0.202 -0.877,0.135 -0.241,-0.058 -0.434,-0.174 -0.578,-0.308 0.251,-0.222 0.501,-0.415 0.752,-0.598 0.212,0.299 0.443,0.569 0.703,0.771 z"
   id="path190" />
					<path
   style="fill:#f7be29"
   d="m 507.361,293.953 c 0.087,0.212 0.202,0.434 0.318,0.656 -0.27,0.222 -0.501,0.492 -0.684,0.762 -0.251,-0.482 -0.116,-1.109 0.366,-1.427 z"
   id="path191" />
				</g><g
   id="g203"
   transform="matrix(0.59536866,0,0,0.59536866,-231.85085,-146.86066)"
   clip-path="url(#clipPath27)">
					<path
   style="fill:#1d1d1b"
   d="m 555.348,254.256 c 0.077,0.145 0.01,0.299 -0.106,0.386 -0.019,0.077 -0.087,0.145 -0.202,0.164 0,0.01 0,0.019 0,0.029 -1.754,18.306 -1.031,36.333 -0.665,54.648 0,0.077 -0.039,0.116 -0.087,0.145 -0.019,0.048 -0.058,0.106 -0.116,0.135 -0.684,0.424 -1.456,0.877 -2.217,1.147 -0.019,0.173 -0.135,0.318 -0.357,0.318 -3.837,-0.096 -7.75,0.125 -11.568,-0.231 -0.135,-0.01 -0.193,-0.096 -0.202,-0.183 -0.125,0.019 -0.26,-0.048 -0.28,-0.212 -1.542,-18.682 -1.658,-37.634 -2.121,-56.374 0,-0.087 0.029,-0.154 0.058,-0.212 -0.058,-0.048 -0.096,-0.116 -0.077,-0.222 h 0.01 c -0.019,-0.087 0.106,-0.318 0.174,-0.443 0.424,-0.771 1.494,-1.475 2.13,-2.072 1.494,-1.408 2.988,-2.873 4.598,-4.165 0.048,-0.048 0.106,-0.067 0.164,-0.077 0.019,-0.202 0.289,-0.357 0.492,-0.193 0.019,0.019 0.039,0.029 0.058,0.039 1.147,-0.173 2.342,-0.26 3.509,-0.183 0.212,0.01 0.289,0.183 0.26,0.337 1.311,0.617 2.371,1.986 3.306,3.027 1.157,1.271 2.448,2.659 3.239,4.192 z m -1.485,54.986 c 0.039,-0.029 0.087,-0.039 0.125,-0.039 -2.208,-17.872 -1.157,-36.429 0.424,-54.301 -0.521,0.077 -1.051,0.145 -1.571,0.183 0.096,0.029 0.183,0.116 0.174,0.27 -0.241,9.216 -1.436,18.364 -1.369,27.608 0.068,9.168 1.494,18.248 0.337,27.416 0.579,-0.443 1.263,-0.819 1.88,-1.137 z m -1.022,-54.639 c 0.578,-0.135 1.166,-0.251 1.754,-0.337 -1.06,-1.176 -1.957,-2.497 -3.017,-3.682 -0.945,-1.06 -2.304,-2.063 -3.017,-3.307 -0.01,0 -0.01,0.01 -0.019,0.01 -1.07,0.067 -2.159,-0.01 -3.229,-0.154 2.699,2.217 5.321,4.753 7.519,7.461 0,-0.001 0,0.009 0.009,0.009 z m -0.433,0.752 c 0.01,-0.077 0.039,-0.135 0.087,-0.183 -0.058,-0.01 -0.106,-0.039 -0.154,-0.087 -2.516,-2.458 -4.984,-5.003 -7.461,-7.509 -0.01,0.019 -0.019,0.038 -0.039,0.058 -1.109,1.166 -2.352,2.227 -3.547,3.316 -1.031,0.945 -2.371,1.841 -3.278,2.902 0.135,0.058 0.251,0.183 0.26,0.376 0.549,18.74 1.89,37.605 1.735,56.355 0.01,0 0.01,-0.01 0.019,-0.01 3.789,-0.463 7.721,-0.222 11.539,-0.116 0.26,-18.471 -1.417,-36.651 0.839,-55.102 z"
   id="path192" />
					<path
   style="fill:#f7be29"
   d="m 553.989,309.203 c -0.039,0 -0.087,0.01 -0.125,0.039 -0.617,0.318 -1.301,0.694 -1.88,1.137 1.157,-9.167 -0.27,-18.248 -0.337,-27.416 -0.068,-9.245 1.128,-18.393 1.369,-27.608 0.01,-0.154 -0.077,-0.241 -0.174,-0.27 0.521,-0.039 1.051,-0.106 1.571,-0.183 -1.581,17.872 -2.632,36.429 -0.424,54.301 z"
   id="path193" />
					<path
   style="fill:#f7be29"
   d="m 554.596,254.266 c -0.588,0.087 -1.176,0.202 -1.754,0.337 -0.01,0 -0.01,-0.01 -0.01,-0.01 -2.198,-2.709 -4.82,-5.244 -7.519,-7.461 1.07,0.145 2.159,0.222 3.229,0.154 0.01,0 0.01,-0.01 0.019,-0.01 0.713,1.244 2.072,2.246 3.017,3.307 1.061,1.186 1.957,2.506 3.018,3.683 z"
   id="path194" />
					<path
   style="fill:#fcd86f"
   d="m 552.494,255.172 c -0.048,0.048 -0.077,0.106 -0.087,0.183 -2.256,18.451 -0.578,36.631 -0.839,55.101 -3.817,-0.106 -7.75,-0.347 -11.539,0.116 -0.01,0 -0.01,0.01 -0.019,0.01 0.154,-18.75 -1.186,-37.615 -1.735,-56.355 -0.01,-0.193 -0.125,-0.318 -0.26,-0.376 0.906,-1.06 2.246,-1.957 3.278,-2.902 1.195,-1.089 2.439,-2.15 3.547,-3.316 0.019,-0.019 0.029,-0.039 0.039,-0.058 2.477,2.506 4.945,5.051 7.461,7.509 0.048,0.049 0.097,0.078 0.154,0.088 z m -6.921,5.282 c 0.945,-0.376 1.774,-1.571 1.215,-2.584 -0.443,-0.81 -1.379,-0.81 -2.188,-0.588 -0.01,-0.029 -0.019,-0.058 -0.048,-0.058 -1.08,-0.231 -1.889,1.003 -1.629,1.976 0.317,1.139 1.59,1.688 2.65,1.254 z m 1.07,34.627 c 0.048,-0.887 -0.829,-1.668 -1.697,-1.379 -0.222,0.077 -0.202,0.453 0.068,0.434 0.058,-0.01 0.125,0 0.193,0.01 -0.116,0.058 -0.222,0.116 -0.337,0.193 -0.116,-0.174 -0.222,-0.357 -0.347,-0.53 0,-0.01 -0.01,-0.01 -0.019,-0.01 0.106,-0.038 0.212,-0.067 0.337,-0.067 0.125,-0.01 0.154,-0.183 0.029,-0.222 -0.819,-0.251 -1.716,0.472 -1.803,1.292 -0.106,0.954 0.733,1.764 1.648,1.841 0.916,0.086 1.88,-0.608 1.928,-1.562 z"
   id="path195" />
					<path
   style="fill:#1d1d1b"
   d="m 546.788,257.871 c 0.559,1.012 -0.27,2.208 -1.215,2.584 -1.06,0.434 -2.333,-0.116 -2.651,-1.253 -0.26,-0.974 0.549,-2.208 1.629,-1.976 0.029,0 0.038,0.029 0.048,0.058 0.81,-0.223 1.745,-0.223 2.189,0.587 z m -0.752,1.465 c 0.357,-0.472 0.472,-1.137 -0.068,-1.504 0.019,0.048 0.029,0.106 0,0.164 -0.174,0.289 -0.395,0.549 -0.627,0.8 0.232,0.183 0.473,0.347 0.695,0.54 z m -0.376,-1.571 c 0.029,-0.029 0.067,-0.029 0.096,-0.039 -0.511,-0.173 -1.195,0.096 -1.648,0.27 -0.116,0.048 -0.212,-0.019 -0.27,-0.106 -0.386,0.405 -0.54,0.964 -0.135,1.523 0.029,0.038 0.068,0.058 0.106,0.096 0.299,-0.28 0.598,-0.549 0.887,-0.839 -0.154,-0.183 -0.309,-0.366 -0.434,-0.54 -0.077,-0.116 0.096,-0.231 0.193,-0.145 0.164,0.154 0.328,0.309 0.492,0.453 0.231,-0.22 0.462,-0.451 0.713,-0.673 z m -0.077,2.005 c 0.067,-0.039 0.125,-0.096 0.193,-0.145 -0.251,-0.145 -0.482,-0.347 -0.704,-0.559 -0.299,0.27 -0.627,0.511 -0.954,0.723 0.433,0.26 1.002,0.251 1.465,-0.019 z"
   id="path196" />
					<path
   style="fill:#1d1d1b"
   d="m 544.946,293.702 c 0.868,-0.289 1.745,0.492 1.697,1.379 -0.048,0.954 -1.012,1.648 -1.928,1.562 -0.916,-0.077 -1.755,-0.887 -1.648,-1.841 0.087,-0.819 0.983,-1.542 1.803,-1.292 0.125,0.039 0.096,0.212 -0.029,0.222 -0.125,0 -0.231,0.029 -0.337,0.067 0.01,0 0.019,0 0.019,0.01 0.125,0.173 0.231,0.357 0.347,0.53 0.116,-0.077 0.222,-0.135 0.337,-0.193 -0.068,-0.01 -0.135,-0.019 -0.193,-0.01 -0.27,0.019 -0.289,-0.357 -0.068,-0.434 z m 1.041,1.543 c 0.096,-0.318 0.01,-0.607 -0.183,-0.81 -0.01,0.01 -0.01,0.019 -0.019,0.029 -0.202,0.106 -0.395,0.222 -0.588,0.337 0.202,0.26 0.434,0.492 0.607,0.762 0.077,-0.097 0.145,-0.203 0.183,-0.318 z m -1.378,0.732 c 0.289,0.067 0.607,0.01 0.877,-0.135 -0.26,-0.202 -0.492,-0.472 -0.704,-0.771 -0.251,0.183 -0.501,0.376 -0.752,0.598 0.145,0.135 0.338,0.25 0.579,0.308 z m -0.116,-1.369 c -0.116,-0.222 -0.231,-0.444 -0.318,-0.656 0,0 0,0 0,-0.01 -0.482,0.318 -0.617,0.945 -0.366,1.427 0.183,-0.269 0.414,-0.539 0.684,-0.761 z"
   id="path197" />
					<path
   style="fill:#f7be29"
   d="m 545.968,257.832 c 0.54,0.366 0.424,1.031 0.068,1.504 -0.222,-0.193 -0.463,-0.357 -0.694,-0.54 0.231,-0.251 0.453,-0.511 0.627,-0.8 0.028,-0.058 0.018,-0.116 -0.001,-0.164 z"
   id="path198" />
					<path
   style="fill:#f7be29"
   d="m 545.804,294.435 c 0.193,0.202 0.279,0.492 0.183,0.81 -0.039,0.116 -0.106,0.222 -0.183,0.318 -0.174,-0.27 -0.405,-0.501 -0.607,-0.762 0.193,-0.116 0.386,-0.231 0.588,-0.337 0.01,-0.01 0.01,-0.02 0.019,-0.029 z"
   id="path199" />
					<path
   style="fill:#f7be29"
   d="m 545.756,257.726 c -0.029,0.01 -0.068,0.01 -0.096,0.039 -0.251,0.222 -0.482,0.453 -0.713,0.675 -0.164,-0.145 -0.328,-0.299 -0.492,-0.453 -0.096,-0.087 -0.27,0.029 -0.193,0.145 0.125,0.173 0.279,0.357 0.434,0.54 -0.289,0.289 -0.588,0.559 -0.887,0.839 -0.039,-0.039 -0.077,-0.058 -0.106,-0.096 -0.405,-0.559 -0.251,-1.118 0.135,-1.523 0.058,0.087 0.154,0.154 0.27,0.106 0.453,-0.175 1.137,-0.445 1.648,-0.272 z"
   id="path200" />
					<path
   style="fill:#f7be29"
   d="m 545.775,259.625 c -0.067,0.048 -0.125,0.106 -0.193,0.145 -0.463,0.27 -1.031,0.28 -1.465,0.019 0.328,-0.212 0.656,-0.453 0.954,-0.723 0.222,0.212 0.454,0.415 0.704,0.559 z"
   id="path201" />
					<path
   style="fill:#f7be29"
   d="m 545.486,295.842 c -0.27,0.145 -0.588,0.202 -0.877,0.135 -0.241,-0.058 -0.434,-0.174 -0.578,-0.308 0.251,-0.222 0.501,-0.415 0.752,-0.598 0.212,0.299 0.443,0.569 0.703,0.771 z"
   id="path202" />
					<path
   style="fill:#f7be29"
   d="m 544.175,293.953 c 0.087,0.212 0.203,0.434 0.318,0.656 -0.27,0.222 -0.501,0.492 -0.684,0.762 -0.251,-0.482 -0.116,-1.109 0.366,-1.427 z"
   id="path203" />
				</g><g
   id="g215"
   transform="matrix(0.59536866,0,0,0.59536866,-231.85085,-146.86066)"
   clip-path="url(#clipPath26)">
					<path
   style="fill:#1d1d1b"
   d="m 589.067,254.256 c 0.077,0.145 0.01,0.299 -0.106,0.386 -0.019,0.077 -0.087,0.145 -0.203,0.164 0,0.01 0,0.019 0,0.029 -1.754,18.306 -1.031,36.333 -0.665,54.648 0,0.077 -0.039,0.116 -0.087,0.145 -0.019,0.048 -0.058,0.106 -0.116,0.135 -0.684,0.424 -1.456,0.877 -2.217,1.147 -0.019,0.173 -0.135,0.318 -0.357,0.318 -3.837,-0.096 -7.75,0.125 -11.568,-0.231 -0.135,-0.01 -0.193,-0.096 -0.203,-0.183 -0.125,0.019 -0.26,-0.048 -0.28,-0.212 -1.542,-18.682 -1.658,-37.634 -2.121,-56.374 0,-0.087 0.029,-0.154 0.058,-0.212 -0.058,-0.048 -0.096,-0.116 -0.077,-0.222 h 0.01 c -0.019,-0.087 0.106,-0.318 0.174,-0.443 0.424,-0.771 1.494,-1.475 2.13,-2.072 1.494,-1.408 2.988,-2.873 4.598,-4.165 0.048,-0.048 0.106,-0.067 0.164,-0.077 0.019,-0.202 0.289,-0.357 0.492,-0.193 0.019,0.019 0.039,0.029 0.058,0.039 1.147,-0.173 2.342,-0.26 3.509,-0.183 0.212,0.01 0.289,0.183 0.26,0.337 1.311,0.617 2.371,1.986 3.307,3.027 1.158,1.271 2.449,2.659 3.24,4.192 z m -1.485,54.986 c 0.038,-0.029 0.087,-0.039 0.125,-0.039 -2.208,-17.872 -1.157,-36.429 0.424,-54.301 -0.521,0.077 -1.051,0.145 -1.571,0.183 0.096,0.029 0.183,0.116 0.174,0.27 -0.241,9.216 -1.436,18.364 -1.369,27.608 0.068,9.168 1.494,18.248 0.337,27.416 0.579,-0.443 1.263,-0.819 1.88,-1.137 z m -1.022,-54.639 c 0.578,-0.135 1.167,-0.251 1.755,-0.337 -1.06,-1.176 -1.957,-2.497 -3.017,-3.682 -0.945,-1.06 -2.304,-2.063 -3.017,-3.307 -0.01,0 -0.01,0.01 -0.019,0.01 -1.07,0.067 -2.159,-0.01 -3.229,-0.154 2.699,2.217 5.321,4.753 7.519,7.461 -10e-4,-0.001 -10e-4,0.009 0.008,0.009 z m -0.433,0.752 c 0.01,-0.077 0.039,-0.135 0.087,-0.183 -0.058,-0.01 -0.106,-0.039 -0.154,-0.087 -2.516,-2.458 -4.984,-5.003 -7.461,-7.509 -0.01,0.019 -0.019,0.038 -0.039,0.058 -1.109,1.166 -2.352,2.227 -3.547,3.316 -1.032,0.945 -2.371,1.841 -3.278,2.902 0.135,0.058 0.251,0.183 0.26,0.376 0.549,18.74 1.889,37.605 1.735,56.355 0.01,0 0.01,-0.01 0.019,-0.01 3.788,-0.463 7.721,-0.222 11.539,-0.116 0.26,-18.471 -1.417,-36.651 0.839,-55.102 z"
   id="path204" />
					<path
   style="fill:#f7be29"
   d="m 587.708,309.203 c -0.039,0 -0.087,0.01 -0.125,0.039 -0.617,0.318 -1.301,0.694 -1.88,1.137 1.157,-9.167 -0.27,-18.248 -0.337,-27.416 -0.068,-9.245 1.128,-18.393 1.369,-27.608 0.01,-0.154 -0.077,-0.241 -0.174,-0.27 0.521,-0.039 1.051,-0.106 1.571,-0.183 -1.581,17.872 -2.632,36.429 -0.424,54.301 z"
   id="path205" />
					<path
   style="fill:#f7be29"
   d="m 588.315,254.266 c -0.588,0.087 -1.176,0.202 -1.755,0.337 -0.01,0 -0.01,-0.01 -0.01,-0.01 -2.198,-2.709 -4.82,-5.244 -7.519,-7.461 1.07,0.145 2.159,0.222 3.229,0.154 0.01,0 0.01,-0.01 0.019,-0.01 0.713,1.244 2.073,2.246 3.017,3.307 1.062,1.186 1.959,2.506 3.019,3.683 z"
   id="path206" />
					<path
   style="fill:#fcd86f"
   d="m 586.214,255.172 c -0.048,0.048 -0.077,0.106 -0.087,0.183 -2.256,18.451 -0.578,36.631 -0.839,55.101 -3.817,-0.106 -7.75,-0.347 -11.539,0.116 -0.01,0 -0.01,0.01 -0.019,0.01 0.154,-18.75 -1.186,-37.615 -1.735,-56.355 -0.01,-0.193 -0.125,-0.318 -0.26,-0.376 0.906,-1.06 2.246,-1.957 3.278,-2.902 1.195,-1.089 2.439,-2.15 3.547,-3.316 0.019,-0.019 0.029,-0.039 0.039,-0.058 2.477,2.506 4.945,5.051 7.461,7.509 0.047,0.049 0.096,0.078 0.154,0.088 z m -6.922,5.282 c 0.945,-0.376 1.774,-1.571 1.215,-2.584 -0.443,-0.81 -1.378,-0.81 -2.188,-0.588 -0.01,-0.029 -0.019,-0.058 -0.048,-0.058 -1.08,-0.231 -1.889,1.003 -1.629,1.976 0.317,1.139 1.59,1.688 2.65,1.254 z m 1.07,34.627 c 0.048,-0.887 -0.829,-1.668 -1.697,-1.379 -0.222,0.077 -0.202,0.453 0.068,0.434 0.058,-0.01 0.125,0 0.193,0.01 -0.116,0.058 -0.222,0.116 -0.337,0.193 -0.116,-0.174 -0.222,-0.357 -0.347,-0.53 0,-0.01 -0.01,-0.01 -0.019,-0.01 0.106,-0.038 0.212,-0.067 0.337,-0.067 0.125,-0.01 0.154,-0.183 0.029,-0.222 -0.819,-0.251 -1.716,0.472 -1.803,1.292 -0.106,0.954 0.733,1.764 1.648,1.841 0.916,0.086 1.88,-0.608 1.928,-1.562 z"
   id="path207" />
					<path
   style="fill:#1d1d1b"
   d="m 580.507,257.871 c 0.559,1.012 -0.27,2.208 -1.215,2.584 -1.06,0.434 -2.333,-0.116 -2.651,-1.253 -0.26,-0.974 0.549,-2.208 1.629,-1.976 0.029,0 0.039,0.029 0.048,0.058 0.81,-0.223 1.745,-0.223 2.189,0.587 z m -0.752,1.465 c 0.357,-0.472 0.472,-1.137 -0.068,-1.504 0.019,0.048 0.029,0.106 0,0.164 -0.173,0.289 -0.395,0.549 -0.627,0.8 0.232,0.183 0.473,0.347 0.695,0.54 z m -0.376,-1.571 c 0.029,-0.029 0.068,-0.029 0.096,-0.039 -0.511,-0.173 -1.195,0.096 -1.648,0.27 -0.116,0.048 -0.212,-0.019 -0.27,-0.106 -0.386,0.405 -0.54,0.964 -0.135,1.523 0.029,0.038 0.067,0.058 0.106,0.096 0.299,-0.28 0.598,-0.549 0.887,-0.839 -0.154,-0.183 -0.308,-0.366 -0.434,-0.54 -0.077,-0.116 0.096,-0.231 0.193,-0.145 0.164,0.154 0.328,0.309 0.492,0.453 0.231,-0.22 0.462,-0.451 0.713,-0.673 z m -0.077,2.005 c 0.068,-0.039 0.125,-0.096 0.193,-0.145 -0.251,-0.145 -0.482,-0.347 -0.704,-0.559 -0.299,0.27 -0.627,0.511 -0.954,0.723 0.433,0.26 1.002,0.251 1.465,-0.019 z"
   id="path208" />
					<path
   style="fill:#1d1d1b"
   d="m 578.665,293.702 c 0.868,-0.289 1.745,0.492 1.697,1.379 -0.048,0.954 -1.012,1.648 -1.928,1.562 -0.916,-0.077 -1.754,-0.887 -1.648,-1.841 0.087,-0.819 0.983,-1.542 1.803,-1.292 0.125,0.039 0.096,0.212 -0.029,0.222 -0.125,0 -0.231,0.029 -0.337,0.067 0.01,0 0.019,0 0.019,0.01 0.125,0.173 0.231,0.357 0.347,0.53 0.116,-0.077 0.222,-0.135 0.337,-0.193 -0.068,-0.01 -0.135,-0.019 -0.193,-0.01 -0.27,0.019 -0.289,-0.357 -0.068,-0.434 z m 1.042,1.543 c 0.096,-0.318 0.01,-0.607 -0.183,-0.81 -0.01,0.01 -0.01,0.019 -0.019,0.029 -0.202,0.106 -0.395,0.222 -0.588,0.337 0.203,0.26 0.434,0.492 0.607,0.762 0.077,-0.097 0.144,-0.203 0.183,-0.318 z m -1.379,0.732 c 0.289,0.067 0.607,0.01 0.877,-0.135 -0.26,-0.202 -0.492,-0.472 -0.704,-0.771 -0.251,0.183 -0.501,0.376 -0.752,0.598 0.145,0.135 0.338,0.25 0.579,0.308 z m -0.116,-1.369 c -0.116,-0.222 -0.231,-0.444 -0.318,-0.656 0,0 0,0 0,-0.01 -0.482,0.318 -0.617,0.945 -0.366,1.427 0.183,-0.269 0.415,-0.539 0.684,-0.761 z"
   id="path209" />
					<path
   style="fill:#f7be29"
   d="m 579.687,257.832 c 0.54,0.366 0.424,1.031 0.068,1.504 -0.222,-0.193 -0.463,-0.357 -0.694,-0.54 0.231,-0.251 0.453,-0.511 0.627,-0.8 0.028,-0.058 0.019,-0.116 -10e-4,-0.164 z"
   id="path210" />
					<path
   style="fill:#f7be29"
   d="m 579.523,294.435 c 0.193,0.202 0.28,0.492 0.183,0.81 -0.039,0.116 -0.106,0.222 -0.183,0.318 -0.174,-0.27 -0.405,-0.501 -0.607,-0.762 0.193,-0.116 0.386,-0.231 0.588,-0.337 0.01,-0.01 0.01,-0.02 0.019,-0.029 z"
   id="path211" />
					<path
   style="fill:#f7be29"
   d="m 579.475,257.726 c -0.029,0.01 -0.067,0.01 -0.096,0.039 -0.251,0.222 -0.482,0.453 -0.713,0.675 -0.164,-0.145 -0.328,-0.299 -0.492,-0.453 -0.096,-0.087 -0.27,0.029 -0.193,0.145 0.125,0.173 0.279,0.357 0.434,0.54 -0.289,0.289 -0.588,0.559 -0.887,0.839 -0.039,-0.039 -0.077,-0.058 -0.106,-0.096 -0.405,-0.559 -0.251,-1.118 0.135,-1.523 0.058,0.087 0.154,0.154 0.27,0.106 0.453,-0.175 1.137,-0.445 1.648,-0.272 z"
   id="path212" />
					<path
   style="fill:#f7be29"
   d="m 579.495,259.625 c -0.068,0.048 -0.125,0.106 -0.193,0.145 -0.463,0.27 -1.031,0.28 -1.465,0.019 0.328,-0.212 0.656,-0.453 0.954,-0.723 0.221,0.212 0.453,0.415 0.704,0.559 z"
   id="path213" />
					<path
   style="fill:#f7be29"
   d="m 579.205,295.842 c -0.27,0.145 -0.588,0.202 -0.877,0.135 -0.241,-0.058 -0.434,-0.174 -0.578,-0.308 0.251,-0.222 0.501,-0.415 0.752,-0.598 0.212,0.299 0.443,0.569 0.703,0.771 z"
   id="path214" />
					<path
   style="fill:#f7be29"
   d="m 577.894,293.953 c 0.087,0.212 0.202,0.434 0.318,0.656 -0.27,0.222 -0.501,0.492 -0.684,0.762 -0.251,-0.482 -0.116,-1.109 0.366,-1.427 z"
   id="path215" />
				</g><g
   id="g219"
   transform="matrix(0.36184803,0,0,0.59536866,-95.72981,-146.86066)"
   clip-path="url(#clipPath25)">
					<path
   style="fill:#1d1d1b"
   d="m 584.347,271.253 c -0.125,0.039 -0.27,-0.029 -0.27,-0.202 0,-1.6 0.096,-3.2 0.193,-4.791 0.096,-1.571 0.53,-3.586 -0.048,-5.109 -0.067,-0.193 0.039,-0.328 0.193,-0.376 0,-0.01 0.01,-0.019 0.019,-0.029 -0.038,-0.058 -0.038,-0.135 0.019,-0.183 0.655,-0.675 1.523,-1.176 2.294,-1.706 0.019,-0.01 0.038,-0.01 0.067,-0.019 0,-0.145 0.087,-0.289 0.28,-0.299 28.09,-1.118 56.335,-0.656 84.445,-0.318 28.129,0.347 56.297,0.945 84.407,2.294 0.029,0 0.039,0.01 0.058,0.01 0.029,-0.01 0.058,0 0.087,0.019 0.308,0.135 0.289,0.646 -0.068,0.704 -0.299,1.475 -0.839,2.882 -0.925,4.415 -0.087,1.62 0.231,3.162 0.771,4.675 0.019,0.058 0.01,0.106 -0.01,0.154 0.26,-0.154 0.53,0.251 0.318,0.472 -0.386,0.424 -0.858,0.79 -1.301,1.166 -0.405,0.337 -0.81,0.704 -1.253,1.003 -0.048,0.039 -0.096,0.029 -0.145,0.01 -0.029,0.01 -0.058,0.029 -0.106,0.029 -28.139,-0.231 -56.278,-0.453 -84.426,-0.675 -28.12,-0.222 -56.316,0.106 -84.426,-0.781 -0.27,-0.009 -0.328,-0.328 -0.173,-0.463 z m 0.009,0 c 0.029,-0.01 0.058,-0.029 0.077,-0.048 -0.029,0 -0.057,0.019 -0.077,0.048 z m 0.087,-0.057 c 0.019,-0.01 0.048,-0.01 0.077,-0.01 28.119,-0.453 56.306,0.318 84.426,0.53 28.148,0.222 56.287,0.434 84.426,0.646 0.096,0 0.173,0.039 0.231,0.077 -0.472,-2.988 -0.376,-6.401 -0.202,-9.438 0,0 -0.01,0.01 -0.019,0.01 -56.162,-1.465 -112.285,-1.321 -168.447,-1.822 0.443,1.379 0.145,2.911 0.048,4.338 -0.125,1.841 -0.222,3.692 -0.463,5.524 -0.01,0.058 -0.038,0.116 -0.077,0.145 z m 171.242,-0.569 c -0.106,0.019 -0.241,-0.019 -0.299,-0.154 -1.272,-3.123 -0.771,-5.861 0.203,-8.849 -0.231,0.164 -0.482,0.309 -0.713,0.453 -0.318,0.193 -0.646,0.376 -0.974,0.549 0.01,0.029 0.019,0.039 0.019,0.068 0.26,3.046 0.443,6.497 0.058,9.553 0.212,-0.212 0.434,-0.424 0.655,-0.636 0.338,-0.338 0.685,-0.685 1.051,-0.984 z m -1.021,-8.917 c 0.222,-0.154 0.443,-0.328 0.665,-0.472 -27.927,-0.974 -55.844,-1.899 -83.79,-2.236 -28.129,-0.337 -56.248,0.289 -84.378,0.116 0,0.087 -0.029,0.183 -0.125,0.241 -0.627,0.405 -1.263,0.868 -1.938,1.224 56.046,-1.215 112.256,0.058 168.283,1.552 0.154,0 0.251,0.077 0.318,0.164 0.328,-0.194 0.646,-0.387 0.965,-0.589 z"
   id="path216" />
					<path
   style="fill:#f7be29"
   d="m 755.329,261.238 c -0.222,0.145 -0.443,0.318 -0.665,0.472 -0.318,0.202 -0.636,0.395 -0.964,0.588 -0.067,-0.087 -0.164,-0.164 -0.318,-0.164 -56.027,-1.494 -112.237,-2.767 -168.283,-1.552 0.675,-0.357 1.311,-0.819 1.938,-1.224 0.096,-0.058 0.125,-0.154 0.125,-0.241 28.129,0.173 56.248,-0.453 84.378,-0.116 27.945,0.338 55.862,1.263 83.789,2.237 z"
   id="path217" />
					<path
   style="fill:#fcd86f"
   d="m 753.603,272.439 c -0.058,-0.039 -0.135,-0.077 -0.231,-0.077 -28.139,-0.212 -56.278,-0.424 -84.426,-0.646 -28.12,-0.212 -56.306,-0.983 -84.426,-0.53 -0.029,0 -0.058,0 -0.077,0.01 0.039,-0.029 0.067,-0.087 0.077,-0.145 0.241,-1.832 0.337,-3.682 0.463,-5.524 0.096,-1.427 0.395,-2.96 -0.048,-4.338 56.162,0.501 112.285,0.357 168.447,1.822 0.01,0 0.019,-0.01 0.019,-0.01 -0.174,3.037 -0.27,6.45 0.202,9.438 z"
   id="path218" />
					<path
   style="fill:#1d1d1b"
   d="m 584.433,271.205 c -0.019,0.019 -0.048,0.039 -0.077,0.048 0.02,-0.029 0.048,-0.048 0.077,-0.048 z"
   id="path219" />
				</g><g
   id="g223"
   transform="matrix(0.36184803,0,0,0.59536866,-95.72981,-146.86066)"
   clip-path="url(#clipPath24)">
					<path
   style="fill:#1d1d1b"
   d="m 583.178,300.064 c -0.125,0.039 -0.27,-0.029 -0.27,-0.202 0,-1.6 0.096,-3.201 0.193,-4.791 0.096,-1.571 0.53,-3.586 -0.048,-5.109 -0.067,-0.193 0.039,-0.328 0.193,-0.376 0,-0.01 0.01,-0.019 0.019,-0.029 -0.039,-0.058 -0.039,-0.135 0.019,-0.183 0.656,-0.675 1.523,-1.176 2.294,-1.706 0.019,-0.01 0.039,-0.01 0.068,-0.019 0,-0.145 0.087,-0.289 0.28,-0.299 28.09,-1.118 56.335,-0.655 84.445,-0.318 28.129,0.347 56.297,0.945 84.407,2.294 0.029,0 0.039,0.01 0.058,0.01 0.029,-0.01 0.058,0 0.087,0.019 0.308,0.135 0.289,0.646 -0.068,0.704 -0.299,1.475 -0.839,2.882 -0.925,4.415 -0.087,1.62 0.231,3.162 0.771,4.675 0.019,0.058 0.01,0.106 -0.01,0.154 0.26,-0.154 0.53,0.251 0.318,0.472 -0.386,0.424 -0.858,0.79 -1.301,1.166 -0.405,0.337 -0.81,0.704 -1.253,1.003 -0.048,0.039 -0.096,0.029 -0.145,0.01 -0.029,0.01 -0.058,0.029 -0.106,0.029 -28.139,-0.231 -56.277,-0.453 -84.426,-0.675 -28.119,-0.222 -56.316,0.106 -84.426,-0.781 -0.271,-0.01 -0.328,-0.328 -0.174,-0.463 z m 0.01,0 c 0.029,-0.01 0.058,-0.029 0.077,-0.048 -0.029,0 -0.058,0.019 -0.077,0.048 z m 0.086,-0.058 c 0.019,-0.01 0.048,-0.01 0.077,-0.01 28.12,-0.453 56.306,0.318 84.426,0.53 28.148,0.222 56.287,0.434 84.426,0.646 0.096,0 0.174,0.038 0.231,0.077 -0.472,-2.988 -0.376,-6.401 -0.203,-9.437 0,0 -0.01,0.01 -0.019,0.01 -56.162,-1.465 -112.285,-1.321 -168.447,-1.822 0.443,1.379 0.145,2.911 0.048,4.338 -0.125,1.841 -0.222,3.692 -0.463,5.524 -0.008,0.057 -0.037,0.115 -0.076,0.144 z m 171.243,-0.569 c -0.106,0.019 -0.241,-0.019 -0.299,-0.154 -1.272,-3.123 -0.771,-5.861 0.202,-8.849 -0.231,0.164 -0.482,0.309 -0.713,0.453 -0.318,0.193 -0.646,0.376 -0.974,0.549 0.01,0.029 0.019,0.039 0.019,0.068 0.26,3.046 0.443,6.497 0.058,9.553 0.212,-0.212 0.434,-0.424 0.656,-0.636 0.337,-0.338 0.684,-0.685 1.051,-0.984 z m -1.022,-8.916 c 0.222,-0.154 0.443,-0.328 0.665,-0.472 -27.927,-0.974 -55.844,-1.899 -83.79,-2.236 -28.129,-0.337 -56.249,0.289 -84.378,0.116 0,0.087 -0.029,0.183 -0.125,0.241 -0.627,0.405 -1.263,0.868 -1.938,1.224 56.046,-1.215 112.256,0.058 168.283,1.552 0.154,0 0.251,0.077 0.318,0.164 0.329,-0.194 0.647,-0.387 0.965,-0.589 z"
   id="path220" />
					<path
   style="fill:#f7be29"
   d="m 754.16,290.048 c -0.222,0.145 -0.443,0.318 -0.665,0.472 -0.318,0.202 -0.636,0.395 -0.964,0.588 -0.068,-0.087 -0.164,-0.164 -0.318,-0.164 -56.027,-1.494 -112.237,-2.767 -168.283,-1.552 0.675,-0.357 1.311,-0.819 1.938,-1.224 0.096,-0.058 0.125,-0.154 0.125,-0.241 28.129,0.173 56.249,-0.453 84.378,-0.116 27.945,0.338 55.862,1.264 83.789,2.237 z"
   id="path221" />
					<path
   style="fill:#fcd86f"
   d="m 752.434,301.25 c -0.058,-0.039 -0.135,-0.077 -0.231,-0.077 -28.139,-0.212 -56.277,-0.424 -84.426,-0.646 -28.119,-0.212 -56.306,-0.983 -84.426,-0.53 -0.029,0 -0.058,0 -0.077,0.01 0.039,-0.029 0.068,-0.087 0.077,-0.145 0.241,-1.832 0.337,-3.682 0.463,-5.524 0.096,-1.427 0.395,-2.959 -0.048,-4.338 56.162,0.501 112.285,0.357 168.447,1.822 0.01,0 0.019,-0.01 0.019,-0.01 -0.174,3.037 -0.27,6.449 0.202,9.438 z"
   id="path222" />
					<path
   style="fill:#1d1d1b"
   d="m 583.265,300.016 c -0.019,0.019 -0.048,0.039 -0.077,0.048 0.019,-0.029 0.048,-0.048 0.077,-0.048 z"
   id="path223" />
				</g><g
   id="g235"
   transform="matrix(0.59536866,0,0,0.59536866,-231.85085,-146.86066)"
   clip-path="url(#clipPath23)">
					<path
   style="fill:#1d1d1b"
   d="m 627.798,254.256 c 0.077,0.145 0.01,0.299 -0.106,0.386 -0.019,0.077 -0.087,0.145 -0.202,0.164 0,0.01 0,0.019 0,0.029 -1.754,18.306 -1.031,36.333 -0.665,54.648 0,0.077 -0.039,0.116 -0.087,0.145 -0.019,0.048 -0.058,0.106 -0.116,0.135 -0.684,0.424 -1.456,0.877 -2.217,1.147 -0.019,0.173 -0.135,0.318 -0.357,0.318 -3.837,-0.096 -7.75,0.125 -11.568,-0.231 -0.135,-0.01 -0.193,-0.096 -0.203,-0.183 -0.125,0.019 -0.26,-0.048 -0.279,-0.212 -1.542,-18.682 -1.658,-37.634 -2.121,-56.374 0,-0.087 0.029,-0.154 0.058,-0.212 -0.058,-0.048 -0.096,-0.116 -0.077,-0.222 h 0.01 c -0.019,-0.087 0.106,-0.318 0.174,-0.443 0.424,-0.771 1.494,-1.475 2.13,-2.072 1.494,-1.408 2.988,-2.873 4.598,-4.165 0.048,-0.048 0.106,-0.067 0.164,-0.077 0.019,-0.202 0.289,-0.357 0.492,-0.193 0.019,0.019 0.039,0.029 0.058,0.039 1.147,-0.173 2.343,-0.26 3.509,-0.183 0.212,0.01 0.289,0.183 0.26,0.337 1.311,0.617 2.371,1.986 3.307,3.027 1.156,1.271 2.448,2.659 3.238,4.192 z m -1.485,54.986 c 0.039,-0.029 0.087,-0.039 0.125,-0.039 -2.208,-17.872 -1.157,-36.429 0.424,-54.301 -0.52,0.077 -1.051,0.145 -1.571,0.183 0.096,0.029 0.183,0.116 0.174,0.27 -0.241,9.216 -1.436,18.364 -1.369,27.608 0.068,9.168 1.494,18.248 0.337,27.416 0.579,-0.443 1.263,-0.819 1.88,-1.137 z m -1.021,-54.639 c 0.578,-0.135 1.166,-0.251 1.755,-0.337 -1.06,-1.176 -1.957,-2.497 -3.017,-3.682 -0.945,-1.06 -2.304,-2.063 -3.017,-3.307 -0.01,0 -0.01,0.01 -0.019,0.01 -1.07,0.067 -2.159,-0.01 -3.229,-0.154 2.699,2.217 5.321,4.753 7.519,7.461 -0.002,-0.001 -0.002,0.009 0.008,0.009 z m -0.434,0.752 c 0.01,-0.077 0.039,-0.135 0.087,-0.183 -0.058,-0.01 -0.106,-0.039 -0.154,-0.087 -2.516,-2.458 -4.984,-5.003 -7.461,-7.509 -0.01,0.019 -0.019,0.038 -0.039,0.058 -1.108,1.166 -2.352,2.227 -3.547,3.316 -1.032,0.945 -2.371,1.841 -3.278,2.902 0.135,0.058 0.251,0.183 0.26,0.376 0.549,18.74 1.889,37.605 1.735,56.355 0.01,0 0.01,-0.01 0.019,-0.01 3.788,-0.463 7.721,-0.222 11.539,-0.116 0.26,-18.471 -1.417,-36.651 0.839,-55.102 z"
   id="path224" />
					<path
   style="fill:#f7be29"
   d="m 626.439,309.203 c -0.039,0 -0.087,0.01 -0.125,0.039 -0.617,0.318 -1.301,0.694 -1.88,1.137 1.157,-9.167 -0.27,-18.248 -0.337,-27.416 -0.068,-9.245 1.128,-18.393 1.369,-27.608 0.01,-0.154 -0.077,-0.241 -0.174,-0.27 0.521,-0.039 1.051,-0.106 1.571,-0.183 -1.581,17.872 -2.632,36.429 -0.424,54.301 z"
   id="path225" />
					<path
   style="fill:#f7be29"
   d="m 627.046,254.266 c -0.588,0.087 -1.176,0.202 -1.755,0.337 -0.01,0 -0.01,-0.01 -0.01,-0.01 -2.198,-2.709 -4.82,-5.244 -7.519,-7.461 1.07,0.145 2.159,0.222 3.229,0.154 0.01,0 0.01,-0.01 0.019,-0.01 0.713,1.244 2.073,2.246 3.017,3.307 1.062,1.186 1.959,2.506 3.019,3.683 z"
   id="path226" />
					<path
   style="fill:#fcd86f"
   d="m 624.945,255.172 c -0.048,0.048 -0.077,0.106 -0.087,0.183 -2.256,18.451 -0.578,36.631 -0.839,55.101 -3.817,-0.106 -7.75,-0.347 -11.539,0.116 -0.01,0 -0.01,0.01 -0.019,0.01 0.154,-18.75 -1.186,-37.615 -1.735,-56.355 -0.01,-0.193 -0.125,-0.318 -0.26,-0.376 0.906,-1.06 2.246,-1.957 3.278,-2.902 1.195,-1.089 2.439,-2.15 3.547,-3.316 0.019,-0.019 0.029,-0.039 0.039,-0.058 2.477,2.506 4.945,5.051 7.461,7.509 0.048,0.049 0.096,0.078 0.154,0.088 z m -6.922,5.282 c 0.945,-0.376 1.774,-1.571 1.215,-2.584 -0.443,-0.81 -1.379,-0.81 -2.188,-0.588 -0.01,-0.029 -0.019,-0.058 -0.048,-0.058 -1.08,-0.231 -1.889,1.003 -1.629,1.976 0.317,1.139 1.59,1.688 2.65,1.254 z m 1.07,34.627 c 0.048,-0.887 -0.829,-1.668 -1.697,-1.379 -0.222,0.077 -0.203,0.453 0.067,0.434 0.058,-0.01 0.125,0 0.193,0.01 -0.116,0.058 -0.222,0.116 -0.337,0.193 -0.116,-0.174 -0.222,-0.357 -0.347,-0.53 0,-0.01 -0.01,-0.01 -0.019,-0.01 0.106,-0.038 0.212,-0.067 0.337,-0.067 0.125,-0.01 0.154,-0.183 0.029,-0.222 -0.819,-0.251 -1.716,0.472 -1.803,1.292 -0.106,0.954 0.733,1.764 1.648,1.841 0.917,0.086 1.881,-0.608 1.929,-1.562 z"
   id="path227" />
					<path
   style="fill:#1d1d1b"
   d="m 619.238,257.871 c 0.559,1.012 -0.27,2.208 -1.215,2.584 -1.06,0.434 -2.333,-0.116 -2.651,-1.253 -0.26,-0.974 0.549,-2.208 1.629,-1.976 0.029,0 0.039,0.029 0.048,0.058 0.81,-0.223 1.745,-0.223 2.189,0.587 z m -0.752,1.465 c 0.357,-0.472 0.472,-1.137 -0.068,-1.504 0.019,0.048 0.029,0.106 0,0.164 -0.174,0.289 -0.395,0.549 -0.627,0.8 0.232,0.183 0.473,0.347 0.695,0.54 z m -0.376,-1.571 c 0.029,-0.029 0.068,-0.029 0.096,-0.039 -0.511,-0.173 -1.195,0.096 -1.648,0.27 -0.116,0.048 -0.212,-0.019 -0.27,-0.106 -0.386,0.405 -0.54,0.964 -0.135,1.523 0.029,0.038 0.067,0.058 0.106,0.096 0.299,-0.28 0.598,-0.549 0.887,-0.839 -0.154,-0.183 -0.308,-0.366 -0.434,-0.54 -0.077,-0.116 0.096,-0.231 0.193,-0.145 0.164,0.154 0.328,0.309 0.492,0.453 0.231,-0.22 0.462,-0.451 0.713,-0.673 z m -0.077,2.005 c 0.068,-0.039 0.125,-0.096 0.193,-0.145 -0.251,-0.145 -0.482,-0.347 -0.704,-0.559 -0.299,0.27 -0.627,0.511 -0.954,0.723 0.433,0.26 1.002,0.251 1.465,-0.019 z"
   id="path228" />
					<path
   style="fill:#1d1d1b"
   d="m 617.397,293.702 c 0.868,-0.289 1.745,0.492 1.697,1.379 -0.048,0.954 -1.012,1.648 -1.928,1.562 -0.916,-0.077 -1.754,-0.887 -1.648,-1.841 0.087,-0.819 0.983,-1.542 1.803,-1.292 0.125,0.039 0.096,0.212 -0.029,0.222 -0.125,0 -0.231,0.029 -0.337,0.067 0.01,0 0.019,0 0.019,0.01 0.125,0.173 0.231,0.357 0.347,0.53 0.116,-0.077 0.222,-0.135 0.337,-0.193 -0.068,-0.01 -0.135,-0.019 -0.193,-0.01 -0.271,0.019 -0.29,-0.357 -0.068,-0.434 z m 1.041,1.543 c 0.096,-0.318 0.01,-0.607 -0.183,-0.81 -0.01,0.01 -0.01,0.019 -0.019,0.029 -0.202,0.106 -0.395,0.222 -0.588,0.337 0.203,0.26 0.434,0.492 0.607,0.762 0.077,-0.097 0.144,-0.203 0.183,-0.318 z m -1.379,0.732 c 0.289,0.067 0.607,0.01 0.877,-0.135 -0.26,-0.202 -0.492,-0.472 -0.704,-0.771 -0.251,0.183 -0.501,0.376 -0.752,0.598 0.145,0.135 0.338,0.25 0.579,0.308 z m -0.116,-1.369 c -0.116,-0.222 -0.231,-0.444 -0.318,-0.656 0,0 0,0 0,-0.01 -0.482,0.318 -0.617,0.945 -0.366,1.427 0.183,-0.269 0.415,-0.539 0.684,-0.761 z"
   id="path229" />
					<path
   style="fill:#f7be29"
   d="m 618.418,257.832 c 0.54,0.366 0.424,1.031 0.068,1.504 -0.222,-0.193 -0.463,-0.357 -0.694,-0.54 0.231,-0.251 0.453,-0.511 0.627,-0.8 0.028,-0.058 0.019,-0.116 -10e-4,-0.164 z"
   id="path230" />
					<path
   style="fill:#f7be29"
   d="m 618.254,294.435 c 0.193,0.202 0.28,0.492 0.183,0.81 -0.039,0.116 -0.106,0.222 -0.183,0.318 -0.173,-0.27 -0.405,-0.501 -0.607,-0.762 0.193,-0.116 0.386,-0.231 0.588,-0.337 0.01,-0.01 0.01,-0.02 0.019,-0.029 z"
   id="path231" />
					<path
   style="fill:#f7be29"
   d="m 618.206,257.726 c -0.029,0.01 -0.067,0.01 -0.096,0.039 -0.251,0.222 -0.482,0.453 -0.713,0.675 -0.164,-0.145 -0.328,-0.299 -0.492,-0.453 -0.096,-0.087 -0.27,0.029 -0.193,0.145 0.125,0.173 0.28,0.357 0.434,0.54 -0.289,0.289 -0.588,0.559 -0.887,0.839 -0.039,-0.039 -0.077,-0.058 -0.106,-0.096 -0.405,-0.559 -0.251,-1.118 0.135,-1.523 0.058,0.087 0.154,0.154 0.27,0.106 0.453,-0.175 1.137,-0.445 1.648,-0.272 z"
   id="path232" />
					<path
   style="fill:#f7be29"
   d="m 618.226,259.625 c -0.068,0.048 -0.125,0.106 -0.193,0.145 -0.463,0.27 -1.031,0.28 -1.465,0.019 0.328,-0.212 0.656,-0.453 0.954,-0.723 0.222,0.212 0.453,0.415 0.704,0.559 z"
   id="path233" />
					<path
   style="fill:#f7be29"
   d="m 617.936,295.842 c -0.27,0.145 -0.588,0.202 -0.877,0.135 -0.241,-0.058 -0.434,-0.174 -0.578,-0.308 0.251,-0.222 0.501,-0.415 0.752,-0.598 0.212,0.299 0.443,0.569 0.703,0.771 z"
   id="path234" />
					<path
   style="fill:#f7be29"
   d="m 616.625,293.953 c 0.087,0.212 0.202,0.434 0.318,0.656 -0.27,0.222 -0.501,0.492 -0.684,0.762 -0.251,-0.482 -0.116,-1.109 0.366,-1.427 z"
   id="path235" />
				</g><g
   id="g247"
   transform="matrix(0.59536866,0,0,0.59536866,-231.85085,-146.86066)"
   clip-path="url(#clipPath22)">
					<path
   style="fill:#1d1d1b"
   d="m 661.517,254.256 c 0.077,0.145 0.01,0.299 -0.106,0.386 -0.019,0.077 -0.087,0.145 -0.202,0.164 0,0.01 0,0.019 0,0.029 -1.754,18.306 -1.031,36.333 -0.665,54.648 0,0.077 -0.039,0.116 -0.087,0.145 -0.019,0.048 -0.058,0.106 -0.116,0.135 -0.684,0.424 -1.456,0.877 -2.217,1.147 -0.019,0.173 -0.135,0.318 -0.357,0.318 -3.837,-0.096 -7.75,0.125 -11.568,-0.231 -0.135,-0.01 -0.193,-0.096 -0.202,-0.183 -0.125,0.019 -0.26,-0.048 -0.28,-0.212 -1.542,-18.682 -1.658,-37.634 -2.121,-56.374 0,-0.087 0.029,-0.154 0.058,-0.212 -0.058,-0.048 -0.096,-0.116 -0.077,-0.222 h 0.01 c -0.019,-0.087 0.106,-0.318 0.174,-0.443 0.424,-0.771 1.494,-1.475 2.13,-2.072 1.494,-1.408 2.988,-2.873 4.598,-4.165 0.048,-0.048 0.106,-0.067 0.164,-0.077 0.019,-0.202 0.289,-0.357 0.492,-0.193 0.019,0.019 0.039,0.029 0.058,0.039 1.147,-0.173 2.342,-0.26 3.509,-0.183 0.212,0.01 0.289,0.183 0.26,0.337 1.311,0.617 2.371,1.986 3.307,3.027 1.156,1.271 2.448,2.659 3.238,4.192 z m -1.485,54.986 c 0.039,-0.029 0.087,-0.039 0.125,-0.039 -2.208,-17.872 -1.157,-36.429 0.424,-54.301 -0.521,0.077 -1.051,0.145 -1.571,0.183 0.096,0.029 0.183,0.116 0.174,0.27 -0.241,9.216 -1.436,18.364 -1.369,27.608 0.067,9.168 1.494,18.248 0.337,27.416 0.579,-0.443 1.264,-0.819 1.88,-1.137 z m -1.021,-54.639 c 0.578,-0.135 1.166,-0.251 1.755,-0.337 -1.06,-1.176 -1.957,-2.497 -3.017,-3.682 -0.945,-1.06 -2.304,-2.063 -3.017,-3.307 -0.01,0 -0.01,0.01 -0.019,0.01 -1.07,0.067 -2.159,-0.01 -3.229,-0.154 2.699,2.217 5.321,4.753 7.519,7.461 -0.002,-0.001 -0.002,0.009 0.008,0.009 z m -0.434,0.752 c 0.01,-0.077 0.039,-0.135 0.087,-0.183 -0.058,-0.01 -0.106,-0.039 -0.154,-0.087 -2.516,-2.458 -4.984,-5.003 -7.461,-7.509 -0.01,0.019 -0.019,0.038 -0.039,0.058 -1.109,1.166 -2.352,2.227 -3.547,3.316 -1.031,0.945 -2.371,1.841 -3.278,2.902 0.135,0.058 0.251,0.183 0.26,0.376 0.549,18.74 1.889,37.605 1.735,56.355 0.01,0 0.01,-0.01 0.019,-0.01 3.789,-0.463 7.722,-0.222 11.539,-0.116 0.26,-18.471 -1.417,-36.651 0.839,-55.102 z"
   id="path236" />
					<path
   style="fill:#f7be29"
   d="m 660.158,309.203 c -0.039,0 -0.087,0.01 -0.125,0.039 -0.617,0.318 -1.301,0.694 -1.88,1.137 1.157,-9.167 -0.27,-18.248 -0.337,-27.416 -0.068,-9.245 1.128,-18.393 1.369,-27.608 0.01,-0.154 -0.077,-0.241 -0.174,-0.27 0.521,-0.039 1.051,-0.106 1.571,-0.183 -1.581,17.872 -2.632,36.429 -0.424,54.301 z"
   id="path237" />
					<path
   style="fill:#f7be29"
   d="m 660.765,254.266 c -0.588,0.087 -1.176,0.202 -1.755,0.337 -0.01,0 -0.01,-0.01 -0.01,-0.01 -2.198,-2.709 -4.82,-5.244 -7.519,-7.461 1.07,0.145 2.159,0.222 3.229,0.154 0.01,0 0.01,-0.01 0.019,-0.01 0.713,1.244 2.073,2.246 3.017,3.307 1.062,1.186 1.959,2.506 3.019,3.683 z"
   id="path238" />
					<path
   style="fill:#fcd86f"
   d="m 658.664,255.172 c -0.048,0.048 -0.077,0.106 -0.087,0.183 -2.256,18.451 -0.578,36.631 -0.839,55.101 -3.817,-0.106 -7.75,-0.347 -11.539,0.116 -0.01,0 -0.01,0.01 -0.019,0.01 0.154,-18.75 -1.186,-37.615 -1.735,-56.355 -0.01,-0.193 -0.125,-0.318 -0.26,-0.376 0.906,-1.06 2.246,-1.957 3.278,-2.902 1.195,-1.089 2.439,-2.15 3.547,-3.316 0.019,-0.019 0.029,-0.039 0.039,-0.058 2.477,2.506 4.945,5.051 7.461,7.509 0.048,0.049 0.096,0.078 0.154,0.088 z m -6.922,5.282 c 0.945,-0.376 1.774,-1.571 1.215,-2.584 -0.443,-0.81 -1.378,-0.81 -2.188,-0.588 -0.01,-0.029 -0.019,-0.058 -0.048,-0.058 -1.08,-0.231 -1.889,1.003 -1.629,1.976 0.317,1.139 1.59,1.688 2.65,1.254 z m 1.07,34.627 c 0.048,-0.887 -0.829,-1.668 -1.697,-1.379 -0.222,0.077 -0.203,0.453 0.067,0.434 0.058,-0.01 0.125,0 0.193,0.01 -0.116,0.058 -0.222,0.116 -0.337,0.193 -0.116,-0.174 -0.222,-0.357 -0.347,-0.53 0,-0.01 -0.01,-0.01 -0.019,-0.01 0.106,-0.038 0.212,-0.067 0.337,-0.067 0.125,-0.01 0.154,-0.183 0.029,-0.222 -0.819,-0.251 -1.716,0.472 -1.803,1.292 -0.106,0.954 0.733,1.764 1.648,1.841 0.917,0.086 1.881,-0.608 1.929,-1.562 z"
   id="path239" />
					<path
   style="fill:#1d1d1b"
   d="m 652.957,257.871 c 0.559,1.012 -0.27,2.208 -1.215,2.584 -1.06,0.434 -2.333,-0.116 -2.651,-1.253 -0.26,-0.974 0.549,-2.208 1.629,-1.976 0.029,0 0.039,0.029 0.048,0.058 0.81,-0.223 1.745,-0.223 2.189,0.587 z m -0.752,1.465 c 0.357,-0.472 0.472,-1.137 -0.068,-1.504 0.019,0.048 0.029,0.106 0,0.164 -0.173,0.289 -0.395,0.549 -0.627,0.8 0.232,0.183 0.473,0.347 0.695,0.54 z m -0.376,-1.571 c 0.029,-0.029 0.068,-0.029 0.096,-0.039 -0.511,-0.173 -1.195,0.096 -1.648,0.27 -0.116,0.048 -0.212,-0.019 -0.27,-0.106 -0.386,0.405 -0.54,0.964 -0.135,1.523 0.029,0.038 0.068,0.058 0.106,0.096 0.299,-0.28 0.598,-0.549 0.887,-0.839 -0.154,-0.183 -0.308,-0.366 -0.434,-0.54 -0.077,-0.116 0.096,-0.231 0.193,-0.145 0.164,0.154 0.328,0.309 0.492,0.453 0.231,-0.22 0.462,-0.451 0.713,-0.673 z m -0.077,2.005 c 0.068,-0.039 0.125,-0.096 0.193,-0.145 -0.251,-0.145 -0.482,-0.347 -0.704,-0.559 -0.299,0.27 -0.627,0.511 -0.954,0.723 0.433,0.26 1.002,0.251 1.465,-0.019 z"
   id="path240" />
					<path
   style="fill:#1d1d1b"
   d="m 651.116,293.702 c 0.867,-0.289 1.745,0.492 1.697,1.379 -0.048,0.954 -1.012,1.648 -1.928,1.562 -0.916,-0.077 -1.754,-0.887 -1.648,-1.841 0.087,-0.819 0.983,-1.542 1.803,-1.292 0.125,0.039 0.096,0.212 -0.029,0.222 -0.125,0 -0.231,0.029 -0.337,0.067 0.01,0 0.019,0 0.019,0.01 0.125,0.173 0.231,0.357 0.347,0.53 0.116,-0.077 0.222,-0.135 0.337,-0.193 -0.067,-0.01 -0.135,-0.019 -0.193,-0.01 -0.271,0.019 -0.29,-0.357 -0.068,-0.434 z m 1.041,1.543 c 0.096,-0.318 0.01,-0.607 -0.183,-0.81 -0.01,0.01 -0.01,0.019 -0.019,0.029 -0.202,0.106 -0.395,0.222 -0.588,0.337 0.202,0.26 0.434,0.492 0.607,0.762 0.077,-0.097 0.144,-0.203 0.183,-0.318 z m -1.379,0.732 c 0.289,0.067 0.607,0.01 0.877,-0.135 -0.26,-0.202 -0.492,-0.472 -0.704,-0.771 -0.251,0.183 -0.501,0.376 -0.752,0.598 0.145,0.135 0.338,0.25 0.579,0.308 z m -0.115,-1.369 c -0.116,-0.222 -0.231,-0.444 -0.318,-0.656 0,0 0,0 0,-0.01 -0.482,0.318 -0.617,0.945 -0.366,1.427 0.182,-0.269 0.414,-0.539 0.684,-0.761 z"
   id="path241" />
					<path
   style="fill:#f7be29"
   d="m 652.137,257.832 c 0.54,0.366 0.424,1.031 0.068,1.504 -0.222,-0.193 -0.463,-0.357 -0.694,-0.54 0.231,-0.251 0.453,-0.511 0.627,-0.8 0.028,-0.058 0.019,-0.116 -0.001,-0.164 z"
   id="path242" />
					<path
   style="fill:#f7be29"
   d="m 651.974,294.435 c 0.193,0.202 0.28,0.492 0.183,0.81 -0.039,0.116 -0.106,0.222 -0.183,0.318 -0.174,-0.27 -0.405,-0.501 -0.607,-0.762 0.193,-0.116 0.386,-0.231 0.588,-0.337 0.009,-0.01 0.009,-0.02 0.019,-0.029 z"
   id="path243" />
					<path
   style="fill:#f7be29"
   d="m 651.925,257.726 c -0.029,0.01 -0.068,0.01 -0.096,0.039 -0.251,0.222 -0.482,0.453 -0.713,0.675 -0.164,-0.145 -0.328,-0.299 -0.492,-0.453 -0.096,-0.087 -0.27,0.029 -0.193,0.145 0.125,0.173 0.28,0.357 0.434,0.54 -0.289,0.289 -0.588,0.559 -0.887,0.839 -0.039,-0.039 -0.077,-0.058 -0.106,-0.096 -0.405,-0.559 -0.251,-1.118 0.135,-1.523 0.058,0.087 0.154,0.154 0.27,0.106 0.453,-0.175 1.137,-0.445 1.648,-0.272 z"
   id="path244" />
					<path
   style="fill:#f7be29"
   d="m 651.945,259.625 c -0.068,0.048 -0.125,0.106 -0.193,0.145 -0.463,0.27 -1.031,0.28 -1.465,0.019 0.328,-0.212 0.656,-0.453 0.954,-0.723 0.222,0.212 0.453,0.415 0.704,0.559 z"
   id="path245" />
					<path
   style="fill:#f7be29"
   d="m 651.655,295.842 c -0.27,0.145 -0.588,0.202 -0.877,0.135 -0.241,-0.058 -0.434,-0.174 -0.578,-0.308 0.251,-0.222 0.501,-0.415 0.752,-0.598 0.212,0.299 0.443,0.569 0.703,0.771 z"
   id="path246" />
					<path
   style="fill:#f7be29"
   d="m 650.344,293.953 c 0.087,0.212 0.202,0.434 0.318,0.656 -0.27,0.222 -0.501,0.492 -0.684,0.762 -0.251,-0.482 -0.116,-1.109 0.366,-1.427 z"
   id="path247" />
				</g><g
   id="g259"
   transform="matrix(0.59536866,0,0,0.59536866,-231.85085,-146.86066)"
   clip-path="url(#clipPath21)">
					<path
   style="fill:#1d1d1b"
   d="m 696.356,254.256 c 0.077,0.145 0.01,0.299 -0.106,0.386 -0.019,0.077 -0.087,0.145 -0.202,0.164 0,0.01 0,0.019 0,0.029 -1.755,18.306 -1.031,36.333 -0.665,54.648 0,0.077 -0.039,0.116 -0.087,0.145 -0.019,0.048 -0.058,0.106 -0.116,0.135 -0.684,0.424 -1.456,0.877 -2.217,1.147 -0.019,0.173 -0.135,0.318 -0.357,0.318 -3.837,-0.096 -7.75,0.125 -11.568,-0.231 -0.135,-0.01 -0.193,-0.096 -0.202,-0.183 -0.125,0.019 -0.26,-0.048 -0.28,-0.212 -1.542,-18.682 -1.658,-37.634 -2.121,-56.374 0,-0.087 0.029,-0.154 0.058,-0.212 -0.058,-0.048 -0.096,-0.116 -0.077,-0.222 h 0.01 c -0.019,-0.087 0.106,-0.318 0.173,-0.443 0.424,-0.771 1.494,-1.475 2.13,-2.072 1.494,-1.408 2.988,-2.873 4.598,-4.165 0.048,-0.048 0.106,-0.067 0.164,-0.077 0.019,-0.202 0.289,-0.357 0.492,-0.193 0.019,0.019 0.039,0.029 0.058,0.039 1.147,-0.173 2.343,-0.26 3.509,-0.183 0.212,0.01 0.289,0.183 0.26,0.337 1.311,0.617 2.371,1.986 3.306,3.027 1.158,1.271 2.45,2.659 3.24,4.192 z m -1.484,54.986 c 0.039,-0.029 0.087,-0.039 0.125,-0.039 -2.208,-17.872 -1.157,-36.429 0.424,-54.301 -0.521,0.077 -1.051,0.145 -1.571,0.183 0.096,0.029 0.183,0.116 0.174,0.27 -0.241,9.216 -1.436,18.364 -1.369,27.608 0.068,9.168 1.494,18.248 0.337,27.416 0.578,-0.443 1.263,-0.819 1.88,-1.137 z m -1.022,-54.639 c 0.578,-0.135 1.166,-0.251 1.754,-0.337 -1.06,-1.176 -1.957,-2.497 -3.017,-3.682 -0.945,-1.06 -2.304,-2.063 -3.017,-3.307 -0.01,0 -0.01,0.01 -0.019,0.01 -1.07,0.067 -2.159,-0.01 -3.229,-0.154 2.699,2.217 5.321,4.753 7.519,7.461 -10e-4,-0.001 -10e-4,0.009 0.009,0.009 z m -0.434,0.752 c 0.01,-0.077 0.039,-0.135 0.087,-0.183 -0.058,-0.01 -0.106,-0.039 -0.154,-0.087 -2.516,-2.458 -4.984,-5.003 -7.461,-7.509 -0.01,0.019 -0.019,0.038 -0.039,0.058 -1.109,1.166 -2.352,2.227 -3.547,3.316 -1.031,0.945 -2.371,1.841 -3.277,2.902 0.135,0.058 0.251,0.183 0.26,0.376 0.549,18.74 1.889,37.605 1.735,56.355 0.01,0 0.01,-0.01 0.019,-0.01 3.789,-0.463 7.722,-0.222 11.539,-0.116 0.26,-18.471 -1.418,-36.651 0.838,-55.102 z"
   id="path248" />
					<path
   style="fill:#f7be29"
   d="m 694.997,309.203 c -0.039,0 -0.087,0.01 -0.125,0.039 -0.617,0.318 -1.301,0.694 -1.88,1.137 1.157,-9.167 -0.27,-18.248 -0.337,-27.416 -0.067,-9.245 1.128,-18.393 1.369,-27.608 0.01,-0.154 -0.077,-0.241 -0.174,-0.27 0.521,-0.039 1.051,-0.106 1.571,-0.183 -1.581,17.872 -2.632,36.429 -0.424,54.301 z"
   id="path249" />
					<path
   style="fill:#f7be29"
   d="m 695.604,254.266 c -0.588,0.087 -1.176,0.202 -1.754,0.337 -0.01,0 -0.01,-0.01 -0.01,-0.01 -2.198,-2.709 -4.82,-5.244 -7.519,-7.461 1.07,0.145 2.159,0.222 3.229,0.154 0.01,0 0.01,-0.01 0.019,-0.01 0.713,1.244 2.073,2.246 3.017,3.307 1.061,1.186 1.958,2.506 3.018,3.683 z"
   id="path250" />
					<path
   style="fill:#fcd86f"
   d="m 693.503,255.172 c -0.048,0.048 -0.077,0.106 -0.087,0.183 -2.256,18.451 -0.578,36.631 -0.839,55.101 -3.817,-0.106 -7.75,-0.347 -11.539,0.116 -0.01,0 -0.01,0.01 -0.019,0.01 0.154,-18.75 -1.186,-37.615 -1.735,-56.355 -0.01,-0.193 -0.125,-0.318 -0.26,-0.376 0.906,-1.06 2.246,-1.957 3.277,-2.902 1.195,-1.089 2.439,-2.15 3.547,-3.316 0.019,-0.019 0.029,-0.039 0.039,-0.058 2.477,2.506 4.945,5.051 7.461,7.509 0.049,0.049 0.097,0.078 0.155,0.088 z m -6.922,5.282 c 0.945,-0.376 1.774,-1.571 1.215,-2.584 -0.443,-0.81 -1.378,-0.81 -2.188,-0.588 -0.01,-0.029 -0.019,-0.058 -0.048,-0.058 -1.08,-0.231 -1.889,1.003 -1.629,1.976 0.318,1.139 1.59,1.688 2.65,1.254 z m 1.07,34.627 c 0.048,-0.887 -0.829,-1.668 -1.697,-1.379 -0.222,0.077 -0.202,0.453 0.068,0.434 0.058,-0.01 0.125,0 0.193,0.01 -0.116,0.058 -0.222,0.116 -0.337,0.193 -0.116,-0.174 -0.222,-0.357 -0.347,-0.53 0,-0.01 -0.01,-0.01 -0.019,-0.01 0.106,-0.038 0.212,-0.067 0.337,-0.067 0.125,-0.01 0.154,-0.183 0.029,-0.222 -0.819,-0.251 -1.716,0.472 -1.803,1.292 -0.106,0.954 0.733,1.764 1.648,1.841 0.916,0.086 1.88,-0.608 1.928,-1.562 z"
   id="path251" />
					<path
   style="fill:#1d1d1b"
   d="m 687.796,257.871 c 0.559,1.012 -0.27,2.208 -1.215,2.584 -1.06,0.434 -2.333,-0.116 -2.651,-1.253 -0.26,-0.974 0.549,-2.208 1.629,-1.976 0.029,0 0.039,0.029 0.048,0.058 0.811,-0.223 1.746,-0.223 2.189,0.587 z m -0.752,1.465 c 0.357,-0.472 0.472,-1.137 -0.067,-1.504 0.019,0.048 0.029,0.106 0,0.164 -0.174,0.289 -0.395,0.549 -0.627,0.8 0.231,0.183 0.472,0.347 0.694,0.54 z m -0.376,-1.571 c 0.029,-0.029 0.068,-0.029 0.096,-0.039 -0.511,-0.173 -1.195,0.096 -1.648,0.27 -0.116,0.048 -0.212,-0.019 -0.27,-0.106 -0.386,0.405 -0.54,0.964 -0.135,1.523 0.029,0.038 0.067,0.058 0.106,0.096 0.299,-0.28 0.598,-0.549 0.887,-0.839 -0.154,-0.183 -0.308,-0.366 -0.434,-0.54 -0.077,-0.116 0.096,-0.231 0.193,-0.145 0.164,0.154 0.328,0.309 0.492,0.453 0.231,-0.22 0.463,-0.451 0.713,-0.673 z m -0.077,2.005 c 0.068,-0.039 0.125,-0.096 0.193,-0.145 -0.251,-0.145 -0.482,-0.347 -0.704,-0.559 -0.299,0.27 -0.627,0.511 -0.954,0.723 0.434,0.26 1.002,0.251 1.465,-0.019 z"
   id="path252" />
					<path
   style="fill:#1d1d1b"
   d="m 685.955,293.702 c 0.868,-0.289 1.745,0.492 1.697,1.379 -0.048,0.954 -1.012,1.648 -1.928,1.562 -0.916,-0.077 -1.754,-0.887 -1.648,-1.841 0.087,-0.819 0.983,-1.542 1.803,-1.292 0.125,0.039 0.096,0.212 -0.029,0.222 -0.125,0 -0.231,0.029 -0.337,0.067 0.01,0 0.019,0 0.019,0.01 0.125,0.173 0.231,0.357 0.347,0.53 0.116,-0.077 0.222,-0.135 0.337,-0.193 -0.068,-0.01 -0.135,-0.019 -0.193,-0.01 -0.271,0.019 -0.29,-0.357 -0.068,-0.434 z m 1.041,1.543 c 0.096,-0.318 0.01,-0.607 -0.183,-0.81 -0.01,0.01 -0.01,0.019 -0.019,0.029 -0.202,0.106 -0.395,0.222 -0.588,0.337 0.202,0.26 0.434,0.492 0.607,0.762 0.077,-0.097 0.144,-0.203 0.183,-0.318 z m -1.379,0.732 c 0.289,0.067 0.607,0.01 0.877,-0.135 -0.26,-0.202 -0.492,-0.472 -0.704,-0.771 -0.251,0.183 -0.501,0.376 -0.752,0.598 0.146,0.135 0.338,0.25 0.579,0.308 z m -0.115,-1.369 c -0.116,-0.222 -0.231,-0.444 -0.318,-0.656 0,0 0,0 0,-0.01 -0.482,0.318 -0.617,0.945 -0.366,1.427 0.182,-0.269 0.414,-0.539 0.684,-0.761 z"
   id="path253" />
					<path
   style="fill:#f7be29"
   d="m 686.977,257.832 c 0.54,0.366 0.424,1.031 0.067,1.504 -0.222,-0.193 -0.463,-0.357 -0.694,-0.54 0.231,-0.251 0.453,-0.511 0.627,-0.8 0.029,-0.058 0.019,-0.116 0,-0.164 z"
   id="path254" />
					<path
   style="fill:#f7be29"
   d="m 686.813,294.435 c 0.193,0.202 0.279,0.492 0.183,0.81 -0.038,0.116 -0.106,0.222 -0.183,0.318 -0.174,-0.27 -0.405,-0.501 -0.607,-0.762 0.193,-0.116 0.386,-0.231 0.588,-0.337 0.009,-0.01 0.009,-0.02 0.019,-0.029 z"
   id="path255" />
					<path
   style="fill:#f7be29"
   d="m 686.765,257.726 c -0.029,0.01 -0.068,0.01 -0.096,0.039 -0.251,0.222 -0.482,0.453 -0.713,0.675 -0.164,-0.145 -0.328,-0.299 -0.492,-0.453 -0.096,-0.087 -0.27,0.029 -0.193,0.145 0.125,0.173 0.28,0.357 0.434,0.54 -0.289,0.289 -0.588,0.559 -0.887,0.839 -0.039,-0.039 -0.077,-0.058 -0.106,-0.096 -0.405,-0.559 -0.251,-1.118 0.135,-1.523 0.058,0.087 0.154,0.154 0.27,0.106 0.452,-0.175 1.137,-0.445 1.648,-0.272 z"
   id="path256" />
					<path
   style="fill:#f7be29"
   d="m 686.784,259.625 c -0.068,0.048 -0.125,0.106 -0.193,0.145 -0.463,0.27 -1.031,0.28 -1.465,0.019 0.328,-0.212 0.655,-0.453 0.954,-0.723 0.222,0.212 0.453,0.415 0.704,0.559 z"
   id="path257" />
					<path
   style="fill:#f7be29"
   d="m 686.495,295.842 c -0.27,0.145 -0.588,0.202 -0.877,0.135 -0.241,-0.058 -0.434,-0.174 -0.578,-0.308 0.251,-0.222 0.501,-0.415 0.752,-0.598 0.211,0.299 0.442,0.569 0.703,0.771 z"
   id="path258" />
					<path
   style="fill:#f7be29"
   d="m 685.184,293.953 c 0.087,0.212 0.202,0.434 0.318,0.656 -0.27,0.222 -0.501,0.492 -0.685,0.762 -0.251,-0.482 -0.116,-1.109 0.366,-1.427 z"
   id="path259" />
				</g>
				
			</svg>
