<?xml version="1.0" encoding="utf-8"?>
<svg xmlns="http://www.w3.org/2000/svg" viewBox="0 0 300 269" width="100%" height="100%"><rect x="-58.434" y="241.739" width="428.201" height="68.512" style="fill: rgba(177, 255, 140, 0.37);"/><path fill-rule="nonzero" fill="rgb(49.804688%, 100%, 16.479492%)" fill-opacity="1" d="M 123.865 257.307 C 108.542 251.152 119.603 250.514 127.443 254.291 C 101.628 235.3 124.711 241.057 132.585 256.229 C 128.368 244.257 119.583 222.488 126.995 230.808 C 130.75 238.772 134.821 245.337 134.821 254.291 C 130.054 218.704 137.28 227.642 137.28 254.291 C 142.689 230.452 145.163 247.314 139.739 255.152 C 156.634 233.305 160.378 243.595 141.081 256.876 C 138.18 261.747 127.463 260.775 123.865 257.307" style="stroke-width: 1;"/><path fill-rule="nonzero" fill="rgb(0%, 50.193787%, 0%)" fill-opacity="1" d="M 62.99 283.143 C 61.728 279.265 58.964 282.181 57.603 280.058 C 54.935 275.892 61.561 274.637 63.974 280.254 C 63.157 276.484 61.252 275.052 59.253 273.53 C 53.608 269.228 64.586 266.393 65.798 277.488 C 58.465 254.858 65.012 255.296 67.17 277.39 C 66.345 255.948 70.38 261.559 68.865 278.049 C 71.116 256.02 71.683 269.836 72.106 279.375 C 72.161 267.766 74.901 255.148 75.296 266.35 C 75.461 271.055 74.611 274.341 74.063 278.201 C 76.23 264.912 81.806 268.91 75.62 279.387 C 83.598 268.225 86.052 275.942 77.479 280.756 C 84.346 278.069 84.961 283.456 77.316 282.77 C 76.92 285.415 64.798 285.733 62.99 283.143" style="stroke-width: 1;"/><path fill-rule="nonzero" fill="rgb(33.325195%, 83.201599%, 0%)" fill-opacity="1" d="M 24.051 258.914 C 15.183 257.648 13.265 253.133 11.213 247.139 C 17.654 248.733 19.247 252.233 22.125 254.632 C 17.189 247.63 11.586 243.353 9.258 236.865 C 19.583 239.67 20.136 247.194 26.299 254.9 C 23.593 249.519 22.125 243.76 22.125 237.773 C 25.852 242.09 30.151 248.769 30.151 254.364 C 29.446 244.053 30.449 234.064 35.93 224.928 C 35.743 234.95 36.744 245.43 33.683 254.364 C 34.901 249.077 39.258 243.918 42.993 240.182 C 42.543 246.113 41.069 251.819 37.535 256.238 C 40.149 253.029 44.406 252.197 48.129 251.421 C 44.217 255.073 41.049 257.717 36.893 259.449 C 31.983 259.461 27.935 260.532 24.051 258.914" style="stroke-width: 1;"/><path fill-rule="nonzero" fill="rgb(0%, 50.193787%, 0%)" fill-opacity="1" d="M 244.112 253.653 C 242.85 249.775 240.086 252.691 238.725 250.568 C 236.057 246.402 242.683 245.147 245.096 250.764 C 244.279 246.994 242.374 245.562 240.375 244.04 C 234.73 239.738 245.708 236.903 246.92 247.998 C 239.587 225.368 246.134 225.806 248.292 247.9 C 247.467 226.458 251.502 232.069 249.987 248.559 C 252.238 226.53 252.805 240.346 253.228 249.885 C 253.283 238.276 256.023 225.658 256.418 236.86 C 256.583 241.565 255.733 244.851 255.185 248.711 C 257.352 235.422 262.928 239.42 256.742 249.897 C 264.72 238.735 267.174 246.452 258.601 251.266 C 265.468 248.579 266.083 253.966 258.438 253.28 C 258.042 255.925 245.92 256.243 244.112 253.653" style="stroke-width: 1;"/><path fill-rule="nonzero" fill="rgb(35.301208%, 62.693787%, 17.259216%)" fill-opacity="1" d="M 269.824 265.08 C 275.511 262.704 275.656 264.757 278.207 265.83 C 277.233 261.925 275.781 264.369 272.321 260.287 C 276.025 260.158 276.475 258.678 280.07 263.731 C 278.711 258.437 277.441 258.151 274.339 254.437 C 280.935 254.894 280.997 260.061 282.951 266.603 C 281.785 263.02 281.361 256.684 279.451 251.638 C 283.051 253.878 283.453 258.699 284.226 261.932 L 284.226 247.241 C 286.496 253.088 285.716 256.111 286.232 260.433 C 286.479 256.812 287.363 254.184 288.238 251.438 C 288.819 254.56 288.092 262.789 288.281 265.555 C 289.652 261.767 287.849 257.534 293.684 253.237 C 292.492 255.808 291.58 258.91 290.961 261.932 C 292.885 258.829 296.111 252.141 300.558 250.014 C 298.94 253.207 294.351 258.35 292.824 264.63 C 295.569 261.062 297.517 257.828 300.562 256.235 C 298.369 258.264 296.133 262.477 295.403 265.53 C 298.454 263.306 304.327 254.61 307.522 254.61 C 305.333 256.352 299.579 262.496 298.986 267.029 C 301.716 263.415 304.549 261.487 307.44 262.831 C 303.035 266.431 301.434 266.189 300.49 273.025 C 292.006 272.641 285.773 273.175 277.348 273.175 C 276.841 265.417 273.109 266.898 269.824 265.08" style="stroke-width: 1;"/></svg>