<?xml version="1.0" encoding="UTF-8" standalone="no"?>
<!-- Created with Inkscape (http://www.inkscape.org/) -->

<svg
   version="1.1"
   id="svg1"
   width="1715.7281"
   height="1428.0533"
   viewBox="0 0 1715.7281 1428.0533"
   xmlns="http://www.w3.org/2000/svg"
   xmlns:svg="http://www.w3.org/2000/svg">
  <defs
     id="defs1" />
  <g
     id="g1"
     transform="translate(-482.13808,-298.66675)">
    <g
       id="group-R5">
      <g
         id="g488">
        <path
           id="path29"
           d="M 15744.7,15758.5 V 7060 H 4257.5 v 8698.5 l 5743.6,1751.5 5743.6,-1751.5"
           style="fill:#f26f51;fill-opacity:1;fill-rule:nonzero;stroke:none"
           transform="matrix(0.13333333,0,0,-0.13333333,0,2666.6667)" />
        <path
           id="path30"
           d="M 5234.79,15997.1 H 5120.51 V 7049.6 h 114.28 v 8947.5"
           style="fill:#db5e49;fill-opacity:1;fill-rule:nonzero;stroke:none"
           transform="matrix(0.13333333,0,0,-0.13333333,0,2666.6667)" />
        <path
           id="path31"
           d="M 6135.59,16204.5 H 6021.32 V 7049.6 h 114.27 v 9154.9"
           style="fill:#db5e49;fill-opacity:1;fill-rule:nonzero;stroke:none"
           transform="matrix(0.13333333,0,0,-0.13333333,0,2666.6667)" />
        <path
           id="path32"
           d="m 6922.13,7049.7 h 114.273 v 9411.64 H 6922.13 Z"
           style="fill:#db5e49;fill-opacity:1;fill-rule:nonzero;stroke:none"
           transform="matrix(0.13333333,0,0,-0.13333333,0,2666.6667)" />
        <path
           id="path33"
           d="M 7937.21,16904.7 H 7822.93 V 8562.5 h 114.28 v 8342.2"
           style="fill:#db5e49;fill-opacity:1;fill-rule:nonzero;stroke:none"
           transform="matrix(0.13333333,0,0,-0.13333333,0,2666.6667)" />
        <path
           id="path34"
           d="M 8838.01,17234.8 H 8723.75 V 8562.5 h 114.26 v 8672.3"
           style="fill:#db5e49;fill-opacity:1;fill-rule:nonzero;stroke:none"
           transform="matrix(0.13333333,0,0,-0.13333333,0,2666.6667)" />
        <path
           id="path35"
           d="M 9738.82,17510 H 9624.55 V 8562.5 h 114.27 V 17510"
           style="fill:#db5e49;fill-opacity:1;fill-rule:nonzero;stroke:none"
           transform="matrix(0.13333333,0,0,-0.13333333,0,2666.6667)" />
        <path
           id="path36"
           d="m 10525.4,8562.5 h 114.199 V 17510 H 10525.4 Z"
           style="fill:#db5e49;fill-opacity:1;fill-rule:nonzero;stroke:none"
           transform="matrix(0.13333333,0,0,-0.13333333,0,2666.6667)" />
        <path
           id="path37"
           d="m 11540.4,17199.7 h -114.2 V 8562.5 h 114.2 v 8637.2"
           style="fill:#db5e49;fill-opacity:1;fill-rule:nonzero;stroke:none"
           transform="matrix(0.13333333,0,0,-0.13333333,0,2666.6667)" />
        <path
           id="path38"
           d="M 12441.2,16835.1 H 12327 V 8562.5 h 114.2 v 8272.6"
           style="fill:#db5e49;fill-opacity:1;fill-rule:nonzero;stroke:none"
           transform="matrix(0.13333333,0,0,-0.13333333,0,2666.6667)" />
        <path
           id="path39"
           d="m 13342.1,16507.2 h -114.3 V 7049.6 h 114.3 v 9457.6"
           style="fill:#db5e49;fill-opacity:1;fill-rule:nonzero;stroke:none"
           transform="matrix(0.13333333,0,0,-0.13333333,0,2666.6667)" />
        <path
           id="path40"
           d="m 14242.9,16177 h -114.3 V 7049.6 h 114.3 V 16177"
           style="fill:#db5e49;fill-opacity:1;fill-rule:nonzero;stroke:none"
           transform="matrix(0.13333333,0,0,-0.13333333,0,2666.6667)" />
        <path
           id="path41"
           d="m 15029.4,7049.7 h 114.301 v 8947.45 H 15029.4 Z"
           style="fill:#db5e49;fill-opacity:1;fill-rule:nonzero;stroke:none"
           transform="matrix(0.13333333,0,0,-0.13333333,0,2666.6667)" />
        <path
           id="path42"
           d="m 16234,15361.7 c -24.1,0 -48.7,3.5 -72.9,10.9 l -6160,1876.1 L 3938.96,15402 c -132.11,-40.2 -271.78,34.2 -312.01,166.3 -40.23,132.1 34.22,271.8 166.3,312 l 6134.98,1868.9 c 47.49,14.4 98.17,14.4 145.67,0 l 6232.8,-1898.3 c 132.1,-40.2 206.6,-179.9 166.4,-312 -32.9,-107.8 -132,-177.2 -239.1,-177.2"
           style="fill:#fffbe9;fill-opacity:1;fill-rule:nonzero;stroke:none"
           transform="matrix(0.13333333,0,0,-0.13333333,0,2666.6667)" />
        <path
           id="path43"
           d="M 11278,14217.5 H 8714.39 v 1467.7 H 11278 v -1467.7"
           style="fill:#a03c28;fill-opacity:1;fill-rule:nonzero;stroke:none"
           transform="matrix(0.13333333,0,0,-0.13333333,0,2666.6667)" />
        <path
           id="path44"
           d="m 7222.24,7069.8 h 5557.66 v 5329.29 H 7222.24 Z"
           style="fill:#a03c28;fill-opacity:1;fill-rule:nonzero;stroke:none"
           transform="matrix(0.13333333,0,0,-0.13333333,0,2666.6667)" />
        <path
           id="path45"
           d="M 8814.95,14341.6 H 11186.3 V 15563 H 8814.95 Z m 2496.35,-250 H 8689.95 c -69.04,0 -125,55.9 -125,125 V 15688 c 0,69 55.96,125 125,125 h 2621.35 c 69,0 125,-56 125,-125 v -1471.4 c 0,-69.1 -56,-125 -125,-125"
           style="fill:#fffbe9;fill-opacity:1;fill-rule:nonzero;stroke:none"
           transform="matrix(0.13333333,0,0,-0.13333333,0,2666.6667)" />
        <path
           id="path46"
           d="m 9996.65,14087.6 c -69.04,0 -125,55.9 -125,125 v 1477.5 c 0,69 55.96,125 125,125 69.05,0 124.95,-56 124.95,-125 v -1477.5 c 0,-69.1 -55.9,-125 -124.95,-125"
           style="fill:#fffbe9;fill-opacity:1;fill-rule:nonzero;stroke:none"
           transform="matrix(0.13333333,0,0,-0.13333333,0,2666.6667)" />
        <path
           id="path47"
           d="M 11307.3,14826.3 H 8685.98 c -69.04,0 -125,56 -125,125 0,69.1 55.96,125 125,125 h 2621.32 c 69,0 125,-55.9 125,-125 0,-69 -56,-125 -125,-125"
           style="fill:#fffbe9;fill-opacity:1;fill-rule:nonzero;stroke:none"
           transform="matrix(0.13333333,0,0,-0.13333333,0,2666.6667)" />
        <path
           id="path48"
           d="M 13127.8,12554 V 7064.9 c 0,-1.6 0,-3.3 -0.1,-4.9 h -499.8 c -0.1,1.6 -0.1,3.3 -0.1,4.9 V 12304 H 7374.4 V 7064.9 c 0,-1.6 0,-3.3 -0.1,-4.9 h -499.8 c -0.1,1.6 -0.1,3.3 -0.1,4.9 V 12554 c 0,138.1 111.9,250 250,250 h 5753.4 c 138,0 250,-111.9 250,-250"
           style="fill:#fffbe9;fill-opacity:1;fill-rule:nonzero;stroke:none"
           transform="matrix(0.13333333,0,0,-0.13333333,0,2666.6667)" />
        <path
           id="path49"
           d="m 7124.39,10036.7 h -2866.9 c -69.03,0 -125,56 -125,125 0,69.1 55.97,125 125,125 h 2866.9 c 69.04,0 125,-55.9 125,-125 0,-69 -55.96,-125 -125,-125"
           style="fill:#fffbe9;fill-opacity:1;fill-rule:nonzero;stroke:none"
           transform="matrix(0.13333333,0,0,-0.13333333,0,2666.6667)" />
        <path
           id="path50"
           d="m 15744.7,10036.7 h -2866.9 c -69.1,0 -125,56 -125,125 0,69.1 55.9,125 125,125 h 2866.9 c 69,0 125,-55.9 125,-125 0,-69 -56,-125 -125,-125"
           style="fill:#fffbe9;fill-opacity:1;fill-rule:nonzero;stroke:none"
           transform="matrix(0.13333333,0,0,-0.13333333,0,2666.6667)" />
        <path
           id="path51"
           d="M 15744.7,7249.6 V 7060 h -166.2 l -1200.8,1369.8 -166.2,189.6 -1083.7,1236.2 -119,135.7 c -45.5,51.9 -40.3,130.9 11.6,176.4 30.5,26.8 70.5,36 107.4,28.4 25.9,-5.2 50.3,-18.6 69,-40 L 14378,8808.6 14544.2,8619 15744.7,7249.6"
           style="fill:#fffbe9;fill-opacity:1;fill-rule:nonzero;stroke:none"
           transform="matrix(0.13333333,0,0,-0.13333333,0,2666.6667)" />
        <path
           id="path52"
           d="M 15833.6,10084 15744.7,9983 14544.2,8619 14377.7,8429.8 13172.1,7060 H 12885 c -1.3,30.9 8.9,62.4 31,87.5 l 211.8,240.6 1083.7,1231.3 166.5,189.2 1267.9,1440.6 c 25.9,29.4 62.5,43.7 98.8,42.3 27.7,-1 55.2,-11.2 77.7,-31 51.8,-45.7 56.8,-124.6 11.2,-176.5"
           style="fill:#fffbe9;fill-opacity:1;fill-rule:nonzero;stroke:none"
           transform="matrix(0.13333333,0,0,-0.13333333,0,2666.6667)" />
        <path
           id="path53"
           d="m 7043.9,7060 h -291.2 l -1200.8,1369.8 -166.2,189.6 -1128.2,1287 -74.4,84.9 c -45.5,51.9 -40.4,130.9 11.6,176.4 18.4,16.2 40.2,25.9 62.8,29.4 40.9,6.5 84.2,-7.5 113.6,-41 L 5552.3,8808.6 5718.5,8619 6874.4,7300.4 l 138.5,-158 c 20.8,-23.7 31,-53.2 31,-82.4"
           style="fill:#fffbe9;fill-opacity:1;fill-rule:nonzero;stroke:none"
           transform="matrix(0.13333333,0,0,-0.13333333,0,2666.6667)" />
        <path
           id="path54"
           d="M 7007.9,10084 6874.4,9932.3 5718.5,8619 5551.9,8429.8 4346.3,7060 h -88.8 v 277.5 l 1128.2,1281.9 166.6,189.2 1267.9,1440.6 c 15.1,17.2 33.9,29.2 54.2,35.9 40.8,13.7 87.6,5.9 122.2,-24.6 51.8,-45.7 56.9,-124.6 11.3,-176.5"
           style="fill:#fffbe9;fill-opacity:1;fill-rule:nonzero;stroke:none"
           transform="matrix(0.13333333,0,0,-0.13333333,0,2666.6667)" />
      </g>
    </g>
  </g>
</svg>
