<?xml version="1.0" encoding="UTF-8" standalone="no"?>
<!-- Created with Inkscape (http://www.inkscape.org/) -->

<svg
   width="115.94747mm"
   height="138.79546mm"
   viewBox="0 0 115.94747 138.79546"
   version="1.1"
   id="svg1"
   xmlns="http://www.w3.org/2000/svg"
   xmlns:svg="http://www.w3.org/2000/svg">
  <defs
     id="defs1">
    <clipPath
       id="SVGID_00000054261904813507136830000004844503045422642843_">
				<rect
   id="use60"
   width="750"
   height="500"
   x="0"
   y="0" />

			</clipPath>
  </defs>
  <g
     id="layer1"
     transform="translate(-21.267761,-43.66282)">
    <g
       id="g1">
      <ellipse
         style="fill:#123d22;fill-opacity:0.236182"
         cx="204.161"
         cy="430.022"
         rx="38.856998"
         ry="12.225"
         clip-path="url(#SVGID_00000054261904813507136830000004844503045422642843_)"
         id="ellipse369"
         transform="matrix(1.4258326,0,0,1.4258326,-209.28774,-448.11192)" />
      <g
         clip-path="url(#SVGID_00000054261904813507136830000004844503045422642843_)"
         id="g457"
         transform="matrix(1.4258326,0,0,1.4258326,-209.28774,-448.11192)">
				<path
   style="fill:#b84d29"
   d="m 233.712,380.472 c -0.898,0.144 -1.795,-0.039 -2.594,-0.505 -0.17,-0.098 -0.301,0.079 -0.243,0.223 -0.02,0.046 -0.033,0.092 -0.026,0.144 0.118,0.832 0.295,1.625 0.223,2.47 -0.026,0.367 -0.085,0.832 -0.21,1.186 -0.21,0.603 -0.373,0.773 -0.943,0.531 -1.35,-0.563 -2.293,-1.592 -2.955,-2.87 -0.066,-0.125 -0.229,-0.092 -0.295,0 -0.124,-0.236 -0.504,-0.21 -0.518,0.111 -0.059,1.409 -0.052,2.778 -0.229,4.173 -1.808,-0.793 -3.466,-1.697 -4.35,-3.544 0.007,-0.026 0.02,-0.052 0.026,-0.079 0.072,-0.262 -0.334,-0.452 -0.465,-0.19 -0.491,1.022 -0.871,2.11 -1.271,3.177 -1.906,-1.186 -1.782,-3.453 -1.92,-5.49 0.033,-0.052 0.066,-0.111 0.098,-0.164 0.124,-0.249 -0.183,-0.491 -0.387,-0.301 -1.094,1.029 -1.782,2.306 -3.21,2.961 -0.282,0.131 -0.989,0.465 -1.284,0.334 -0.419,-0.177 -0.197,-0.898 -0.151,-1.199 0.151,-0.937 0.544,-1.762 0.93,-2.621 0.059,-0.138 -0.085,-0.288 -0.21,-0.223 -0.052,-0.098 -0.164,-0.157 -0.288,-0.085 -0.74,0.446 -1.389,0.924 -2.241,1.147 -0.76,0.21 -2.365,0.419 -1.946,-0.865 0.341,-1.042 1.409,-1.658 1.848,-2.66 0.072,-0.026 0.144,-0.052 0.216,-0.085 0.275,-0.118 0.079,-0.609 -0.21,-0.491 -1.474,0.616 -2.974,0.839 -4.534,0.642 0.583,-0.485 1.186,-0.963 1.71,-1.507 0.105,-0.059 0.203,-0.111 0.301,-0.17 0.203,-0.125 0.079,-0.491 -0.17,-0.4 -0.95,0.347 -1.821,0.655 -2.857,0.681 -0.242,0.007 -0.531,0.007 -0.839,-0.026 -0.085,-0.144 -0.269,-0.236 -0.465,-0.144 -0.046,0.02 -0.092,0.039 -0.138,0.059 -0.721,-0.138 -1.422,-0.426 -1.717,-1.009 4.154,-0.904 7.351,-3.544 9.205,-7.41 2.424,-5.064 3.957,-12.893 11.112,-12.933 8.976,-0.046 6.696,11.688 6.683,17.204 -0.01,3.861 0.96,7.713 4.314,9.928 z m -2.555,-1.474 c 0.065,0.052 0.164,-0.033 0.098,-0.092 -0.603,-0.524 -0.904,-1.166 -1.101,-1.926 -0.026,-0.105 -0.21,-0.092 -0.197,0.026 0.087,0.799 0.578,1.507 1.2,1.992 z m -1.389,-0.413 c 0.092,0.085 0.236,-0.026 0.17,-0.131 -0.269,-0.459 -0.406,-0.904 -0.38,-1.441 0.007,-0.216 -0.314,-0.21 -0.334,0 -0.045,0.569 0.138,1.166 0.544,1.572 z m -5.182,-17.709 c 1.782,-0.118 3.014,-2.064 2.529,-3.734 -0.105,-0.36 -0.642,-0.21 -0.563,0.157 0.275,1.317 -0.662,2.843 -2.09,2.896 -1.481,0.059 -2.47,-1.487 -2.332,-2.83 0.026,-0.262 -0.393,-0.308 -0.459,-0.059 -0.479,1.788 1.028,3.701 2.915,3.57 z m -4.907,13.214 c 0.046,-0.183 -0.223,-0.255 -0.282,-0.079 -0.183,0.544 -0.314,1.101 -0.452,1.651 -0.033,0.138 0.164,0.19 0.21,0.059 0.183,-0.536 0.38,-1.08 0.524,-1.631 z m -0.701,0.013 c 0.046,-0.092 -0.092,-0.17 -0.138,-0.079 -0.308,0.609 -0.616,1.219 -0.924,1.835 -0.033,0.072 0.072,0.131 0.111,0.059 0.315,-0.602 0.636,-1.205 0.951,-1.815 z m -6.047,-7.744 c 0.013,-0.125 -0.197,-0.151 -0.216,-0.026 -0.092,0.596 -0.387,1.101 -0.878,1.454 -0.085,0.059 -0.013,0.197 0.079,0.144 0.569,-0.346 0.93,-0.916 1.015,-1.572 z m -2.339,2.372 c 0.74,-0.498 1.389,-1.454 1.369,-2.372 -0.007,-0.118 -0.17,-0.138 -0.21,-0.026 -0.131,0.426 -0.216,0.839 -0.439,1.238 -0.216,0.387 -0.504,0.714 -0.825,1.016 -0.072,0.072 0.02,0.197 0.105,0.144 z"
   id="path429" />

				<path
   style="fill:#1d1d1b"
   d="m 237.499,363.831 c 0.013,0.111 -0.026,0.197 -0.085,0.262 -0.007,0.033 -0.013,0.072 -0.039,0.105 -1.664,1.939 -4.534,2.549 -6.977,2.28 -0.393,5.123 -1.022,10.496 3.8,13.595 0.111,0.072 0.144,0.177 0.131,0.282 0.256,0.02 0.334,0.432 0.046,0.518 -0.996,0.295 -2.018,0.203 -2.902,-0.262 0.275,0.878 0.275,1.861 0.131,2.758 -0.085,0.55 -0.203,1.625 -0.819,1.893 -2.346,14.348 -12.271,29.829 -28.355,30.072 -0.38,1.579 -1.245,2.988 -2.784,3.42 0.183,1.199 0.295,2.417 0.472,3.623 0.164,-0.072 0.328,-0.144 0.491,-0.203 0.007,-0.026 0.02,-0.052 0.052,-0.072 2.378,-1.238 5.235,-1.14 7.698,-0.203 0.125,0.046 0.164,0.164 0.157,0.262 0.21,0.085 0.17,0.432 -0.092,0.452 -0.629,0.052 -1.192,0.183 -1.762,0.419 0.57,0.413 1.087,0.911 1.507,1.5 0.092,0.131 -0.02,0.282 -0.157,0.314 -0.039,0.131 -0.183,0.236 -0.347,0.164 -0.629,-0.301 -1.278,-0.459 -1.939,-0.609 0.662,0.675 1.114,1.546 1.153,2.483 0.144,0.19 -0.066,0.498 -0.321,0.36 -4.671,-2.555 -9.408,-2.522 -14.263,-0.452 -0.111,0.046 -0.197,-0.026 -0.223,-0.111 -0.21,0.085 -0.478,-0.131 -0.347,-0.393 1.016,-1.965 3.125,-3.479 5.346,-3.675 -0.013,-1.278 0.17,-2.634 0.413,-3.905 -1.559,-0.498 -2.817,-1.998 -2.922,-3.61 -7.495,-0.197 -14.8,-3.001 -20.697,-7.6 -5.353,-4.173 -11.97,-11.603 -11.439,-18.882 0.007,-0.052 0.026,-0.085 0.059,-0.111 -0.59,-1.206 -0.891,-2.549 -0.753,-3.793 0.013,-0.125 0.21,-0.177 0.236,-0.033 0.242,1.258 0.472,2.45 1.048,3.61 0.583,1.16 1.441,2.037 2.359,2.928 0.177,0.177 -0.052,0.485 -0.262,0.347 -0.937,-0.603 -1.756,-1.507 -2.358,-2.549 0.688,7.626 6.663,14.512 12.631,18.836 5.648,4.101 12.258,6.244 19.183,6.676 0.033,-0.295 0.105,-0.59 0.223,-0.878 0.046,-0.125 0.21,-0.105 0.223,0.033 0.229,2.215 0.858,4.534 3.584,4.612 2.581,0.079 3.348,-2.522 3.466,-4.599 0.026,-0.373 0.603,-0.38 0.59,0 -0.02,0.393 -0.059,0.793 -0.131,1.186 15.704,-1.723 25.04,-14.839 27.628,-29.6 -0.695,-0.157 -1.474,-0.767 -1.926,-1.16 -0.675,-0.59 -1.186,-1.337 -1.507,-2.169 0.157,1.494 -0.013,3.047 -0.229,4.521 -0.039,0.223 -0.301,0.255 -0.459,0.183 -1.775,-0.753 -3.879,-1.749 -4.652,-3.617 -0.308,0.95 -0.688,1.88 -1.035,2.811 -0.072,0.203 -0.269,0.288 -0.465,0.19 -0.269,-0.124 -0.504,-0.275 -0.721,-0.445 0.118,4.075 -1.933,11.701 -6.755,11.74 -1.173,1.376 -2.647,2.503 -4.324,3.25 -2.647,1.173 -6.663,1.848 -9.028,-0.216 -0.976,0.321 -1.985,0.524 -2.929,0.662 -1.363,0.197 -5.274,0.524 -5.844,-1.35 -0.013,-0.052 0,-0.111 0.033,-0.144 0.059,-0.052 0.111,-0.105 0.17,-0.157 0.02,-0.02 0.046,-0.033 0.072,-0.033 0.079,0 0.151,0.085 0.098,0.17 -0.812,1.441 6.25,0.852 6.539,0.786 2.26,-0.504 4.318,-1.271 5.687,-3.237 0.151,-0.216 0.491,-0.033 0.36,0.21 -0.806,1.467 -2.247,2.385 -3.833,2.961 2.843,1.834 7.135,0.74 9.768,-0.878 2.542,-1.566 4.029,-3.82 5.15,-6.499 0.111,-0.269 0.537,-0.177 0.452,0.124 -0.426,1.428 -1.127,2.745 -2.025,3.905 4.547,-1.061 5.805,-8.085 5.818,-11.852 0,-0.013 0.007,-0.02 0.007,-0.026 -0.989,-1.206 -1.225,-2.942 -1.055,-4.547 -1.009,1.382 -2.765,2.889 -4.357,2.771 -1.592,-0.118 -0.701,-2.575 0.052,-3.911 -0.649,0.518 -1.494,0.845 -2.28,1.009 -0.681,0.138 -1.71,0.334 -2.182,-0.334 -0.839,-1.192 0.681,-2.595 1.638,-3.603 -0.904,0.288 -1.834,0.406 -2.778,0.4 -4.711,3.053 -10.437,4.239 -15.875,5.248 -2.987,0.55 -5.995,1.022 -8.982,1.599 -1.022,0.203 -5.248,0.406 -4.108,2.732 0.655,1.35 4.711,1.022 6.021,0.924 0.151,-0.007 0.184,0.242 0.033,0.269 -1.094,0.183 -3.492,0.347 -5.241,-0.144 -1.782,0.557 -2.057,1.978 -0.819,4.265 0.583,0.544 1.245,0.897 1.985,1.068 0.878,0.269 1.815,0.295 2.725,0.242 2.077,-0.111 3.885,-0.845 5.661,-1.867 0.203,-0.118 0.36,0.17 0.184,0.301 -1.749,1.258 -4.363,2.228 -6.794,2.162 -2.575,2.378 1.494,4.737 3.053,5.182 1.428,0.406 2.968,0.341 4.409,0.033 2.372,-0.504 4.901,-1.533 6.473,-3.426 0.151,-0.184 0.446,0.052 0.321,0.242 -1.225,1.848 -3.617,3.125 -6.119,3.669 -1.972,0.432 -4.016,0.406 -5.628,-0.144 -2.096,-0.721 -5.254,-3.741 -2.974,-5.575 -1.133,-0.092 -2.208,-0.432 -3.119,-1.087 -1.775,-1.304 -2.188,-4.783 0.151,-5.228 -0.642,-0.255 -1.146,-0.616 -1.389,-1.14 -0.059,-0.125 -0.098,-0.249 -0.125,-0.36 -0.026,0 -0.052,0 -0.072,0 -0.02,-0.137 -0.079,-0.275 -0.183,-0.419 -0.02,-0.026 -0.039,-0.052 -0.059,-0.079 0.092,0.013 0.177,0.026 0.269,0.033 0.092,-0.963 1.35,-1.396 2.405,-1.684 4.553,-1.264 9.329,-1.762 13.962,-2.699 4.56,-0.93 8.786,-2.326 13.044,-4.147 -0.314,-0.033 -0.629,-0.065 -0.937,-0.131 -0.19,-0.033 -0.275,-0.321 -0.124,-0.445 0.413,-0.341 0.832,-0.694 1.271,-1.009 -0.839,0.21 -1.73,0.229 -2.581,0.105 -7.253,3.486 -15.141,6.001 -23.238,6.145 -3.217,0.059 -6.624,-0.17 -9.598,-1.513 -1.166,-0.531 -2.011,-1.323 -3.06,-1.992 -0.563,-0.819 -0.74,-0.898 -0.537,-0.229 0.072,0.446 0.183,0.885 0.341,1.304 0.498,1.448 1.409,2.621 2.47,3.682 0.157,0.157 -0.072,0.367 -0.229,0.236 -0.413,-0.328 -0.767,-0.675 -1.088,-1.029 -0.026,0 -0.046,0.007 -0.072,0.007 -1.369,-0.072 -2.437,-0.898 -3.361,-1.841 -0.026,-0.026 -0.059,-0.059 -0.085,-0.085 -0.046,-0.052 0.033,-0.124 0.079,-0.079 0.806,0.819 1.847,1.14 2.922,1.376 -1.042,-1.389 -1.579,-3.02 -1.69,-4.907 -0.013,-0.242 0.347,-0.413 0.505,-0.21 3.905,5.005 11.066,5.045 16.844,4.455 6.558,-0.668 12.776,-2.824 18.725,-5.562 -0.642,-0.216 -1.219,-0.596 -1.33,-1.278 -0.046,0.007 -0.085,0.02 -0.125,0.026 -0.255,0.046 -0.373,-0.328 -0.111,-0.393 3.748,-0.943 6.866,-3.118 8.753,-6.532 0.904,-1.645 1.481,-3.446 2.149,-5.202 -3.997,-0.386 -8.334,-2.247 -7.508,-7.115 0.747,-4.376 5.497,-6.25 9.343,-4.901 -0.17,-0.629 0.21,-1.474 0.504,-2.024 0.675,-1.264 1.867,-2.228 3.256,-2.588 2.293,-0.59 6.159,0.799 5.327,3.721 1.186,-1.094 3.177,-1.382 4.206,0.079 1.199,1.697 0.308,3.8 -0.74,5.327 1.323,1.101 2.247,2.673 2.804,4.37 3.518,-0.737 7.069,1.641 7.593,5.297 z m -6.381,16.136 c 0.799,0.465 1.697,0.649 2.594,0.505 -3.354,-2.215 -4.324,-6.067 -4.311,-9.926 0.013,-5.516 2.293,-17.25 -6.683,-17.204 -7.154,0.039 -8.688,7.868 -11.112,12.933 -1.854,3.866 -5.051,6.506 -9.205,7.41 0.295,0.583 0.996,0.871 1.717,1.009 0.046,-0.02 0.092,-0.039 0.138,-0.059 0.197,-0.092 0.38,0 0.465,0.144 0.308,0.033 0.596,0.033 0.839,0.026 1.035,-0.026 1.907,-0.334 2.857,-0.681 0.249,-0.092 0.374,0.275 0.17,0.4 -0.098,0.059 -0.197,0.111 -0.301,0.17 -0.524,0.544 -1.127,1.022 -1.71,1.507 1.559,0.197 3.06,-0.026 4.534,-0.642 0.288,-0.118 0.485,0.373 0.21,0.491 -0.072,0.033 -0.144,0.059 -0.216,0.085 -0.439,1.002 -1.507,1.618 -1.848,2.66 -0.419,1.284 1.186,1.074 1.946,0.865 0.852,-0.223 1.5,-0.701 2.241,-1.147 0.124,-0.072 0.236,-0.013 0.288,0.085 0.124,-0.065 0.269,0.085 0.21,0.223 -0.386,0.858 -0.78,1.684 -0.93,2.621 -0.046,0.301 -0.269,1.022 0.151,1.199 0.295,0.131 1.002,-0.203 1.284,-0.334 1.428,-0.655 2.116,-1.933 3.21,-2.961 0.203,-0.19 0.511,0.052 0.387,0.301 -0.033,0.052 -0.066,0.111 -0.098,0.164 0.138,2.038 0.013,4.304 1.92,5.49 0.4,-1.068 0.78,-2.155 1.271,-3.177 0.131,-0.262 0.537,-0.072 0.465,0.19 -0.007,0.026 -0.02,0.052 -0.026,0.079 0.884,1.848 2.542,2.752 4.35,3.544 0.177,-1.396 0.17,-2.765 0.229,-4.173 0.013,-0.321 0.393,-0.347 0.518,-0.111 0.066,-0.092 0.229,-0.125 0.295,0 0.662,1.277 1.605,2.306 2.955,2.87 0.57,0.242 0.734,0.072 0.943,-0.531 0.125,-0.354 0.184,-0.819 0.21,-1.186 0.072,-0.845 -0.105,-1.638 -0.223,-2.47 -0.007,-0.052 0.007,-0.098 0.026,-0.144 -0.061,-0.146 0.07,-0.323 0.24,-0.225 z m -0.668,-14.145 c 2.359,0.249 4.2,-0.465 6.165,-1.559 -2.018,-0.151 -4.062,-0.491 -6.06,-0.819 -0.007,0.773 -0.053,1.572 -0.105,2.378 z m 6.492,-1.86 c -0.747,-3.42 -3.525,-5.451 -6.932,-5.064 0.184,0.622 0.321,1.258 0.413,1.893 0.092,0.675 0.124,1.382 0.131,2.103 0.013,0 0.026,-0.007 0.039,0 2.117,0.288 4.279,0.57 6.349,1.068 z m -10.128,-10.024 c 0.596,-1.265 1.35,-2.601 0.937,-4.036 -0.57,-2.005 -2.47,-1.599 -3.852,-0.753 -0.17,0.098 -0.347,-0.046 -0.36,-0.203 -0.111,0.092 -0.295,0.007 -0.269,-0.17 0.406,-2.621 -2.811,-3.643 -4.796,-3.138 -0.786,0.203 -1.507,0.609 -2.07,1.179 -0.518,0.511 -1.834,2.26 -1.088,3.027 0.197,0.21 -0.059,0.544 -0.308,0.4 -0.039,-0.02 -0.059,-0.046 -0.092,-0.072 -3.597,-0.917 -8.091,0.033 -9.035,4.226 -1.061,4.737 3.374,6.276 7.05,6.709 0.308,-0.78 0.642,-1.546 1.042,-2.286 1.907,-3.512 5.412,-6.65 9.683,-6.139 1.225,0.142 2.273,0.594 3.158,1.256 z m -20.487,68.877 c 0.432,-0.301 0.93,-0.511 1.448,-0.609 -1.559,-0.498 -3.066,-0.583 -4.599,-0.393 1.113,0.065 2.201,0.412 3.151,1.002 z m -1.016,1.225 c 0.747,-0.079 1.481,0.105 2.175,0.38 -1.933,-2.005 -4.743,-2.634 -7.364,-1.625 -0.092,0.223 -0.432,0.275 -0.505,0.033 -0.007,-0.007 -0.007,-0.013 -0.007,-0.02 -0.007,-0.007 -0.007,-0.013 -0.013,-0.02 0,-0.026 -0.007,-0.052 -0.007,-0.072 0,-0.007 -0.007,-0.007 0,-0.013 -0.19,-1.278 -0.341,-2.581 -0.301,-3.879 -0.282,0.052 -0.583,0.072 -0.911,0.052 -0.177,-0.007 -0.36,-0.039 -0.537,-0.079 0.02,1.31 -0.033,2.693 -0.275,3.964 -0.033,0.17 -0.19,0.21 -0.321,0.164 -0.02,0.02 -0.033,0.039 -0.059,0.052 -2.077,0.629 -3.636,1.651 -4.861,3.426 4.245,-2.594 9.814,-2.359 14.047,0.151 -0.668,-1.736 -2.064,-2.85 -4.01,-2.902 -0.354,-0.013 -0.334,-0.498 0,-0.537 0.124,-0.013 0.255,-0.02 0.387,-0.02 0.911,10e-4 1.828,0.362 2.562,0.945 z"
   id="path430" />

				<path
   style="fill:#fbba00"
   d="m 236.615,364.263 c -1.965,1.094 -3.807,1.808 -6.165,1.559 0.052,-0.806 0.098,-1.605 0.105,-2.378 1.998,0.328 4.042,0.668 6.06,0.819 z"
   id="path431" />

				<path
   style="fill:#fbba00"
   d="m 230.011,358.897 c 3.407,-0.386 6.185,1.645 6.932,5.064 -2.07,-0.498 -4.232,-0.78 -6.348,-1.068 -0.013,-0.007 -0.026,0 -0.039,0 -0.007,-0.721 -0.039,-1.428 -0.131,-2.103 -0.093,-0.635 -0.231,-1.27 -0.414,-1.893 z"
   id="path432" />

				<path
   style="fill:#1d1d1b"
   d="m 231.256,378.906 c 0.066,0.059 -0.033,0.144 -0.098,0.092 -0.622,-0.485 -1.114,-1.192 -1.199,-1.992 -0.013,-0.118 0.17,-0.131 0.197,-0.026 0.195,0.76 0.497,1.402 1.1,1.926 z"
   id="path433" />

				<path
   style="fill:#1d1d1b"
   d="m 229.939,378.454 c 0.066,0.105 -0.079,0.216 -0.17,0.131 -0.406,-0.406 -0.59,-1.002 -0.544,-1.572 0.02,-0.21 0.341,-0.216 0.334,0 -0.026,0.537 0.111,0.982 0.38,1.441 z"
   id="path434" />

				<path
   style="fill:#fde9cc"
   d="m 228.222,384.121 c 0.452,0.393 1.232,1.002 1.926,1.16 -2.588,14.761 -11.924,27.877 -27.628,29.6 0.072,-0.393 0.111,-0.793 0.131,-1.186 0.013,-0.38 -0.563,-0.373 -0.59,0 -0.118,2.077 -0.884,4.678 -3.466,4.599 -2.725,-0.079 -3.354,-2.398 -3.584,-4.612 -0.013,-0.138 -0.177,-0.157 -0.223,-0.033 -0.118,0.288 -0.19,0.583 -0.223,0.878 -6.925,-0.432 -13.536,-2.575 -19.183,-6.676 -5.969,-4.324 -11.944,-11.21 -12.631,-18.836 0.603,1.042 1.422,1.946 2.358,2.549 0.21,0.138 0.439,-0.17 0.262,-0.347 -0.917,-0.891 -1.775,-1.769 -2.359,-2.928 -0.577,-1.16 -0.806,-2.352 -1.048,-3.61 l 0.131,-0.052 c 0.354,0.943 1.304,1.887 2.267,2.247 1.015,1.278 2.49,2.286 3.99,2.876 0.197,0.079 0.308,-0.229 0.138,-0.334 -2.568,-1.592 -5.602,-3.623 -4.861,-7.043 0.884,0.727 1.854,1.363 2.948,1.716 0.675,1.245 1.697,2.306 2.902,2.955 0.282,0.151 0.504,-0.242 0.249,-0.419 -2.267,-1.507 -3.309,-3.63 -3.492,-6.185 -0.105,-0.085 -0.203,-0.17 -0.301,-0.255 l 0.138,-0.131 c 0.924,0.943 1.992,1.769 3.361,1.841 0.026,0 0.046,-0.007 0.072,-0.007 0.321,0.354 0.675,0.701 1.088,1.029 0.157,0.131 0.387,-0.079 0.229,-0.236 -1.061,-1.061 -1.972,-2.234 -2.47,-3.682 -0.157,-0.419 -0.269,-0.858 -0.341,-1.304 -0.203,-0.668 -0.026,-0.59 0.537,0.229 1.048,0.668 1.893,1.461 3.06,1.992 2.974,1.343 6.381,1.572 9.598,1.513 8.098,-0.144 15.986,-2.66 23.238,-6.145 0.852,0.124 1.743,0.105 2.581,-0.105 -0.439,0.314 -0.858,0.668 -1.271,1.009 -0.151,0.125 -0.066,0.413 0.124,0.445 0.308,0.066 0.622,0.098 0.937,0.131 -4.258,1.821 -8.484,3.217 -13.044,4.147 -4.632,0.937 -9.408,1.435 -13.962,2.699 -1.055,0.288 -2.313,0.721 -2.405,1.684 -0.092,-0.007 -0.177,-0.02 -0.269,-0.033 0.02,0.026 0.039,0.052 0.059,0.079 0.105,0.144 0.164,0.282 0.183,0.419 0.02,0 0.046,0 0.072,0 0.026,0.111 0.066,0.236 0.125,0.36 0.242,0.524 0.747,0.884 1.389,1.14 -2.339,0.446 -1.926,3.924 -0.151,5.228 0.911,0.655 1.985,0.996 3.119,1.087 -2.28,1.835 0.878,4.855 2.974,5.575 1.612,0.55 3.656,0.577 5.628,0.144 l 0.013,0.052 c -0.026,0 -0.052,0.013 -0.072,0.033 -0.059,0.052 -0.111,0.105 -0.17,0.157 -0.033,0.033 -0.046,0.092 -0.033,0.144 0.57,1.874 4.481,1.546 5.844,1.35 0.943,-0.138 1.952,-0.341 2.929,-0.662 2.365,2.064 6.381,1.389 9.028,0.216 1.677,-0.747 3.151,-1.874 4.324,-3.25 4.822,-0.039 6.873,-7.665 6.755,-11.74 0.216,0.17 0.452,0.321 0.721,0.445 0.197,0.098 0.393,0.013 0.465,-0.19 0.347,-0.93 0.727,-1.861 1.035,-2.811 0.773,1.867 2.876,2.863 4.652,3.617 0.157,0.072 0.419,0.039 0.459,-0.183 0.216,-1.474 0.387,-3.027 0.229,-4.521 0.323,0.834 0.834,1.581 1.509,2.171 z m -1.723,10.561 c 0.013,-0.157 -0.229,-0.177 -0.275,-0.033 -0.328,1.074 -0.701,1.939 -1.507,2.752 -0.124,0.124 0.059,0.301 0.19,0.19 0.826,-0.714 1.507,-1.802 1.592,-2.909 z m -0.301,-0.662 c 0.013,-0.223 -0.295,-0.229 -0.367,-0.046 -0.151,0.38 -0.223,0.76 -0.426,1.127 -0.183,0.328 -0.426,0.603 -0.649,0.911 -0.066,0.085 0.059,0.203 0.151,0.144 0.649,-0.419 1.238,-1.356 1.291,-2.136 z m -29.201,9.173 c 0.223,-0.065 0.131,-0.387 -0.098,-0.347 -1.042,0.197 -2.011,0.269 -3.066,0.124 -0.144,-0.013 -0.17,0.223 -0.033,0.256 1.042,0.242 2.169,0.261 3.197,-0.033 z m -0.308,-0.904 c 0.229,-0.059 0.131,-0.406 -0.098,-0.354 -1.402,0.308 -2.647,0.242 -4.036,-0.111 -0.124,-0.033 -0.164,0.138 -0.052,0.183 1.304,0.55 2.817,0.622 4.186,0.282 z m -29.259,-4.973 c 0.17,0.059 0.288,-0.216 0.124,-0.295 -0.622,-0.288 -1.042,-0.812 -1.127,-1.5 -0.02,-0.157 -0.249,-0.17 -0.249,0 -0.006,0.786 0.511,1.526 1.252,1.795 z m -0.865,0.753 c 0.092,0.105 0.255,-0.033 0.19,-0.151 -0.524,-0.983 -1.061,-1.913 -1.507,-2.942 -0.052,-0.118 -0.242,-0.033 -0.21,0.092 0.289,1.049 0.813,2.176 1.527,3.001 z"
   id="path435" />

				<path
   style="fill:#e93842"
   d="m 227.75,349.902 c 0.413,1.435 -0.341,2.771 -0.937,4.036 -0.884,-0.662 -1.933,-1.114 -3.158,-1.258 -4.272,-0.511 -7.777,2.627 -9.683,6.139 -0.4,0.74 -0.734,1.507 -1.042,2.286 -3.675,-0.432 -8.111,-1.972 -7.05,-6.709 0.943,-4.193 5.438,-5.143 9.035,-4.226 0.033,0.026 0.052,0.052 0.092,0.072 0.249,0.144 0.505,-0.19 0.308,-0.4 -0.747,-0.767 0.57,-2.516 1.088,-3.027 0.563,-0.57 1.284,-0.976 2.07,-1.179 1.985,-0.505 5.202,0.517 4.796,3.138 -0.026,0.177 0.157,0.262 0.269,0.17 0.013,0.157 0.19,0.301 0.36,0.203 1.383,-0.844 3.282,-1.25 3.852,0.755 z m -18.855,8.51 c 0.157,0.059 0.223,-0.19 0.072,-0.249 -0.511,-0.19 -0.904,-0.524 -1.186,-0.983 -0.066,-0.105 -0.216,-0.013 -0.164,0.092 0.256,0.544 0.721,0.937 1.278,1.14 z m -1.002,0.151 c 0.118,0.052 0.262,-0.098 0.151,-0.19 -0.727,-0.57 -1.166,-1.238 -1.284,-2.162 -0.013,-0.138 -0.203,-0.144 -0.216,0 -0.047,0.93 0.49,1.946 1.349,2.352 z"
   id="path436" />

				<path
   style="fill:#1d1d1b"
   d="m 227.115,357.141 c 0.485,1.671 -0.747,3.617 -2.529,3.734 -1.887,0.131 -3.394,-1.782 -2.915,-3.571 0.065,-0.249 0.485,-0.203 0.459,0.059 -0.137,1.343 0.852,2.889 2.332,2.83 1.428,-0.052 2.365,-1.579 2.09,-2.896 -0.079,-0.365 0.458,-0.516 0.563,-0.156 z"
   id="path437" />

				<path
   style="fill:#1d1d1b"
   d="m 226.224,394.649 c 0.046,-0.144 0.288,-0.125 0.275,0.033 -0.085,1.107 -0.767,2.195 -1.592,2.909 -0.131,0.111 -0.314,-0.066 -0.19,-0.19 0.806,-0.812 1.179,-1.677 1.507,-2.752 z"
   id="path438" />

				<path
   style="fill:#1d1d1b"
   d="m 225.831,393.975 c 0.072,-0.184 0.38,-0.177 0.367,0.046 -0.052,0.78 -0.642,1.717 -1.291,2.136 -0.092,0.059 -0.216,-0.059 -0.151,-0.144 0.223,-0.308 0.465,-0.583 0.649,-0.911 0.203,-0.367 0.275,-0.747 0.426,-1.127 z"
   id="path439" />

				<path
   style="fill:#1d1d1b"
   d="m 219.397,374.012 c 0.059,-0.177 0.328,-0.105 0.282,0.079 -0.144,0.55 -0.341,1.094 -0.524,1.631 -0.046,0.131 -0.242,0.079 -0.21,-0.059 0.138,-0.551 0.269,-1.107 0.452,-1.651 z"
   id="path440" />

				<path
   style="fill:#1d1d1b"
   d="m 218.84,374.025 c 0.046,-0.092 0.184,-0.013 0.138,0.079 -0.314,0.609 -0.635,1.212 -0.95,1.815 -0.039,0.072 -0.144,0.013 -0.111,-0.059 0.307,-0.617 0.615,-1.226 0.923,-1.835 z"
   id="path441" />

				<path
   style="fill:#b17f4a"
   d="m 218.572,385.012 c 0,0.007 -0.007,0.013 -0.007,0.026 -0.013,3.767 -1.271,10.79 -5.818,11.852 0.898,-1.16 1.599,-2.477 2.025,-3.905 0.085,-0.301 -0.341,-0.393 -0.452,-0.124 -1.12,2.68 -2.607,4.933 -5.15,6.499 -2.634,1.618 -6.925,2.712 -9.768,0.878 1.585,-0.577 3.027,-1.494 3.833,-2.961 0.131,-0.242 -0.21,-0.426 -0.36,-0.21 -1.369,1.966 -3.426,2.732 -5.687,3.237 -0.288,0.065 -7.351,0.655 -6.539,-0.786 0.052,-0.085 -0.02,-0.17 -0.098,-0.17 l -0.013,-0.052 c 2.503,-0.544 4.894,-1.821 6.119,-3.669 0.124,-0.19 -0.17,-0.426 -0.321,-0.242 -1.572,1.893 -4.101,2.922 -6.473,3.426 -1.441,0.308 -2.981,0.373 -4.409,-0.033 -1.559,-0.445 -5.628,-2.804 -3.053,-5.182 2.431,0.065 5.045,-0.904 6.794,-2.162 0.177,-0.131 0.02,-0.419 -0.184,-0.301 -1.775,1.022 -3.584,1.756 -5.661,1.867 -0.911,0.052 -1.848,0.026 -2.725,-0.242 -0.74,-0.17 -1.402,-0.524 -1.985,-1.068 -1.238,-2.287 -0.963,-3.708 0.819,-4.265 1.749,0.491 4.147,0.327 5.241,0.144 0.151,-0.026 0.118,-0.275 -0.033,-0.269 -1.31,0.098 -5.366,0.426 -6.021,-0.924 -1.14,-2.326 3.086,-2.529 4.108,-2.732 2.988,-0.577 5.995,-1.048 8.982,-1.599 5.438,-1.009 11.164,-2.195 15.875,-5.248 0.943,0.007 1.874,-0.111 2.778,-0.4 -0.956,1.009 -2.477,2.411 -1.638,3.603 0.472,0.668 1.5,0.472 2.182,0.334 0.786,-0.164 1.631,-0.491 2.28,-1.009 -0.753,1.337 -1.645,3.793 -0.052,3.911 1.592,0.118 3.348,-1.389 4.357,-2.771 -0.171,1.605 0.064,3.341 1.054,4.547 z m -17.283,-3.282 c 0.137,-0.059 0.039,-0.282 -0.098,-0.236 -0.609,0.197 -1.199,0.465 -1.789,0.701 -0.124,0.046 -0.072,0.242 0.052,0.197 0.609,-0.217 1.245,-0.407 1.835,-0.662 z m -0.498,-0.669 c 0.124,-0.066 0.02,-0.249 -0.111,-0.19 -0.773,0.367 -1.553,0.596 -2.411,0.662 -0.105,0.007 -0.105,0.17 0,0.164 0.877,-0.039 1.735,-0.236 2.522,-0.636 z m -19.885,9.841 c 0.21,0 0.21,-0.314 0,-0.328 -0.478,-0.033 -0.819,-0.347 -0.924,-0.812 -0.02,-0.111 -0.183,-0.085 -0.19,0.026 -0.012,0.596 0.518,1.114 1.114,1.114 z m -0.655,0.603 c 0.105,0 0.164,-0.157 0.059,-0.203 -0.314,-0.138 -0.609,-0.249 -0.852,-0.505 -0.262,-0.275 -0.419,-0.635 -0.439,-1.016 -0.007,-0.137 -0.21,-0.137 -0.216,0 -0.026,0.78 0.59,1.75 1.448,1.724 z"
   id="path442" />

				<path
   style="fill:#1d1d1b"
   d="m 212.715,366.333 c 0.02,-0.125 0.229,-0.098 0.216,0.026 -0.085,0.655 -0.445,1.225 -1.016,1.572 -0.092,0.052 -0.164,-0.085 -0.079,-0.144 0.492,-0.353 0.787,-0.857 0.879,-1.454 z"
   id="path443" />

				<path
   style="fill:#1d1d1b"
   d="m 211.961,366.359 c 0.02,0.917 -0.629,1.874 -1.369,2.372 -0.085,0.052 -0.177,-0.072 -0.105,-0.144 0.321,-0.301 0.609,-0.629 0.825,-1.016 0.223,-0.4 0.308,-0.812 0.439,-1.238 0.04,-0.111 0.204,-0.091 0.21,0.026 z"
   id="path444" />

				<path
   style="fill:#1d1d1b"
   d="m 208.967,358.163 c 0.151,0.059 0.085,0.308 -0.072,0.249 -0.557,-0.203 -1.022,-0.596 -1.278,-1.14 -0.052,-0.105 0.098,-0.197 0.164,-0.092 0.282,0.459 0.675,0.793 1.186,0.983 z"
   id="path445" />

				<path
   style="fill:#1d1d1b"
   d="m 208.043,358.373 c 0.111,0.092 -0.033,0.242 -0.151,0.19 -0.858,-0.406 -1.396,-1.422 -1.35,-2.352 0.013,-0.144 0.203,-0.138 0.216,0 0.119,0.924 0.558,1.592 1.285,2.162 z"
   id="path446" />

				<path
   style="fill:#fbba00"
   d="m 207.775,422.206 c -0.518,0.098 -1.016,0.308 -1.448,0.609 -0.95,-0.59 -2.038,-0.937 -3.151,-1.002 1.532,-0.191 3.039,-0.105 4.599,0.393 z"
   id="path447" />

				<path
   style="fill:#fbba00"
   d="m 207.486,424.42 c -0.695,-0.275 -1.428,-0.459 -2.175,-0.38 -0.734,-0.583 -1.651,-0.943 -2.562,-0.943 -0.131,0 -0.262,0.007 -0.387,0.02 -0.334,0.039 -0.354,0.524 0,0.537 1.946,0.052 3.341,1.166 4.01,2.902 -4.232,-2.509 -9.801,-2.745 -14.047,-0.151 1.225,-1.775 2.785,-2.798 4.861,-3.426 0.026,-0.013 0.039,-0.033 0.059,-0.052 0.131,0.046 0.288,0.007 0.321,-0.164 0.242,-1.271 0.295,-2.653 0.275,-3.964 0.177,0.039 0.36,0.072 0.537,0.079 0.328,0.02 0.629,0 0.911,-0.052 -0.039,1.297 0.111,2.601 0.301,3.879 -0.007,0.007 0,0.007 0,0.013 0,0.02 0.007,0.046 0.007,0.072 0.007,0.007 0.007,0.013 0.013,0.02 0,0.007 0,0.013 0.007,0.02 0.072,0.242 0.413,0.19 0.505,-0.033 2.621,-1.011 5.432,-0.382 7.364,1.623 z"
   id="path448" />

				<path
   style="fill:#1d1d1b"
   d="m 201.19,381.494 c 0.138,-0.046 0.236,0.177 0.098,0.236 -0.59,0.255 -1.225,0.445 -1.835,0.662 -0.124,0.046 -0.177,-0.151 -0.052,-0.197 0.59,-0.236 1.18,-0.505 1.789,-0.701 z"
   id="path449" />

				<path
   style="fill:#1d1d1b"
   d="m 200.679,380.871 c 0.131,-0.059 0.236,0.124 0.111,0.19 -0.786,0.4 -1.644,0.596 -2.522,0.635 -0.105,0.007 -0.105,-0.157 0,-0.164 0.858,-0.065 1.638,-0.294 2.411,-0.661 z"
   id="path450" />

				<path
   style="fill:#1d1d1b"
   d="m 196.899,402.845 c 0.229,-0.039 0.321,0.282 0.098,0.347 -1.029,0.295 -2.155,0.275 -3.197,0.033 -0.138,-0.033 -0.111,-0.269 0.033,-0.256 1.055,0.145 2.024,0.073 3.066,-0.124 z"
   id="path451" />

				<path
   style="fill:#1d1d1b"
   d="m 196.591,401.935 c 0.229,-0.052 0.328,0.295 0.098,0.354 -1.369,0.341 -2.883,0.269 -4.186,-0.282 -0.111,-0.046 -0.072,-0.216 0.052,-0.183 1.389,0.353 2.634,0.419 4.036,0.111 z"
   id="path452" />

				<path
   style="fill:#1d1d1b"
   d="m 180.906,390.574 c 0.21,0.013 0.21,0.328 0,0.328 -0.596,0 -1.127,-0.518 -1.114,-1.114 0.007,-0.111 0.17,-0.138 0.19,-0.026 0.105,0.465 0.446,0.78 0.924,0.812 z"
   id="path453" />

				<path
   style="fill:#1d1d1b"
   d="m 180.31,391.302 c 0.105,0.046 0.046,0.203 -0.059,0.203 -0.858,0.026 -1.474,-0.943 -1.448,-1.723 0.007,-0.137 0.21,-0.137 0.216,0 0.02,0.38 0.177,0.74 0.439,1.016 0.243,0.254 0.538,0.366 0.852,0.504 z"
   id="path454" />

				<path
   style="fill:#1d1d1b"
   d="m 169.729,386.624 c 0.256,0.177 0.033,0.57 -0.249,0.419 -1.205,-0.649 -2.228,-1.71 -2.902,-2.955 -1.094,-0.354 -2.064,-0.989 -2.948,-1.716 -0.74,3.42 2.293,5.451 4.861,7.043 0.17,0.105 0.059,0.413 -0.138,0.334 -1.5,-0.59 -2.974,-1.599 -3.99,-2.876 -0.963,-0.36 -1.913,-1.304 -2.267,-2.247 0,-0.007 -0.007,-0.02 -0.007,-0.026 -0.033,-0.092 0.098,-0.164 0.157,-0.092 0.341,0.4 0.629,0.819 1.022,1.173 0.184,0.17 0.374,0.314 0.577,0.459 -0.753,-1.251 -1.068,-2.706 -0.609,-4.278 0.059,-0.183 0.275,-0.229 0.413,-0.111 0.852,0.74 1.749,1.277 2.686,1.841 -0.511,-1.127 -0.734,-2.372 -0.57,-3.584 0.046,0.065 0.105,0.125 0.17,0.177 0.098,0.085 0.197,0.17 0.301,0.255 0.185,2.554 1.227,4.677 3.493,6.184 z"
   id="path455" />

				<path
   style="fill:#1d1d1b"
   d="m 167.554,397.021 c 0.164,0.079 0.046,0.354 -0.124,0.295 -0.74,-0.269 -1.258,-1.009 -1.251,-1.795 0,-0.17 0.229,-0.157 0.249,0 0.085,0.688 0.504,1.212 1.126,1.5 z"
   id="path456" />

				<path
   style="fill:#1d1d1b"
   d="m 166.755,397.919 c 0.065,0.118 -0.098,0.256 -0.19,0.151 -0.714,-0.826 -1.238,-1.952 -1.527,-3.001 -0.033,-0.124 0.157,-0.21 0.21,-0.092 0.446,1.029 0.983,1.959 1.507,2.942 z"
   id="path457" />

			</g>
    </g>
  </g>
</svg>
