<?xml version="1.0" encoding="UTF-8" standalone="no"?>
<!-- Created with Inkscape (http://www.inkscape.org/) -->

<svg
   width="162.66423mm"
   height="174.56508mm"
   viewBox="0 0 162.66423 174.56508"
   version="1.1"
   id="svg1"
   xmlns="http://www.w3.org/2000/svg"
   xmlns:svg="http://www.w3.org/2000/svg">
  <defs
     id="defs1">
    <clipPath
       id="SVGID_00000054261904813507136830000004844503045422642843_">
				<rect
   id="use60"
   width="750"
   height="500"
   x="0"
   y="0" />

			</clipPath>
  </defs>
  <g
     id="layer1"
     transform="translate(-12.751931,-25.474676)">
    <ellipse
       style="fill:#164a29;fill-opacity:0.347207"
       cx="355.39801"
       cy="458.177"
       rx="38.856998"
       ry="12.225"
       clip-path="url(#SVGID_00000054261904813507136830000004844503045422642843_)"
       id="ellipse370"
       transform="matrix(1.653746,0,0,1.653746,-486.9297,-577.8857)" />
    <g
       clip-path="url(#SVGID_00000054261904813507136830000004844503045422642843_)"
       id="g428"
       transform="matrix(2.1436645,0,0,2.1436645,-661.04575,-802.35509)">
				<path
   style="fill:#b84d29"
   d="m 360.157,394.91 c 0.773,1.206 1.278,2.529 1.638,3.905 l -1.677,0.432 c 0,-0.066 0,-0.131 -0.007,-0.197 -0.033,-0.426 -0.695,-0.432 -0.668,0 0.059,1.088 -0.773,2.031 -1.88,2.044 -1.029,0.013 -1.762,-0.688 -2.306,-1.474 -0.105,-0.144 -0.373,-0.059 -0.308,0.131 0.282,0.832 0.989,1.52 1.828,1.808 l -1.69,0.596 c -0.694,-0.367 -1.526,-0.55 -2.313,-0.564 -1.14,-0.02 -2.516,0.197 -3.492,0.865 l -1.835,-0.072 c 0.662,-0.478 1.133,-1.258 1.081,-2.051 -0.02,-0.321 -0.452,-0.38 -0.557,-0.072 -0.295,0.858 -0.655,1.71 -1.638,1.946 -1.068,0.249 -1.979,-0.59 -2.201,-1.579 -0.046,-0.183 -0.301,-0.124 -0.315,0.046 l -1.396,-0.039 c 0.374,-3.053 1.199,-5.942 3.558,-8.229 0,-0.007 0.007,-0.013 0.007,-0.02 0.596,0.963 1.762,1.664 2.811,1.658 0.046,0 0.079,-0.026 0.092,-0.066 l 0.079,0.046 c -0.013,0.026 -0.033,0.059 -0.046,0.085 -0.098,0.19 0.164,0.341 0.288,0.164 3.098,-4.355 8.241,-3.569 10.947,0.637 z"
   id="path399" />

				<path
   style="fill:#b84d29"
   d="m 362.083,412.993 c 0.845,1.12 1.69,2.234 2.535,3.354 -1.834,-0.275 -3.282,-1.114 -4.763,-2.287 -0.164,-0.131 -0.354,0.059 -0.229,0.223 0.02,0.02 0.046,0.039 0.059,0.066 -0.223,-0.059 -0.498,0.177 -0.347,0.439 0.701,1.186 1.389,2.365 1.906,3.643 0.125,0.301 1.114,2.811 0.78,3.027 -0.432,0.275 -0.858,-0.288 -1.284,-0.603 -2.083,-1.553 -3.702,-3.531 -4.927,-5.824 -0.177,-0.334 -0.609,-0.085 -0.563,0.236 0.275,1.762 0.321,3.525 0.02,5.287 -0.197,1.146 -0.734,4.37 -1.985,4.566 -0.406,0.347 -0.655,0.295 -0.747,-0.164 -0.308,-0.557 -0.57,-1.133 -0.793,-1.736 -0.236,-0.616 -0.432,-1.258 -0.59,-1.9 -0.393,-1.572 -0.511,-3.184 -0.524,-4.802 0.007,-0.092 0.02,-0.177 0.026,-0.269 0.013,-0.387 -0.59,-0.387 -0.609,0 -0.046,1.343 -0.236,2.667 -0.675,3.938 -0.242,0.714 -1.762,4.363 -2.686,4.082 -1.35,-0.419 -1.304,-3.466 -1.16,-4.711 0.164,-1.409 0.603,-2.693 1.127,-4.009 0.124,-0.301 -0.347,-0.465 -0.511,-0.21 -1.146,1.769 -2.575,3.269 -4.376,4.396 -0.806,0.504 -1.998,1.599 -2.018,-0.524 -0.007,-1.12 1.605,-2.614 2.254,-3.348 0.203,-0.229 -0.052,-0.59 -0.334,-0.432 -0.898,0.491 -2.909,1.605 -4.18,1.31 5.117,-3.885 4.213,-10.286 4.933,-16.104 l 1.396,0.039 c -0.105,1.278 1.14,2.28 2.372,2.195 0.445,-0.033 0.884,-0.21 1.258,-0.485 l 1.835,0.072 c -0.57,0.387 -1.002,0.93 -1.179,1.664 -0.184,0.76 -0.013,1.468 0.524,2.031 0.098,0.105 0.203,0.21 0.314,0.314 0.066,2.097 1.9,3.82 4.016,3.649 1.9,-0.151 3.184,-1.821 2.942,-3.662 0.537,-0.406 0.898,-0.97 0.832,-1.887 -0.079,-1.146 -0.753,-1.933 -1.644,-2.411 l 1.69,-0.596 c 0.347,0.124 0.714,0.177 1.088,0.144 1.258,-0.118 2.254,-1.212 2.254,-2.457 l 1.677,-0.432 c 0.36,1.33 0.577,2.706 0.799,4.049 0.655,4.036 1.219,8.203 4.213,11.177 -1.572,-0.21 -2.955,-0.622 -4.331,-1.441 -0.231,-0.138 -0.572,0.15 -0.395,0.393 z m 0.865,-2.857 c 0.111,0.092 0.308,-0.02 0.216,-0.164 -0.563,-0.898 -0.983,-1.625 -0.93,-2.725 0.013,-0.203 -0.288,-0.197 -0.308,0 -0.099,0.996 0.19,2.247 1.022,2.889 z m -0.465,1.016 c 0.177,0.111 0.321,-0.157 0.157,-0.269 -0.681,-0.485 -1.133,-1.088 -1.435,-1.867 -0.046,-0.131 -0.242,-0.085 -0.21,0.059 0.19,0.839 0.76,1.618 1.488,2.077 z m -18.98,6.512 c 0.111,-0.138 -0.066,-0.334 -0.197,-0.203 -0.662,0.662 -1.337,1.166 -2.221,1.481 -0.105,0.033 -0.065,0.19 0.046,0.164 0.897,-0.21 1.795,-0.708 2.372,-1.442 z m -0.145,-0.793 c 0.125,-0.118 -0.033,-0.301 -0.177,-0.229 -0.557,0.295 -1.146,0.793 -1.546,1.284 -0.072,0.092 0.026,0.269 0.144,0.183 0.282,-0.197 0.537,-0.439 0.812,-0.649 0.256,-0.196 0.525,-0.373 0.767,-0.589 z"
   id="path400" />

				<path
   style="fill:#b17f4a"
   d="m 388.473,426.129 c 0.236,3.911 -1.841,7.194 -5.687,8.288 -0.419,0.118 -0.242,0.753 0.177,0.649 1.278,-0.321 2.411,-0.924 3.341,-1.736 -0.819,2.437 -4.16,3.754 -6.414,4.337 -1.016,0.262 -2.064,0.439 -3.099,0.55 -0.537,0.059 -1.081,0.098 -1.618,0.125 -0.537,-0.072 -1.022,0.039 -1.467,0.314 0.052,-0.151 0.007,-0.347 -0.177,-0.393 -0.033,-0.013 -0.065,-0.02 -0.092,-0.026 -0.033,-0.007 -0.066,0.007 -0.098,0.007 3.8,-6.27 3.282,-15.875 -1.782,-21.09 3.852,-1.147 7.58,-2.948 10.961,-5.091 0.518,-0.328 3.427,-3.001 3.754,-2.942 0.472,0.085 -1.52,3.381 -1.926,3.839 -0.826,0.93 -1.841,1.677 -2.771,2.496 -0.256,0.216 0.085,0.668 0.36,0.465 2.057,-1.487 3.905,-3.184 4.678,-5.471 l 0.013,0.007 c -0.013,0.033 -0.02,0.072 -0.007,0.118 0.832,3.859 -0.197,7.226 -3.079,9.919 -0.269,0.249 0.092,0.747 0.4,0.518 1.73,-1.271 2.915,-3.204 3.394,-5.294 1.559,1.33 2.195,3.027 2.195,4.783 0,3.079 -1.952,6.329 -4.337,8.091 -0.301,0.223 -0.039,0.708 0.301,0.511 1.139,-0.655 2.174,-1.716 2.98,-2.974 z m -2.254,-0.944 c 0.072,-0.17 -0.184,-0.255 -0.275,-0.118 -0.505,0.727 -0.878,1.605 -1.251,2.404 -0.059,0.138 0.124,0.255 0.21,0.118 0.464,-0.766 0.982,-1.572 1.316,-2.404 z m -0.707,-1.238 c 0,-0.197 -0.321,-0.249 -0.354,-0.046 -0.131,0.786 -0.328,1.435 -0.773,2.103 -0.098,0.144 0.131,0.328 0.242,0.19 0.511,-0.616 0.878,-1.435 0.885,-2.247 z"
   id="path401" />

				<path
   style="fill:#b17f4a"
   d="m 332.47,433.512 c 0.131,1.959 0.688,3.885 1.618,5.575 -3.092,0.315 -6.06,0.085 -9.009,-1.094 -3.669,-1.461 -8.445,-4.671 -7.895,-9.166 1.225,1.258 2.929,3.145 4.599,3.243 0.282,0.013 0.341,-0.439 0.065,-0.491 -1.585,-0.334 -3.505,-2.385 -4.632,-3.505 -1.553,-1.546 -1.605,-3.597 -2.162,-5.602 l 0.125,-0.079 c 1.127,1.88 3.217,3.217 5.254,3.826 0.262,0.079 0.439,-0.314 0.19,-0.445 -1.985,-1.002 -3.996,-1.874 -5.11,-3.944 -0.288,-0.531 -0.472,-1.114 -0.563,-1.71 -0.033,-0.242 -0.223,-1.638 0.065,-1.782 0.445,-0.223 2.201,0.911 2.863,1.219 1.12,1.513 2.83,2.608 4.665,3.119 0.341,0.092 0.459,-0.393 0.144,-0.511 -1.952,-0.727 -3.741,-1.776 -4.796,-3.643 -0.537,-0.957 -0.812,-2.103 -0.78,-3.197 0.072,-2.064 1.704,-1.114 2.889,-0.57 0.871,1.762 2.385,3.256 4.16,3.911 0.301,0.111 0.491,-0.36 0.216,-0.518 -2.843,-1.612 -4.331,-3.833 -4.776,-7.056 0.013,0.013 0.02,0.026 0.033,0.039 5.123,3.865 10.758,7.796 17.303,8.452 -2.855,4.076 -4.8,8.963 -4.466,13.929 z m -1.723,-11.196 c 0.19,0.046 0.269,-0.242 0.079,-0.288 -0.655,-0.157 -1.317,-0.301 -1.979,-0.432 -0.138,-0.02 -0.19,0.17 -0.059,0.203 0.648,0.189 1.303,0.359 1.959,0.517 z m -0.741,0.609 c 0.151,-0.033 0.111,-0.262 -0.033,-0.262 -0.76,-0.02 -1.304,-0.151 -1.939,-0.577 -0.105,-0.065 -0.216,0.085 -0.131,0.17 0.518,0.512 1.383,0.807 2.103,0.669 z"
   id="path402" />

				<path
   style="fill:#1d1d1b"
   d="m 387.523,415.469 c 3.544,2.247 3.184,6.918 1.16,10.325 0.033,0.013 0.059,0.039 0.065,0.085 0.635,2.732 -0.295,5.385 -2.155,7.181 0.013,0.013 0.026,0.039 0.02,0.065 -0.184,2.437 -2.968,3.918 -5.025,4.711 -1.998,0.78 -6.381,2.031 -8.432,1.068 -0.065,-0.033 -0.105,-0.098 -0.131,-0.164 -1.422,2.149 -3.381,3.859 -5.87,4.789 0,0.02 0.013,0.039 0.007,0.066 -0.079,2.26 -1.52,3.42 -3.302,3.774 0.131,1.304 0.138,2.667 0.098,3.983 1.756,-1.861 5.208,-1.133 5.392,1.743 0.007,0.052 -0.02,0.092 -0.052,0.111 0.256,0.472 0.393,1.002 0.347,1.54 -0.007,0.098 -0.085,0.144 -0.157,0.144 0.072,0.098 0.138,0.203 0.197,0.308 0.046,0.092 -0.059,0.236 -0.164,0.164 -0.046,-0.039 -0.092,-0.079 -0.144,-0.118 0.052,0.17 -0.125,0.373 -0.328,0.269 -3.394,-1.769 -7.246,-1.716 -10.463,0.426 -0.183,0.118 -0.485,-0.085 -0.393,-0.301 0.721,-1.749 2.07,-3.197 3.964,-3.531 -0.111,-1.533 -0.36,-3.053 -0.478,-4.586 0,-0.033 0.013,-0.059 0.033,-0.079 -1.186,-0.144 -2.346,-0.557 -3.243,-1.179 -0.046,-0.033 -0.059,-0.085 -0.059,-0.131 -3.335,0.59 -6.742,0.518 -10.044,-0.229 -0.007,0.007 -0.007,0.02 -0.02,0.026 -0.799,0.767 -1.769,1.232 -2.778,1.441 0.301,1.487 0.472,3.033 0.596,4.54 2.142,0.301 3.682,1.985 4.429,3.944 0.085,0.229 -0.203,0.4 -0.393,0.301 -3.42,-1.795 -7.299,-2.031 -10.057,1.055 -0.105,0.118 -0.288,0.02 -0.301,-0.111 -0.013,-0.007 -0.033,-0.013 -0.046,-0.026 -0.334,-0.367 -0.406,-0.858 -0.328,-1.33 -0.026,0 -0.046,0.007 -0.066,-0.007 -0.93,-0.432 -0.544,-1.664 -0.02,-2.273 0.125,-0.138 0.262,-0.269 0.406,-0.387 -0.052,0 -0.105,-0.026 -0.124,-0.085 -0.301,-1.153 0.93,-1.834 1.913,-1.939 0.839,-0.085 1.762,0.157 2.463,0.675 -0.059,-0.334 -0.079,-0.688 -0.098,-1.042 -0.079,-1.068 -0.164,-2.149 -0.164,-3.23 -1.952,-0.183 -3.813,-1.291 -4.73,-3.21 -0.072,-0.157 0.085,-0.275 0.203,-0.21 0.026,0.007 0.046,0.026 0.066,0.052 2.129,3.001 5.398,3.571 8.366,1.638 -0.354,-0.085 -0.708,-0.177 -1.061,-0.282 -0.164,-0.046 -0.092,-0.295 0.072,-0.255 0.465,0.111 0.924,0.203 1.382,0.295 0.092,-0.039 0.177,-0.013 0.242,0.046 3.702,0.688 7.298,0.681 11.079,-0.013 0.262,-0.052 0.373,0.341 0.111,0.4 -0.255,0.059 -0.504,0.098 -0.753,0.144 1.546,0.531 3.086,1.206 4.77,0.845 1.559,-0.334 2.843,-1.533 2.981,-3.158 -0.478,0.151 -0.97,0.275 -1.481,0.367 -0.065,0.006 -0.085,-0.072 -0.026,-0.098 6.519,-2.653 9.821,-8.294 10.109,-15.246 0.197,-4.639 -1.114,-8.629 -4.18,-11.452 -0.065,-0.013 -0.111,-0.059 -0.131,-0.118 -1.022,-0.911 -2.221,-1.697 -3.623,-2.332 -0.125,-0.059 -0.151,-0.177 -0.131,-0.288 -0.02,0.007 -0.033,0.013 -0.059,0.013 -1.277,-0.046 -2.496,-0.367 -3.643,-0.891 0.721,0.957 1.448,1.913 2.169,2.863 0.131,0.177 -0.039,0.459 -0.249,0.439 -1.946,-0.183 -3.944,-0.93 -5.307,-2.372 1.422,2.404 2.667,4.783 2.686,7.639 0,0.236 -0.262,0.387 -0.459,0.269 -2.549,-1.507 -4.606,-3.499 -6.165,-5.949 0.151,1.9 0.026,3.793 -0.485,5.654 -0.255,0.943 -0.93,3.951 -2.123,4.147 -1.107,0.183 -1.651,-1.527 -1.966,-2.267 -0.688,-1.618 -1.088,-3.322 -1.192,-5.045 -0.563,2.306 -1.697,4.376 -3.42,6.198 -0.138,0.144 -0.341,0.085 -0.446,-0.059 -1.821,-2.503 -1.73,-5.281 -0.904,-8.019 -1.559,1.952 -3.767,3.957 -6.047,4.154 -0.085,0.013 -0.203,-0.052 -0.242,-0.138 -0.721,-1.559 0.387,-3.309 1.494,-4.665 -0.472,0.216 -0.989,0.419 -1.5,0.55 -0.485,0.793 -0.983,1.572 -1.467,2.365 -0.007,0.059 -0.039,0.105 -0.092,0.138 -2.051,3.335 -3.911,6.709 -4.416,10.725 -0.393,3.151 0.138,6.185 1.579,8.681 0.026,0 0.059,-0.007 0.085,-0.007 0.249,-0.033 0.328,0.315 0.177,0.452 1.245,1.959 3.073,3.544 5.497,4.534 0.249,0.105 0.157,0.511 -0.118,0.426 -0.4,-0.125 -0.78,-0.269 -1.153,-0.432 -2.077,-0.917 -3.728,-2.47 -4.888,-4.363 -4.226,0.747 -8.655,-0.131 -12.31,-2.385 -2.817,-1.736 -6.519,-4.999 -5.13,-8.648 -0.039,-0.039 -0.079,-0.085 -0.124,-0.125 -1.612,-1.585 -1.762,-3.8 -1.972,-5.962 -0.013,-0.125 0.177,-0.138 0.203,-0.026 0.557,2.005 0.609,4.056 2.162,5.602 1.127,1.12 3.047,3.171 4.632,3.505 0.275,0.052 0.216,0.504 -0.065,0.491 -1.671,-0.098 -3.374,-1.985 -4.599,-3.243 -0.55,4.494 4.226,7.705 7.895,9.166 2.948,1.179 5.916,1.409 9.009,1.094 -0.93,-1.69 -1.487,-3.616 -1.618,-5.575 -0.334,-4.966 1.612,-9.854 4.468,-13.929 -6.545,-0.655 -12.179,-4.586 -17.303,-8.452 -0.013,-0.013 -0.02,-0.026 -0.033,-0.039 0.446,3.223 1.933,5.444 4.776,7.056 0.275,0.157 0.085,0.629 -0.216,0.518 -1.776,-0.655 -3.289,-2.149 -4.16,-3.911 -1.186,-0.544 -2.817,-1.494 -2.889,0.57 -0.033,1.094 0.242,2.241 0.78,3.197 1.055,1.867 2.843,2.915 4.796,3.643 0.314,0.118 0.197,0.603 -0.144,0.511 -1.834,-0.511 -3.544,-1.605 -4.665,-3.119 -0.662,-0.308 -2.418,-1.441 -2.863,-1.219 -0.288,0.144 -0.098,1.54 -0.065,1.782 0.092,0.596 0.275,1.179 0.563,1.71 1.114,2.07 3.125,2.942 5.11,3.944 0.249,0.131 0.072,0.524 -0.19,0.445 -2.038,-0.609 -4.128,-1.946 -5.254,-3.826 -0.4,-0.655 -0.675,-1.382 -0.786,-2.162 -0.079,-0.55 -0.236,-2.064 0.4,-2.431 0.603,-0.354 1.972,0.675 2.778,1.304 -0.485,-0.773 -0.826,-1.645 -0.963,-2.588 -0.105,-0.714 -0.282,-2.994 0.609,-3.42 0.622,-0.295 1.703,0.419 2.483,0.963 -0.38,-0.983 -0.55,-2.031 -0.459,-3.053 0.02,-0.157 0.164,-0.19 0.262,-0.125 -0.013,-0.242 0.21,-0.478 0.459,-0.308 5.398,3.807 10.66,7.397 17.264,8.609 0.498,-0.694 1.022,-1.363 1.566,-1.998 -0.681,0.124 -1.33,0.085 -1.802,-0.269 -0.105,-0.085 -0.079,-0.216 0.007,-0.275 -0.052,-0.111 -0.052,-0.242 0.059,-0.328 7.665,-6.126 0.694,-18.436 8.694,-24.202 0.026,-0.013 0.052,-0.026 0.072,-0.026 -0.19,-0.419 -0.275,-0.871 -0.196,-1.33 0.288,-1.664 2.149,-1.697 3.426,-1.14 -0.884,-1.376 0.583,-2.896 1.952,-3.289 1.448,-0.406 3.721,-0.033 4.213,1.54 1.238,-0.799 3.191,-0.432 4.2,0.557 1.284,1.264 1.271,3.381 0.203,4.763 0.157,0.17 0.321,0.341 0.472,0.524 4.75,5.949 2.025,14.636 7.515,20.31 0.144,0.144 0.092,0.321 -0.033,0.413 1.415,0.583 2.64,1.409 3.689,2.411 5.3,-2.273 11.197,-4.553 15.128,-8.923 0.21,-0.229 0.609,-0.046 0.609,0.249 -0.007,0.819 -0.144,1.579 -0.387,2.28 -0.773,2.286 -2.621,3.983 -4.678,5.471 -0.275,0.203 -0.616,-0.249 -0.36,-0.465 0.93,-0.819 1.946,-1.566 2.771,-2.496 0.406,-0.459 2.398,-3.754 1.926,-3.839 -0.328,-0.059 -3.236,2.614 -3.754,2.942 -3.381,2.142 -7.108,3.944 -10.961,5.091 5.064,5.215 5.582,14.82 1.782,21.09 0.033,0 0.065,-0.013 0.098,-0.007 0.026,0.007 0.059,0.013 0.092,0.026 0.183,0.046 0.229,0.242 0.177,0.393 0.445,-0.275 0.93,-0.387 1.467,-0.314 0.537,-0.026 1.081,-0.066 1.618,-0.125 1.035,-0.111 2.083,-0.288 3.099,-0.55 2.254,-0.583 5.595,-1.9 6.414,-4.337 -0.93,0.812 -2.064,1.415 -3.341,1.736 -0.419,0.105 -0.596,-0.531 -0.177,-0.649 3.846,-1.094 5.923,-4.376 5.687,-8.288 -0.806,1.258 -1.841,2.319 -2.981,2.974 -0.341,0.197 -0.603,-0.288 -0.301,-0.511 2.385,-1.762 4.337,-5.012 4.337,-8.091 0,-1.756 -0.635,-3.453 -2.195,-4.783 -0.478,2.09 -1.664,4.023 -3.394,5.294 -0.308,0.229 -0.668,-0.269 -0.4,-0.518 2.883,-2.693 3.911,-6.06 3.079,-9.919 -0.013,-0.046 -0.007,-0.085 0.007,-0.118 0.059,-0.125 0.262,-0.138 0.327,0.026 0.655,1.572 0.767,3.322 0.432,4.986 0.043,-0.02 0.089,-0.034 0.135,-0.001 z m -18.816,36.964 c 0.052,0.052 0.105,0.111 0.151,0.17 -0.871,-1.992 -3.453,-2.64 -4.842,-0.563 -0.052,0.079 -0.131,0.111 -0.203,0.105 -0.131,0.065 -0.314,0 -0.321,-0.184 -0.065,-1.487 -0.079,-3.06 0.072,-4.547 -0.531,0.079 -1.081,0.092 -1.638,0.039 0.007,0.013 0.02,0.02 0.026,0.033 0.452,1.474 0.609,3.099 0.721,4.632 0.013,0.216 -0.19,0.288 -0.341,0.229 -1.369,0.688 -2.437,1.422 -3.21,2.66 3.132,-1.651 6.833,-1.743 9.978,0.013 -0.321,-0.269 -0.642,-0.544 -1.009,-0.76 -0.583,-0.347 -1.186,-0.531 -1.828,-0.74 -0.249,-0.079 -0.216,-0.511 0.066,-0.478 1.048,0.138 2.28,0.76 3.001,1.638 -0.092,-0.747 -0.4,-1.402 -0.963,-1.907 -0.59,-0.531 -1.186,-0.59 -1.92,-0.78 -0.19,-0.046 -0.184,-0.328 0,-0.38 0.779,-0.208 1.709,0.296 2.26,0.82 z m -4.089,-36.086 c -0.845,-1.12 -1.69,-2.234 -2.535,-3.354 -0.177,-0.242 0.164,-0.531 0.393,-0.393 1.376,0.819 2.758,1.232 4.331,1.441 -2.994,-2.974 -3.557,-7.141 -4.213,-11.177 -0.223,-1.343 -0.439,-2.719 -0.799,-4.049 -0.36,-1.376 -0.865,-2.699 -1.638,-3.905 -2.706,-4.206 -7.849,-4.992 -10.948,-0.635 -0.124,0.177 -0.387,0.026 -0.288,-0.164 0.013,-0.026 0.033,-0.059 0.046,-0.085 2.201,-4.186 7.036,-4.18 10.207,-1.278 0.826,-1.153 0.852,-2.837 -0.203,-3.885 -1.088,-1.081 -2.411,-0.897 -3.662,-0.413 0,0.046 0.007,0.085 0.007,0.131 -0.007,0.288 -0.413,0.341 -0.498,0.066 0,-0.007 0,-0.007 0,-0.013 -0.131,0.007 -0.275,-0.111 -0.177,-0.242 0.02,-0.02 0.039,-0.039 0.052,-0.059 -0.531,-1.304 -1.762,-1.769 -3.197,-1.487 -1.369,0.269 -2.712,1.369 -1.972,2.876 0.026,0.052 0.013,0.105 -0.013,0.151 0.144,0.183 -0.02,0.531 -0.282,0.432 -1.088,-0.419 -3.315,-0.93 -3.02,1.074 0.223,1.54 1.723,1.631 2.66,2.496 0.033,0.026 0.033,0.072 0.02,0.105 -0.013,0.039 -0.046,0.066 -0.092,0.066 -1.048,0.007 -2.214,-0.694 -2.811,-1.658 0,0.007 -0.007,0.013 -0.007,0.02 -2.359,2.286 -3.184,5.176 -3.558,8.229 -0.721,5.818 0.184,12.219 -4.933,16.104 1.271,0.295 3.282,-0.819 4.18,-1.31 0.282,-0.157 0.537,0.203 0.334,0.432 -0.649,0.734 -2.26,2.228 -2.254,3.348 0.02,2.123 1.212,1.029 2.018,0.524 1.802,-1.127 3.23,-2.627 4.376,-4.396 0.164,-0.255 0.635,-0.092 0.511,0.21 -0.524,1.317 -0.963,2.601 -1.127,4.009 -0.144,1.245 -0.19,4.291 1.16,4.711 0.924,0.282 2.444,-3.368 2.686,-4.082 0.439,-1.271 0.629,-2.594 0.675,-3.938 0.02,-0.387 0.622,-0.387 0.609,0 -0.007,0.092 -0.02,0.177 -0.026,0.269 0.013,1.618 0.131,3.23 0.524,4.802 0.157,0.642 0.354,1.284 0.59,1.9 0.223,0.603 0.485,1.179 0.793,1.736 0.092,0.459 0.341,0.511 0.747,0.164 1.251,-0.197 1.789,-3.42 1.985,-4.566 0.301,-1.762 0.256,-3.525 -0.02,-5.287 -0.046,-0.321 0.386,-0.57 0.563,-0.236 1.225,2.293 2.843,4.272 4.927,5.824 0.426,0.314 0.852,0.878 1.284,0.603 0.334,-0.216 -0.655,-2.725 -0.78,-3.027 -0.518,-1.278 -1.206,-2.457 -1.906,-3.643 -0.151,-0.262 0.124,-0.498 0.347,-0.439 -0.013,-0.026 -0.039,-0.046 -0.059,-0.066 -0.125,-0.164 0.065,-0.354 0.229,-0.223 1.482,1.173 2.93,2.012 4.764,2.287 z m -14.819,39.022 c -0.793,-1.566 -2.077,-2.477 -3.682,-3.25 -0.111,0.111 -0.367,0.059 -0.393,-0.151 -0.17,-1.507 -0.36,-3.027 -0.465,-4.54 -0.38,0.059 -0.767,0.065 -1.147,0.052 0.105,0.721 0.17,1.448 0.236,2.175 0.085,0.956 0.039,2.024 0.531,2.883 0.151,0.269 -0.21,0.472 -0.4,0.262 0,0 -0.007,0 -0.013,-0.007 -0.563,-0.577 -1.107,-1.048 -1.926,-1.225 -1.002,-0.216 -2.634,0.052 -2.627,1.389 0,0.013 -0.013,0.02 -0.013,0.033 0.767,-0.603 1.776,-0.904 2.739,-0.767 0.236,0.033 0.17,0.406 -0.052,0.406 -0.839,-0.007 -1.599,0.144 -2.293,0.629 -0.557,0.393 -1.605,1.585 -0.773,2.228 0.085,-0.308 0.229,-0.603 0.413,-0.839 0.609,-0.799 1.684,-1.225 2.653,-1.33 0.249,-0.026 0.275,0.36 0.052,0.426 -0.767,0.229 -1.52,0.393 -2.129,0.963 -0.635,0.596 -0.727,1.35 -0.544,2.149 2.364,-3.203 6.518,-2.98 9.833,-1.486 z"
   id="path403" />

				<path
   style="fill:#1d1d1b"
   d="m 385.944,425.067 c 0.092,-0.138 0.347,-0.053 0.275,0.118 -0.334,0.832 -0.852,1.638 -1.317,2.404 -0.085,0.138 -0.269,0.02 -0.21,-0.118 0.374,-0.799 0.747,-1.676 1.252,-2.404 z"
   id="path404" />

				<path
   style="fill:#1d1d1b"
   d="m 385.158,423.901 c 0.033,-0.203 0.354,-0.151 0.354,0.046 -0.007,0.812 -0.373,1.631 -0.885,2.247 -0.111,0.138 -0.341,-0.046 -0.242,-0.19 0.445,-0.668 0.642,-1.317 0.773,-2.103 z"
   id="path405" />

				<path
   style="fill:#fde9cc"
   d="m 370.928,417.317 c 3.066,2.824 4.376,6.814 4.18,11.452 -0.288,6.951 -3.59,12.592 -10.109,15.246 -0.059,0.026 -0.039,0.105 0.026,0.098 0.511,-0.092 1.002,-0.216 1.481,-0.367 -0.138,1.625 -1.422,2.824 -2.981,3.158 -1.684,0.36 -3.223,-0.315 -4.77,-0.845 0.249,-0.046 0.498,-0.085 0.753,-0.144 0.262,-0.059 0.151,-0.452 -0.111,-0.4 -3.78,0.695 -7.377,0.701 -11.079,0.013 -0.065,-0.059 -0.151,-0.085 -0.242,-0.046 -0.459,-0.092 -0.917,-0.184 -1.382,-0.295 -0.164,-0.039 -0.236,0.21 -0.072,0.255 0.354,0.105 0.708,0.197 1.061,0.282 -2.968,1.933 -6.237,1.363 -8.366,-1.638 -0.02,-0.026 -0.039,-0.046 -0.066,-0.052 l 0.026,-0.052 c 0.374,0.164 0.753,0.308 1.153,0.432 0.275,0.085 0.367,-0.321 0.118,-0.426 -2.424,-0.989 -4.252,-2.575 -5.497,-4.534 0.151,-0.138 0.072,-0.485 -0.177,-0.452 -0.026,0 -0.059,0.007 -0.085,0.007 -1.441,-2.496 -1.972,-5.53 -1.579,-8.681 0.504,-4.016 2.365,-7.39 4.416,-10.725 0.052,-0.033 0.085,-0.079 0.092,-0.138 0.485,-0.793 0.983,-1.572 1.467,-2.365 0.511,-0.131 1.029,-0.334 1.5,-0.55 -1.107,1.356 -2.214,3.105 -1.494,4.665 0.039,0.085 0.157,0.151 0.242,0.138 2.28,-0.197 4.488,-2.201 6.047,-4.154 -0.826,2.738 -0.917,5.516 0.904,8.019 0.105,0.144 0.308,0.203 0.446,0.059 1.723,-1.821 2.857,-3.892 3.42,-6.198 0.105,1.723 0.504,3.427 1.192,5.045 0.315,0.74 0.858,2.45 1.966,2.267 1.192,-0.197 1.867,-3.204 2.123,-4.147 0.511,-1.861 0.635,-3.754 0.485,-5.654 1.559,2.45 3.617,4.442 6.165,5.949 0.197,0.118 0.459,-0.033 0.459,-0.269 -0.02,-2.857 -1.264,-5.235 -2.686,-7.639 1.363,1.441 3.361,2.188 5.307,2.372 0.21,0.02 0.38,-0.262 0.249,-0.439 -0.721,-0.95 -1.448,-1.907 -2.169,-2.863 1.147,0.524 2.365,0.845 3.643,0.891 0.026,0 0.039,-0.007 0.059,-0.013 -0.02,0.111 0.007,0.229 0.131,0.288 1.402,0.636 2.601,1.422 3.623,2.332 0.019,0.059 0.065,0.105 0.131,0.118 z m 0.615,7.521 c 0.085,-0.328 -0.4,-0.452 -0.511,-0.138 -0.504,1.448 -2.188,0.459 -2.994,-0.059 -0.013,-0.013 -0.026,-0.007 -0.039,-0.007 -0.007,-0.026 -0.007,-0.059 -0.007,-0.085 -0.046,-0.242 -0.406,-0.17 -0.419,0.059 -0.039,0.577 -0.216,1.14 -0.806,1.382 -0.57,0.223 -1.186,0.013 -1.579,-0.426 -0.105,-0.118 -0.308,0.039 -0.216,0.164 0.445,0.603 1.225,0.891 1.946,0.629 0.55,-0.203 0.97,-0.721 1.068,-1.291 0.616,0.478 1.343,0.93 2.149,0.852 0.642,-0.051 1.238,-0.438 1.408,-1.08 z m -2.908,16.163 c 0.138,-0.144 -0.046,-0.4 -0.223,-0.282 -0.308,0.203 -0.583,0.452 -0.891,0.668 -0.301,0.216 -0.622,0.406 -0.937,0.603 -0.157,0.098 -0.02,0.314 0.138,0.242 0.668,-0.294 1.402,-0.707 1.913,-1.231 z m -0.636,-1.048 c 0.144,-0.242 -0.203,-0.426 -0.36,-0.216 -0.374,0.491 -0.74,0.885 -1.232,1.258 -0.151,0.125 -0.026,0.367 0.157,0.269 0.57,-0.283 1.107,-0.768 1.435,-1.311 z m -16.549,-6.749 c 0.144,-0.223 -0.17,-0.426 -0.354,-0.269 -0.367,0.321 -0.708,0.727 -1.232,0.76 -0.491,0.033 -0.911,-0.308 -0.983,-0.786 -0.02,-0.151 -0.203,-0.098 -0.242,0.013 -0.111,-0.085 -0.315,-0.085 -0.413,0.059 -0.694,1.048 -1.769,1.966 -3.132,1.658 -0.609,-0.138 -1.166,-0.531 -1.513,-1.048 -0.216,-0.321 -0.557,-1.133 -0.452,-1.716 0.105,-0.105 0.19,-0.21 0.269,-0.328 0.033,-0.052 0.039,-0.105 0.026,-0.151 0.02,-0.013 0.033,-0.026 0.052,-0.039 0.072,-0.046 0.046,-0.183 -0.052,-0.177 -0.072,0.007 -0.131,0.026 -0.19,0.052 -0.066,-0.013 -0.131,0 -0.19,0.046 -0.518,0.445 -1.035,1.009 -1.795,0.826 -0.812,-0.203 -1.081,-1.389 -0.118,-1.599 0.092,-0.02 0.072,-0.164 -0.026,-0.164 -0.956,-0.013 -1.199,1.238 -0.596,1.835 0.616,0.603 1.52,0.472 2.201,0.033 -0.007,0.144 -0.007,0.282 0.007,0.413 0.066,0.871 0.629,1.703 1.35,2.175 1.586,1.042 3.859,0.19 4.593,-1.5 0.111,0.452 0.537,0.78 1.016,0.845 0.686,0.085 1.413,-0.368 1.774,-0.938 z m -6.899,2.837 c 0.177,0.013 0.216,-0.269 0.046,-0.308 -0.826,-0.19 -1.402,-0.577 -1.808,-1.336 -0.059,-0.111 -0.249,-0.033 -0.203,0.085 0.261,0.825 1.093,1.513 1.965,1.559 z m 0,0.708 c 0.256,-0.013 0.256,-0.426 0,-0.406 -1.009,0.059 -1.795,-0.38 -2.411,-1.153 -0.085,-0.105 -0.236,0.033 -0.177,0.138 0.472,0.936 1.566,1.467 2.588,1.421 z m -8.209,-10.85 c 0.151,-0.183 -0.085,-0.446 -0.262,-0.269 -0.537,0.544 -0.865,1.323 -0.865,2.083 0,0.144 0.223,0.184 0.256,0.033 0.157,-0.707 0.419,-1.277 0.871,-1.847 z m -0.636,0.02 c 0.138,-0.164 -0.072,-0.367 -0.236,-0.236 -0.734,0.577 -1.081,1.631 -0.976,2.535 0.013,0.138 0.223,0.144 0.229,0 0.04,-0.936 0.387,-1.598 0.983,-2.299 z"
   id="path406" />

				<path
   style="fill:#1d1d1b"
   d="m 371.032,424.701 c 0.111,-0.315 0.596,-0.19 0.511,0.138 -0.17,0.642 -0.766,1.029 -1.408,1.081 -0.806,0.079 -1.533,-0.374 -2.149,-0.852 -0.098,0.57 -0.518,1.087 -1.068,1.291 -0.721,0.262 -1.5,-0.026 -1.946,-0.629 -0.092,-0.124 0.111,-0.282 0.216,-0.164 0.393,0.439 1.009,0.649 1.579,0.426 0.59,-0.242 0.767,-0.806 0.806,-1.382 0.013,-0.229 0.373,-0.301 0.419,-0.059 0,0.026 0,0.059 0.007,0.085 0.013,0 0.026,-0.007 0.039,0.007 0.806,0.516 2.49,1.505 2.994,0.058 z"
   id="path407" />

				<path
   style="fill:#fbba00"
   d="m 368.857,452.604 c -0.046,-0.059 -0.098,-0.118 -0.151,-0.17 -0.55,-0.524 -1.481,-1.029 -2.26,-0.819 -0.184,0.052 -0.19,0.334 0,0.38 0.734,0.19 1.33,0.249 1.92,0.78 0.563,0.504 0.871,1.16 0.963,1.907 -0.721,-0.878 -1.952,-1.5 -3.001,-1.638 -0.282,-0.033 -0.314,0.4 -0.066,0.478 0.642,0.21 1.245,0.393 1.828,0.74 0.367,0.216 0.688,0.491 1.009,0.76 -3.145,-1.756 -6.846,-1.664 -9.978,-0.013 0.773,-1.238 1.841,-1.972 3.21,-2.66 0.151,0.059 0.354,-0.013 0.341,-0.229 -0.111,-1.533 -0.269,-3.158 -0.721,-4.632 -0.007,-0.013 -0.02,-0.02 -0.026,-0.033 0.557,0.052 1.107,0.039 1.638,-0.039 -0.151,1.487 -0.138,3.06 -0.072,4.547 0.007,0.184 0.19,0.249 0.321,0.184 0.072,0.007 0.151,-0.026 0.203,-0.105 1.39,-2.078 3.971,-1.43 4.842,0.562 z"
   id="path408" />

				<path
   style="fill:#1d1d1b"
   d="m 368.412,440.719 c 0.177,-0.118 0.36,0.137 0.223,0.282 -0.511,0.524 -1.245,0.937 -1.913,1.232 -0.157,0.072 -0.295,-0.144 -0.138,-0.242 0.314,-0.197 0.635,-0.387 0.937,-0.603 0.308,-0.217 0.583,-0.466 0.891,-0.669 z"
   id="path409" />

				<path
   style="fill:#1d1d1b"
   d="m 367.639,439.736 c 0.157,-0.21 0.504,-0.026 0.36,0.216 -0.328,0.544 -0.865,1.029 -1.435,1.31 -0.183,0.098 -0.308,-0.144 -0.157,-0.269 0.491,-0.372 0.858,-0.765 1.232,-1.257 z"
   id="path410" />

				<path
   style="fill:#1d1d1b"
   d="m 363.164,409.972 c 0.092,0.144 -0.105,0.255 -0.216,0.164 -0.832,-0.642 -1.12,-1.893 -1.022,-2.889 0.02,-0.197 0.321,-0.203 0.308,0 -0.053,1.101 0.367,1.828 0.93,2.725 z"
   id="path411" />

				<path
   style="fill:#1d1d1b"
   d="m 362.64,410.883 c 0.164,0.111 0.02,0.38 -0.157,0.269 -0.727,-0.459 -1.297,-1.238 -1.487,-2.077 -0.033,-0.144 0.164,-0.19 0.21,-0.059 0.3,0.78 0.752,1.382 1.434,1.867 z"
   id="path412" />

				<path
   style="fill:#1d1d1b"
   d="m 360.111,399.051 c 0.007,0.065 0.007,0.131 0.007,0.197 0,1.245 -0.996,2.339 -2.254,2.457 -0.373,0.033 -0.74,-0.02 -1.088,-0.144 -0.839,-0.288 -1.546,-0.976 -1.828,-1.808 -0.065,-0.19 0.203,-0.275 0.308,-0.131 0.544,0.786 1.278,1.487 2.306,1.474 1.107,-0.013 1.939,-0.957 1.88,-2.044 -0.026,-0.434 0.636,-0.427 0.669,-0.001 z"
   id="path413" />

				<path
   style="fill:#e93842"
   d="m 358.971,388.863 c 1.055,1.048 1.029,2.732 0.203,3.885 -3.171,-2.902 -8.006,-2.909 -10.207,1.278 l -0.079,-0.046 c 0.013,-0.033 0.013,-0.079 -0.02,-0.105 -0.937,-0.865 -2.437,-0.956 -2.66,-2.496 -0.295,-2.005 1.933,-1.494 3.02,-1.074 0.262,0.098 0.426,-0.249 0.282,-0.432 0.026,-0.046 0.039,-0.098 0.013,-0.151 -0.74,-1.507 0.603,-2.608 1.972,-2.876 1.435,-0.282 2.667,0.183 3.197,1.487 -0.013,0.02 -0.033,0.039 -0.052,0.059 -0.098,0.131 0.046,0.249 0.177,0.242 0,0.007 0,0.007 0,0.013 0.085,0.275 0.491,0.223 0.498,-0.066 0,-0.046 -0.007,-0.085 -0.007,-0.131 1.252,-0.484 2.575,-0.668 3.663,0.413 z"
   id="path414" />

				<path
   style="fill:#1d1d1b"
   d="m 356.73,404.567 c 0.066,0.917 -0.295,1.481 -0.832,1.887 0.242,1.841 -1.042,3.512 -2.942,3.662 -2.116,0.17 -3.951,-1.553 -4.016,-3.649 -0.111,-0.105 -0.216,-0.21 -0.314,-0.314 -0.537,-0.563 -0.708,-1.271 -0.524,-2.031 0.177,-0.734 0.609,-1.277 1.179,-1.664 0.976,-0.668 2.352,-0.884 3.492,-0.865 0.786,0.013 1.618,0.197 2.313,0.564 0.891,0.478 1.566,1.264 1.644,2.41 z m -0.648,0.171 c 0.052,-1.192 -0.93,-2.064 -2.018,-2.372 -1.782,-0.511 -5.051,-0.183 -5.438,2.057 -0.249,1.454 2.267,2.765 3.446,3.734 0.4,-0.655 1.029,-1.002 1.789,-1.317 1.028,-0.425 2.168,-0.805 2.221,-2.102 z m -4.036,4.776 c 1.782,0.328 3.354,-0.963 3.302,-2.712 -1.074,0.577 -2.47,0.898 -2.981,2.018 -0.138,0.295 -0.636,0.079 -0.518,-0.216 0.02,-0.059 0.046,-0.105 0.065,-0.151 -0.852,-0.452 -1.828,-1.035 -2.621,-1.684 0.486,1.304 1.259,2.463 2.753,2.745 z"
   id="path415" />

				<path
   style="fill:#fbba00"
   d="m 354.064,402.366 c 1.088,0.308 2.07,1.179 2.018,2.372 -0.052,1.297 -1.192,1.677 -2.221,2.103 -0.76,0.314 -1.389,0.662 -1.789,1.317 -1.179,-0.97 -3.695,-2.28 -3.446,-3.734 0.386,-2.241 3.656,-2.569 5.438,-2.058 z"
   id="path416" />

				<path
   style="fill:#fbba00"
   d="m 355.348,406.801 c 0.052,1.749 -1.52,3.04 -3.302,2.712 -1.494,-0.282 -2.267,-1.441 -2.752,-2.745 0.793,0.649 1.769,1.232 2.621,1.684 -0.02,0.046 -0.046,0.092 -0.065,0.151 -0.118,0.295 0.38,0.511 0.518,0.216 0.51,-1.12 1.905,-1.441 2.98,-2.018 z"
   id="path417" />

				<path
   style="fill:#1d1d1b"
   d="m 351.096,432.936 c 0.183,-0.157 0.498,0.046 0.354,0.269 -0.36,0.57 -1.087,1.022 -1.775,0.937 -0.478,-0.065 -0.904,-0.393 -1.016,-0.845 -0.734,1.69 -3.007,2.542 -4.593,1.5 -0.721,-0.472 -1.284,-1.304 -1.35,-2.175 -0.013,-0.131 -0.013,-0.269 -0.007,-0.413 -0.681,0.439 -1.585,0.57 -2.201,-0.033 -0.603,-0.596 -0.36,-1.848 0.596,-1.835 0.098,0 0.118,0.144 0.026,0.164 -0.963,0.21 -0.695,1.396 0.118,1.599 0.76,0.183 1.278,-0.38 1.795,-0.826 0.059,-0.046 0.124,-0.059 0.19,-0.046 0.059,-0.026 0.118,-0.046 0.19,-0.052 0.098,-0.007 0.124,0.131 0.052,0.177 -0.02,0.013 -0.033,0.026 -0.052,0.039 0.013,0.046 0.007,0.098 -0.026,0.151 -0.079,0.118 -0.164,0.223 -0.269,0.328 -0.105,0.583 0.236,1.395 0.452,1.716 0.347,0.518 0.904,0.911 1.513,1.048 1.363,0.308 2.437,-0.609 3.132,-1.658 0.098,-0.144 0.301,-0.144 0.413,-0.059 0.039,-0.111 0.223,-0.164 0.242,-0.013 0.072,0.478 0.491,0.819 0.983,0.786 0.525,-0.032 0.866,-0.438 1.233,-0.759 z"
   id="path418" />

				<path
   style="fill:#1d1d1b"
   d="m 348.528,400.335 c 0.052,0.793 -0.419,1.572 -1.081,2.051 -0.373,0.275 -0.812,0.452 -1.258,0.485 -1.232,0.085 -2.477,-0.917 -2.372,-2.195 0.013,-0.17 0.269,-0.229 0.315,-0.046 0.223,0.989 1.133,1.828 2.201,1.579 0.983,-0.236 1.343,-1.088 1.638,-1.946 0.105,-0.308 0.537,-0.249 0.557,0.072 z"
   id="path419" />

				<path
   style="fill:#fbba00"
   d="m 346.117,452.119 c 1.605,0.773 2.889,1.684 3.682,3.25 -3.315,-1.494 -7.469,-1.717 -9.834,1.487 -0.184,-0.799 -0.092,-1.553 0.544,-2.149 0.609,-0.57 1.363,-0.734 2.129,-0.963 0.223,-0.065 0.197,-0.452 -0.052,-0.426 -0.97,0.105 -2.044,0.531 -2.653,1.33 -0.183,0.236 -0.328,0.531 -0.413,0.839 -0.832,-0.642 0.216,-1.835 0.773,-2.228 0.694,-0.485 1.454,-0.636 2.293,-0.629 0.223,0 0.288,-0.373 0.052,-0.406 -0.963,-0.138 -1.972,0.164 -2.739,0.767 0,-0.013 0.013,-0.02 0.013,-0.033 -0.007,-1.337 1.625,-1.605 2.627,-1.389 0.819,0.177 1.363,0.649 1.926,1.225 0.007,0.007 0.013,0.007 0.013,0.007 0.19,0.21 0.55,0.007 0.4,-0.262 -0.491,-0.858 -0.445,-1.926 -0.531,-2.883 -0.065,-0.727 -0.131,-1.454 -0.236,-2.175 0.38,0.013 0.767,0.007 1.147,-0.052 0.105,1.513 0.295,3.033 0.465,4.54 0.027,0.209 0.282,0.261 0.394,0.15 z"
   id="path420" />

				<path
   style="fill:#1d1d1b"
   d="m 344.597,435.733 c 0.17,0.039 0.131,0.321 -0.046,0.308 -0.871,-0.046 -1.703,-0.734 -1.965,-1.559 -0.046,-0.118 0.144,-0.197 0.203,-0.085 0.406,0.76 0.982,1.146 1.808,1.336 z"
   id="path421" />

				<path
   style="fill:#1d1d1b"
   d="m 344.551,436.343 c 0.256,-0.02 0.256,0.393 0,0.406 -1.022,0.046 -2.116,-0.485 -2.588,-1.422 -0.059,-0.105 0.092,-0.242 0.177,-0.138 0.616,0.774 1.402,1.213 2.411,1.154 z"
   id="path422" />

				<path
   style="fill:#1d1d1b"
   d="m 343.306,417.461 c 0.131,-0.131 0.308,0.065 0.197,0.203 -0.577,0.734 -1.474,1.232 -2.372,1.441 -0.111,0.026 -0.151,-0.131 -0.046,-0.164 0.885,-0.314 1.559,-0.818 2.221,-1.48 z"
   id="path423" />

				<path
   style="fill:#1d1d1b"
   d="m 343.182,416.642 c 0.144,-0.072 0.301,0.111 0.177,0.229 -0.242,0.216 -0.511,0.393 -0.766,0.59 -0.275,0.21 -0.531,0.452 -0.812,0.649 -0.118,0.085 -0.216,-0.092 -0.144,-0.183 0.398,-0.492 0.988,-0.99 1.545,-1.285 z"
   id="path424" />

				<path
   style="fill:#1d1d1b"
   d="m 336.08,425.631 c 0.177,-0.177 0.413,0.085 0.262,0.269 -0.452,0.57 -0.714,1.14 -0.871,1.848 -0.033,0.151 -0.256,0.111 -0.256,-0.033 0,-0.761 0.327,-1.54 0.865,-2.084 z"
   id="path425" />

				<path
   style="fill:#1d1d1b"
   d="m 335.47,425.683 c 0.164,-0.131 0.373,0.072 0.236,0.236 -0.596,0.701 -0.943,1.363 -0.983,2.3 -0.007,0.144 -0.216,0.138 -0.229,0 -0.105,-0.904 0.243,-1.959 0.976,-2.536 z"
   id="path426" />

				<path
   style="fill:#1d1d1b"
   d="m 330.825,422.027 c 0.19,0.046 0.111,0.334 -0.079,0.288 -0.655,-0.157 -1.31,-0.328 -1.959,-0.518 -0.131,-0.033 -0.079,-0.223 0.059,-0.203 0.662,0.132 1.324,0.276 1.979,0.433 z"
   id="path427" />

				<path
   style="fill:#1d1d1b"
   d="m 329.974,422.663 c 0.144,0 0.183,0.229 0.033,0.262 -0.721,0.138 -1.586,-0.157 -2.103,-0.668 -0.085,-0.085 0.026,-0.236 0.131,-0.17 0.635,0.425 1.179,0.556 1.939,0.576 z"
   id="path428" />

			</g>
  </g>
</svg>
