<?xml version="1.0" encoding="UTF-8" standalone="no"?>
<!-- Created with Inkscape (http://www.inkscape.org/) -->

<svg
   width="155.26569mm"
   height="193.97371mm"
   viewBox="0 0 155.26569 193.97371"
   version="1.1"
   id="svg1"
   xmlns="http://www.w3.org/2000/svg"
   xmlns:svg="http://www.w3.org/2000/svg">
  <defs
     id="defs1">
    <clipPath
       id="SVGID_00000054261904813507136830000004844503045422642843_">
				<rect
   id="use60"
   width="750"
   height="500"
   x="0"
   y="0" />

			</clipPath>
  </defs>
  <g
     id="layer1"
     transform="translate(-27.022061,-29.420848)">
    <g
       id="g491"
       transform="matrix(1.9979113,0,0,1.9979113,-911.45823,-642.51225)">
      <ellipse
         style="fill:#113b21;fill-opacity:0.321359"
         cx="504.388"
         cy="420.49899"
         rx="38.856998"
         ry="12.226"
         clip-path="url(#SVGID_00000054261904813507136830000004844503045422642843_)"
         id="ellipse371"
         transform="translate(4.1997077,0.68103368)" />
      <g
         clip-path="url(#SVGID_00000054261904813507136830000004844503045422642843_)"
         id="g398"
         transform="translate(4.1997077,0.68103368)">
				<path
   style="fill:#b84d29"
   d="m 516.084,370.519 c -1.494,0.19 -2.876,-0.02 -4.18,-0.635 -0.007,-0.007 -0.007,-0.02 -0.013,-0.026 -0.046,-0.105 -0.151,-0.131 -0.255,-0.111 -0.393,-0.203 -0.786,-0.432 -1.173,-0.708 -0.164,-0.124 -0.36,0.144 -0.216,0.282 0.373,0.36 0.793,0.662 1.232,0.924 0.242,1.546 1.087,3.112 1.965,4.422 -1.638,-0.125 -2.988,-0.74 -4.376,-1.651 -0.301,-0.937 -0.688,-1.841 -1.166,-2.706 -0.184,-0.328 -0.681,-0.033 -0.505,0.288 0.649,1.166 1.153,2.398 1.435,3.702 0.184,0.826 0.924,3.525 -0.544,3.171 -0.93,-0.216 -2.077,-1.363 -2.719,-2.031 -0.963,-0.983 -1.566,-2.051 -1.992,-3.354 -0.052,-0.17 -0.282,-0.098 -0.255,0.072 0.183,1.251 0.766,2.359 1.566,3.309 -0.059,0.033 -0.111,0.085 -0.138,0.17 -0.295,0.917 -0.773,1.743 -1.428,2.45 -0.636,0.675 -1.409,1.088 -2.142,1.625 -0.007,0.007 -0.007,0.007 -0.007,0.007 -0.007,-0.046 -0.026,-0.085 -0.065,-0.125 -0.616,-0.557 -1.251,-1.035 -1.776,-1.684 -0.504,-0.622 -0.884,-1.317 -1.238,-2.038 0.603,-1.435 1.029,-2.935 1.278,-4.488 0.059,-0.38 -0.524,-0.55 -0.59,-0.157 -0.478,2.673 -1.402,5.208 -2.909,7.482 -0.197,0.288 -1.002,1.736 -1.336,1.762 -0.878,0.079 -1.179,-1.52 -1.323,-2.07 -0.413,-1.566 -0.459,-3.138 -0.524,-4.737 0.511,-0.59 0.937,-1.258 1.238,-1.998 0.118,-0.288 -0.347,-0.478 -0.498,-0.21 -1.369,2.49 -3.538,4.2 -6.394,4.468 0.249,-1.258 0.989,-2.214 1.776,-3.178 0.721,-0.288 1.422,-0.649 2.077,-1.074 0.321,-0.21 0.02,-0.74 -0.308,-0.524 -0.419,0.275 -0.839,0.504 -1.264,0.707 -0.033,-0.013 -0.072,-0.013 -0.111,0.02 -0.033,0.026 -0.065,0.052 -0.098,0.085 -1.697,0.767 -3.472,1.035 -5.425,1.016 3.702,-2.883 6.139,-6.905 6.846,-11.564 0.983,-6.447 -0.537,-13.346 5.556,-17.617 0.183,0.799 0.649,1.546 1.277,2.057 0.046,0.039 0.105,0.039 0.157,0.02 0.033,0.17 0.295,0.256 0.432,0.079 3.361,-4.534 9.827,-4.691 12.933,0.183 1.985,3.125 1.723,7.167 1.533,10.692 -0.264,4.881 -0.382,10.266 3.667,13.693 z m -3.289,-3.453 c 0.092,0.151 0.334,0.013 0.242,-0.144 -0.459,-0.806 -0.76,-1.631 -0.943,-2.536 -0.02,-0.098 -0.183,-0.079 -0.177,0.02 0.079,0.943 0.387,1.848 0.878,2.66 z m -0.327,0.413 c 0.157,0.079 0.328,-0.125 0.19,-0.255 -0.242,-0.242 -0.498,-0.439 -0.681,-0.747 -0.17,-0.295 -0.269,-0.622 -0.321,-0.957 -0.026,-0.151 -0.262,-0.111 -0.256,0.033 0.026,0.714 0.406,1.578 1.068,1.926 z m -5.543,-11.289 c 1.389,-0.065 2.437,-1.402 2.359,-2.745 -0.026,-0.426 -0.675,-0.432 -0.662,0 0.033,1.009 -0.662,2.031 -1.743,2.09 -1.114,0.065 -1.874,-0.826 -2.116,-1.835 -0.053,-0.21 -0.367,-0.157 -0.374,0.052 -0.058,1.351 1.206,2.504 2.536,2.438 z m 0.275,-11.76 c 0.216,0.092 0.4,-0.19 0.19,-0.328 -0.649,-0.432 -1.559,-0.498 -2.287,-0.229 -0.203,0.072 -0.124,0.367 0.092,0.321 0.728,-0.144 1.324,-0.052 2.005,0.236 z m -0.76,-0.839 c 0.197,0.079 0.288,-0.216 0.138,-0.321 -0.74,-0.524 -1.913,-0.511 -2.647,0.013 -0.111,0.079 -0.052,0.295 0.105,0.242 0.878,-0.307 1.546,-0.281 2.404,0.066 z m -1.861,18.981 c 0.609,-0.649 0.996,-1.468 0.957,-2.503 -0.092,-2.149 -2.136,-2.955 -4.023,-2.909 -1.867,0.046 -4.16,1.016 -4.16,3.197 0,0.793 0.36,1.396 0.878,1.913 -0.753,1.979 1.14,3.643 3.046,3.879 1.966,0.236 4.18,-1.238 3.427,-3.42 -0.026,-0.079 -0.072,-0.125 -0.125,-0.157 z m -5.667,-8.983 c 0.033,-0.419 -0.603,-0.406 -0.649,0 -0.125,1.074 -1.081,2.011 -2.208,1.828 -1.048,-0.17 -1.625,-1.055 -1.789,-2.038 -0.039,-0.203 -0.308,-0.125 -0.328,0.046 -0.17,1.33 1.002,2.594 2.326,2.653 1.404,0.066 2.543,-1.146 2.648,-2.489 z m -9.205,15.416 c 0.079,-0.184 -0.21,-0.295 -0.308,-0.131 -0.419,0.714 -0.858,1.317 -1.5,1.848 -0.105,0.085 0.026,0.255 0.144,0.19 0.708,-0.439 1.35,-1.127 1.664,-1.907 z m -0.884,0.177 c 0.098,-0.118 -0.052,-0.262 -0.17,-0.17 -0.563,0.446 -1.14,0.996 -1.546,1.592 -0.026,0.039 0.026,0.098 0.072,0.066 0.609,-0.381 1.179,-0.938 1.644,-1.488 z"
   id="path371" />

				<path
   style="fill:#b17f4a"
   d="m 527.215,385.817 c 1.671,6.191 -0.196,13.221 -5.497,17.028 -0.917,-3.898 0.734,-7.141 2.693,-10.47 0.223,-0.386 -0.354,-0.714 -0.596,-0.347 -0.983,1.5 -1.907,3.158 -2.477,4.894 -1.933,-3.413 -2.549,-6.578 -1.402,-10.47 0.118,-0.4 -0.459,-0.537 -0.609,-0.164 -0.459,1.16 -0.701,2.437 -0.734,3.734 -2.516,-2.608 -1.618,-7.292 -1.068,-10.483 0.066,-0.4 -0.478,-0.563 -0.609,-0.17 -0.295,0.904 -0.544,2.024 -0.681,3.204 -1.651,-2.077 -2.562,-4.35 -2.162,-7.095 0.013,-0.085 -0.006,-0.157 -0.046,-0.216 0.203,-0.013 0.354,-0.249 0.236,-0.426 -0.93,-1.343 -1.441,-2.758 -2.044,-4.213 1.074,0.472 2.26,0.675 3.427,0.577 5.064,3.931 9.827,8.163 11.569,14.617 z m -3.662,-5.569 c 0.125,0.144 0.328,-0.039 0.249,-0.197 -0.459,-0.904 -1.455,-1.651 -2.385,-2.005 -0.131,-0.052 -0.21,0.151 -0.092,0.216 0.446,0.269 0.878,0.544 1.265,0.898 0.36,0.334 0.642,0.721 0.963,1.088 z m -0.662,0.734 c 0.065,0.17 0.328,0.105 0.282,-0.079 -0.183,-0.74 -0.74,-1.35 -1.402,-1.697 -0.131,-0.066 -0.242,0.124 -0.118,0.197 0.616,0.373 0.989,0.917 1.238,1.579 z"
   id="path372" />

				<path
   style="fill:#1d1d1b"
   d="m 523.802,380.051 c 0.079,0.157 -0.125,0.341 -0.249,0.197 -0.321,-0.367 -0.603,-0.754 -0.963,-1.088 -0.387,-0.354 -0.819,-0.629 -1.265,-0.898 -0.118,-0.065 -0.039,-0.269 0.092,-0.216 0.93,0.354 1.926,1.101 2.385,2.005 z"
   id="path373" />

				<path
   style="fill:#1d1d1b"
   d="m 523.173,380.903 c 0.046,0.184 -0.216,0.249 -0.282,0.079 -0.249,-0.662 -0.622,-1.206 -1.238,-1.579 -0.125,-0.072 -0.013,-0.262 0.118,-0.197 0.662,0.347 1.219,0.957 1.402,1.697 z"
   id="path374" />

				<path
   style="fill:#1d1d1b"
   d="m 486.739,382.495 c 1.69,-1.789 2.555,-4.01 2.411,-6.466 -0.793,0.282 -1.618,0.445 -2.457,0.485 -0.138,0.007 -0.301,-0.131 -0.282,-0.282 0.157,-1.238 0.753,-2.286 1.559,-3.191 -0.904,0.282 -1.835,0.439 -2.771,0.452 -0.007,0.052 -0.02,0.098 -0.079,0.124 -8.307,3.734 -13.85,17.762 -9.1,26.148 -0.046,-0.092 -0.092,-0.19 -0.125,-0.288 -0.065,-0.17 0.203,-0.269 0.288,-0.118 0.55,0.924 1.186,1.658 2.162,2.149 0.092,0.046 0.026,0.19 -0.065,0.157 -0.734,-0.242 -1.428,-0.721 -1.913,-1.35 0.839,1.31 1.946,2.463 3.354,3.394 0.065,0.046 0.098,0.098 0.111,0.157 0.334,-2.038 0.76,-3.865 0.301,-5.949 -0.295,-1.363 -1.133,-2.536 -1.297,-3.918 -0.039,-0.315 0.452,-0.354 0.537,-0.072 0.446,1.481 1.114,2.745 1.422,4.219 2.064,-2.758 1.52,-7.508 1.277,-10.666 -0.02,-0.295 0.459,-0.36 0.518,-0.072 0.183,0.917 0.328,2.077 0.373,3.302 1.684,-0.642 2.391,-3.852 2.739,-5.366 0.393,-1.736 0.472,-3.459 0.367,-5.228 -0.026,-0.426 0.636,-0.419 0.662,0 0.054,0.8 0.054,1.586 0.008,2.379 z m 29.483,-11.367 c 10.909,6.447 18.24,23.822 5.582,32.45 -0.262,0.177 -0.511,-0.111 -0.452,-0.36 -0.177,-0.432 -0.301,-0.865 -0.4,-1.297 -3.001,3.335 -6.788,6.165 -11.066,7.6 -0.485,1.029 -1.127,1.939 -2.136,2.306 -0.046,0.02 -0.092,0.026 -0.138,0.039 0.059,0.039 0.105,0.105 0.105,0.203 0.013,0.884 0.033,1.782 -0.026,2.673 2.339,-1.166 5.222,-0.544 7.161,1.094 0.21,0.184 -0.02,0.498 -0.255,0.439 -1.402,-0.334 -2.765,-0.4 -4.167,-0.249 1.625,0.577 3.243,1.586 3.368,3.433 0.007,0.164 -0.183,0.203 -0.275,0.111 -0.033,-0.007 -0.059,-0.02 -0.085,-0.046 -0.93,-0.97 -2.018,-1.618 -3.295,-1.848 0.701,0.668 1.107,1.566 1.127,2.575 0.17,0.216 -0.125,0.491 -0.341,0.308 -2.968,-2.535 -6.715,-2.824 -10.122,-1.009 -0.177,0.092 -0.321,-0.092 -0.262,-0.236 -0.085,-0.059 -0.151,-0.164 -0.131,-0.288 0.328,-2.385 2.824,-4.678 5.326,-4.226 -0.02,-0.996 -0.013,-2.005 0.066,-2.994 -0.865,-0.275 -1.71,-0.839 -2.47,-1.468 -0.039,0.02 -0.079,0.039 -0.131,0.039 -3.014,0.085 -6.591,0.347 -9.493,-0.583 -0.799,0.878 -1.769,1.507 -2.988,1.494 0.039,0.413 0.052,0.819 0.085,1.232 0.033,0.439 0.105,0.878 0.164,1.31 0.033,-0.007 0.059,-0.013 0.098,-0.013 2.693,0.131 4.232,2.843 4.2,5.32 0,0.026 -0.013,0.046 -0.026,0.065 0.105,0.249 -0.197,0.517 -0.426,0.301 -3.033,-2.902 -6.309,-0.865 -8.222,2.025 -0.072,0.105 -0.216,0.065 -0.249,-0.039 -0.111,0.026 -0.236,-0.02 -0.288,-0.17 -0.406,-1.094 -0.138,-2.247 0.518,-3.151 -1.356,0.498 -2.725,0.983 -4.114,1.33 -0.111,0.026 -0.19,-0.065 -0.203,-0.164 -0.105,-0.072 -0.177,-0.216 -0.098,-0.367 0.465,-0.943 1.166,-1.756 2.044,-2.339 0.55,-0.367 1.101,-0.537 1.657,-0.668 -1.205,-0.052 -2.404,-0.039 -3.629,0.026 -0.092,0.007 -0.151,-0.065 -0.157,-0.144 -0.02,-0.02 -0.046,-0.026 -0.059,-0.052 -0.577,-1.002 1.376,-1.54 2.044,-1.736 1.481,-0.432 3.263,-0.511 4.698,0.118 -0.144,-1.094 -0.184,-2.286 0.177,-3.341 -0.708,-0.386 -1.251,-1.002 -1.631,-1.736 -0.229,-0.439 -0.511,-1.029 -0.655,-1.612 -2.345,-0.839 -4.56,-2.28 -6.368,-3.977 -0.085,0.177 -0.177,0.341 -0.275,0.504 -0.052,0.085 -0.157,0.046 -0.177,-0.033 -0.039,0.138 -0.183,0.249 -0.347,0.157 -5.903,-3.413 -6.204,-10.666 -4.96,-16.667 1.219,-5.883 4.128,-11.819 10.037,-13.988 -0.36,-0.02 -0.714,-0.065 -1.074,-0.131 -0.131,-0.026 -0.151,-0.164 -0.098,-0.269 -0.223,-0.052 -0.393,-0.393 -0.177,-0.57 2.922,-2.398 5.169,-5.412 6.191,-9.094 0.976,-3.499 0.616,-7.167 1.035,-10.738 0.432,-3.669 1.88,-7.829 5.582,-9.297 -0.072,-0.688 0.059,-1.382 0.485,-1.966 0.557,-0.786 1.638,-1.258 2.581,-1.087 -1.048,-1.893 1.54,-4.167 3.309,-4.58 2.319,-0.537 4.73,0.943 5.182,3.236 1.192,-1.631 4.403,-0.19 5.49,1.029 1.926,2.162 1.671,5.647 -0.603,7.462 -0.039,0.026 -0.072,0.046 -0.111,0.052 2.804,7.331 -2.359,16.68 4.318,22.616 0.092,0.085 0.111,0.177 0.098,0.269 0.347,-0.046 0.485,0.472 0.131,0.57 -0.227,0.062 -0.45,0.108 -0.679,0.147 z m 5.497,31.716 c 5.3,-3.806 7.167,-10.836 5.497,-17.028 -1.743,-6.453 -6.506,-10.686 -11.57,-14.617 -1.166,0.098 -2.352,-0.105 -3.427,-0.577 0.603,1.454 1.114,2.87 2.044,4.213 0.118,0.177 -0.033,0.413 -0.236,0.426 0.039,0.059 0.059,0.131 0.046,0.216 -0.4,2.745 0.511,5.018 2.162,7.095 0.138,-1.179 0.387,-2.3 0.681,-3.204 0.131,-0.393 0.675,-0.229 0.609,0.17 -0.55,3.191 -1.448,7.875 1.068,10.483 0.033,-1.297 0.275,-2.575 0.734,-3.734 0.151,-0.374 0.727,-0.236 0.609,0.164 -1.146,3.892 -0.531,7.056 1.402,10.47 0.57,-1.736 1.494,-3.394 2.477,-4.894 0.242,-0.367 0.819,-0.039 0.596,0.347 -1.959,3.329 -3.61,6.572 -2.692,10.47 z m -0.898,-1.657 c 0,-0.007 0.006,-0.007 0.006,-0.007 -0.151,-1.271 0.007,-2.549 0.36,-3.793 -1.651,-1.762 -2.516,-4.239 -2.594,-6.715 -2.156,-1.487 -2.647,-4.612 -2.417,-7.488 -2.3,-1.874 -3.165,-5.018 -2.726,-7.882 0,-0.02 0.013,-0.039 0.02,-0.059 -1.5,-0.111 -3.033,-0.609 -4.213,-1.559 0.157,0.583 0.288,1.179 0.367,1.789 0.079,0.675 0.596,2.824 -0.524,2.955 -1.061,0.125 -2.87,-1.592 -3.584,-2.28 -0.072,-0.072 -0.138,-0.144 -0.21,-0.216 -0.603,1.749 -2.077,3.748 -4.009,4.062 -0.092,0.013 -0.151,-0.033 -0.177,-0.092 -0.072,0.079 -0.19,0.124 -0.301,0.065 -1.323,-0.714 -2.405,-2.155 -2.942,-3.597 -0.19,0.426 -0.393,0.845 -0.616,1.258 -0.446,0.806 -1.697,3.309 -2.706,3.603 -2.293,0.675 -2.332,-5.353 -2.116,-7.298 -0.754,0.793 -1.671,1.415 -2.673,1.861 0.007,0.026 0.02,0.052 0.026,0.092 0.197,2.627 -0.78,5.156 -2.791,6.886 -0.098,0.085 -0.216,0.052 -0.275,-0.026 -0.125,1.756 -0.504,3.492 -1.173,5.15 -0.491,1.212 -1.114,3.047 -2.575,3.197 0.059,2.798 -0.413,5.903 -2.096,7.521 0.026,0.17 0.052,0.341 0.065,0.524 0.105,1.356 -0.013,2.817 -0.55,4.088 1.972,1.415 4.003,2.542 6.152,3.616 0,-0.21 0.02,-0.419 0.085,-0.603 0.039,-0.105 0.229,-0.144 0.249,0 0.039,0.282 0.105,0.577 0.19,0.871 0.007,0 0.02,0.007 0.033,0.013 0.137,0.072 0.144,0.229 0.079,0.341 0.511,1.474 1.572,2.87 3.086,3.099 2.332,0.347 2.961,-1.559 4.291,-2.896 0.229,-0.229 0.635,0.072 0.459,0.354 -0.36,0.57 -0.76,1.146 -1.199,1.651 2.889,-0.295 5.949,0.144 8.884,0.124 -0.413,-0.373 -0.786,-0.734 -1.101,-1.042 -0.144,-0.138 0.039,-0.387 0.21,-0.275 1.304,0.878 3.387,2.968 5.091,2.843 2.136,-0.151 2.739,-3.184 3.374,-4.763 0.164,-0.406 0.819,-0.236 0.662,0.177 -0.249,0.655 -0.498,1.454 -0.819,2.234 4.074,-1.992 7.645,-4.35 10.698,-7.783 z m -8.917,-31.304 c 1.304,0.616 2.686,0.826 4.18,0.635 -4.049,-3.426 -3.931,-8.812 -3.669,-13.693 0.19,-3.525 0.452,-7.567 -1.533,-10.692 -3.105,-4.874 -9.572,-4.717 -12.933,-0.183 -0.138,0.177 -0.4,0.092 -0.432,-0.079 -0.052,0.02 -0.111,0.02 -0.157,-0.02 -0.629,-0.511 -1.094,-1.258 -1.277,-2.057 -6.093,4.272 -4.573,11.171 -5.556,17.617 -0.708,4.658 -3.145,8.681 -6.846,11.564 1.952,0.02 3.728,-0.249 5.425,-1.016 0.033,-0.033 0.065,-0.059 0.098,-0.085 0.039,-0.033 0.079,-0.033 0.111,-0.02 0.426,-0.203 0.845,-0.432 1.264,-0.707 0.328,-0.216 0.629,0.314 0.308,0.524 -0.655,0.426 -1.356,0.786 -2.077,1.074 -0.786,0.963 -1.527,1.92 -1.776,3.178 2.857,-0.269 5.025,-1.979 6.394,-4.468 0.151,-0.269 0.616,-0.079 0.498,0.21 -0.301,0.74 -0.727,1.409 -1.238,1.998 0.065,1.599 0.111,3.171 0.524,4.737 0.144,0.55 0.445,2.149 1.323,2.07 0.334,-0.026 1.14,-1.474 1.336,-1.762 1.507,-2.273 2.431,-4.809 2.909,-7.482 0.066,-0.393 0.649,-0.223 0.59,0.157 -0.249,1.553 -0.675,3.053 -1.278,4.488 0.354,0.721 0.734,1.415 1.238,2.038 0.524,0.649 1.16,1.127 1.776,1.684 0.039,0.039 0.059,0.079 0.065,0.125 0,0 0,0 0.007,-0.007 0.734,-0.537 1.507,-0.95 2.142,-1.625 0.655,-0.707 1.133,-1.533 1.428,-2.45 0.026,-0.085 0.079,-0.138 0.138,-0.17 -0.799,-0.95 -1.382,-2.057 -1.566,-3.309 -0.026,-0.17 0.203,-0.242 0.255,-0.072 0.426,1.304 1.029,2.372 1.992,3.354 0.642,0.668 1.789,1.815 2.719,2.031 1.468,0.354 0.727,-2.346 0.544,-3.171 -0.282,-1.304 -0.786,-2.535 -1.435,-3.702 -0.177,-0.321 0.321,-0.616 0.505,-0.288 0.478,0.865 0.865,1.769 1.166,2.706 1.389,0.911 2.738,1.526 4.376,1.651 -0.878,-1.31 -1.723,-2.876 -1.965,-4.422 -0.439,-0.262 -0.858,-0.563 -1.232,-0.924 -0.144,-0.138 0.052,-0.406 0.216,-0.282 0.386,0.275 0.78,0.504 1.173,0.708 0.105,-0.02 0.21,0.007 0.255,0.111 0.009,0.006 0.009,0.02 0.015,0.026 z m 0.203,-22.937 c 1.396,-1.487 2.116,-3.603 1.081,-5.536 -0.799,-1.481 -4.39,-4.023 -5.549,-1.487 -0.065,0.157 -0.242,0.144 -0.341,0.046 -0.118,-0.007 -0.223,-0.072 -0.249,-0.21 -0.269,-1.88 -1.658,-3.44 -3.656,-3.42 -1.88,0.013 -5.012,2.11 -3.669,4.226 0.131,0.079 0.255,0.164 0.373,0.282 0.223,0.223 -0.072,0.609 -0.347,0.439 -1.042,-0.642 -2.411,-0.295 -2.929,0.865 -0.544,1.206 0.092,2.496 0.773,3.499 3.341,-5.078 10.653,-5.202 13.902,0.124 0.231,0.386 0.428,0.779 0.611,1.172 z m -2.516,68.818 c 1.323,-0.308 2.634,-0.367 3.951,-0.203 -1.802,-1.048 -3.82,-1.042 -5.857,-0.334 -0.02,0.007 -0.033,0 -0.052,0.007 -0.072,0.19 -0.347,0.177 -0.373,-0.052 -0.105,-1.029 -0.072,-2.083 -0.059,-3.112 0,-0.046 0.013,-0.085 0.033,-0.118 -0.354,0.046 -0.708,0.026 -1.061,-0.046 0.079,1.029 0.085,2.077 0.059,3.112 -0.006,0.229 -0.262,0.288 -0.4,0.177 -2.313,0.242 -4.245,1.428 -4.842,3.78 3.027,-1.913 7.168,-1.481 9.834,0.858 -0.21,-0.963 -0.793,-1.776 -1.677,-2.28 -0.216,-0.125 -0.125,-0.472 0.124,-0.465 1.363,0.007 2.699,0.491 3.715,1.382 -0.826,-1.258 -2.293,-1.802 -3.806,-2.221 -0.354,-0.098 -0.203,-0.642 0.157,-0.55 0.084,0.019 0.169,0.045 0.254,0.065 z m -14.846,2.896 c -0.517,-1.952 -1.33,-4.01 -3.675,-4.173 -0.085,0 -0.151,-0.039 -0.203,-0.079 -0.118,0.039 -0.282,-0.007 -0.315,-0.157 -0.229,-0.898 -0.288,-2.031 -0.098,-2.968 -0.242,-0.026 -0.491,-0.059 -0.753,-0.131 -0.144,-0.046 -0.288,-0.092 -0.426,-0.151 -0.013,1.101 -0.118,2.175 0.059,3.296 0.046,0.301 -0.341,0.452 -0.491,0.262 -0.917,-0.105 -1.808,-0.288 -2.738,-0.236 -0.531,0.026 -3.505,0.413 -3.617,1.297 1.651,-0.282 3.354,-0.282 5.005,-0.039 0.288,0.046 0.197,0.459 -0.066,0.472 0,0.007 0,0.007 0,0.013 -0.144,-0.013 -0.282,-0.02 -0.426,-0.033 -0.826,0.026 -1.775,0.563 -2.391,0.989 -0.76,0.518 -1.336,1.179 -1.802,1.959 1.572,-0.701 3.23,-1.264 4.842,-1.821 0.328,-0.118 0.478,0.354 0.223,0.524 -1.127,0.76 -1.52,1.979 -1.363,3.256 1.265,-3.184 5.621,-4.626 8.235,-2.28 z"
   id="path375" />

				<path
   style="fill:#fde9cc"
   d="m 520.827,401.18 c 0,0 -0.006,0 -0.006,0.007 -3.053,3.433 -6.624,5.792 -10.699,7.783 0.321,-0.78 0.57,-1.579 0.819,-2.234 0.157,-0.413 -0.498,-0.583 -0.662,-0.177 -0.635,1.579 -1.238,4.612 -3.374,4.763 -1.703,0.124 -3.787,-1.966 -5.091,-2.843 -0.17,-0.111 -0.354,0.138 -0.21,0.275 0.315,0.308 0.688,0.668 1.101,1.042 -2.935,0.02 -5.995,-0.419 -8.884,-0.124 0.439,-0.505 0.839,-1.081 1.199,-1.651 0.177,-0.282 -0.229,-0.583 -0.459,-0.354 -1.33,1.337 -1.959,3.243 -4.291,2.896 -1.513,-0.229 -2.575,-1.625 -3.086,-3.099 0.065,-0.111 0.059,-0.269 -0.079,-0.341 -0.013,-0.007 -0.026,-0.013 -0.033,-0.013 -0.085,-0.295 -0.151,-0.59 -0.19,-0.871 -0.02,-0.144 -0.21,-0.105 -0.249,0 -0.065,0.184 -0.085,0.393 -0.085,0.603 -2.149,-1.074 -4.18,-2.201 -6.152,-3.616 0.537,-1.271 0.655,-2.732 0.55,-4.088 -0.013,-0.184 -0.039,-0.354 -0.065,-0.524 1.684,-1.618 2.155,-4.724 2.096,-7.521 1.461,-0.151 2.083,-1.985 2.575,-3.197 0.668,-1.658 1.048,-3.394 1.173,-5.15 0.059,0.079 0.177,0.111 0.275,0.026 2.011,-1.73 2.988,-4.259 2.791,-6.886 -0.006,-0.039 -0.02,-0.065 -0.026,-0.092 1.002,-0.445 1.92,-1.068 2.673,-1.861 -0.216,1.946 -0.177,7.973 2.116,7.298 1.009,-0.295 2.26,-2.797 2.706,-3.603 0.223,-0.413 0.426,-0.832 0.616,-1.258 0.537,1.441 1.618,2.883 2.942,3.597 0.111,0.059 0.229,0.013 0.301,-0.065 0.026,0.059 0.085,0.105 0.177,0.092 1.933,-0.315 3.407,-2.313 4.009,-4.062 0.072,0.072 0.138,0.144 0.21,0.216 0.714,0.688 2.522,2.404 3.584,2.28 1.12,-0.131 0.603,-2.28 0.524,-2.955 -0.079,-0.609 -0.21,-1.205 -0.367,-1.789 1.179,0.95 2.712,1.448 4.213,1.559 -0.007,0.02 -0.02,0.039 -0.02,0.059 -0.439,2.863 0.426,6.008 2.726,7.882 -0.229,2.876 0.262,6.001 2.417,7.488 0.079,2.477 0.943,4.953 2.594,6.715 -0.352,1.245 -0.509,2.522 -0.359,3.793 z m -10.338,-14.204 c 0.557,-0.288 0.976,-1.029 0.74,-1.651 -0.065,-0.19 -0.406,-0.183 -0.373,0.046 0.072,0.55 -0.007,1.048 -0.505,1.376 -0.144,0.092 -0.019,0.308 0.138,0.229 z m 0.105,-2.05 c 0.072,-0.216 -0.262,-0.301 -0.341,-0.092 -0.21,0.596 -0.491,1.107 -0.937,1.566 -0.092,0.092 0.039,0.216 0.138,0.138 0.511,-0.42 0.937,-0.977 1.14,-1.612 z m -3.748,0.799 c 1.147,0.701 2.87,-0.21 2.699,-1.671 -0.039,-0.347 -0.537,-0.36 -0.55,0 -0.065,1.199 -1.101,1.775 -2.129,1.238 -0.007,-0.052 0,-0.098 -0.013,-0.151 -0.039,-0.269 -0.465,-0.197 -0.465,0.065 0.013,1.671 -1.743,2.372 -2.87,1.12 -0.092,-0.098 -0.256,0.033 -0.19,0.144 0.957,1.568 3.269,0.847 3.518,-0.745 z m 0.662,24.516 c 0.203,-0.033 0.144,-0.347 -0.052,-0.354 -0.773,-0.007 -1.33,-0.19 -1.959,-0.649 -0.118,-0.085 -0.229,0.092 -0.151,0.19 0.498,0.597 1.395,0.918 2.162,0.813 z m -1.219,0.446 c 0.183,0.046 0.262,-0.229 0.079,-0.288 -0.76,-0.236 -1.382,-0.629 -1.854,-1.278 -0.072,-0.105 -0.249,-0.013 -0.177,0.105 0.432,0.707 1.133,1.271 1.952,1.461 z m -1.375,-15.692 c 0.111,-0.275 -0.347,-0.465 -0.478,-0.203 -0.826,1.651 -2.614,1.887 -3.931,0.636 -0.079,-0.072 -0.183,-0.039 -0.242,0.033 0,-0.033 0.013,-0.065 0.013,-0.098 0.02,-0.38 -0.531,-0.36 -0.577,0 -0.19,1.559 -1.337,2.994 -2.994,3.099 -1.69,0.098 -2.85,-1.055 -3.433,-2.516 -0.007,-0.079 -0.046,-0.144 -0.105,-0.183 -0.085,-0.098 -0.262,-0.079 -0.269,0.066 -0.531,0.649 -1.16,1.186 -2.064,0.963 -0.97,-0.236 -1.435,-1.435 -0.629,-2.136 0.138,-0.118 -0.059,-0.301 -0.19,-0.19 -0.852,0.675 -0.655,1.998 0.262,2.522 0.871,0.491 2.11,0.236 2.739,-0.544 0.465,1.553 2.09,2.68 3.728,2.588 1.834,-0.098 3.289,-1.644 3.499,-3.42 0,0.007 0,0.013 0.007,0.013 1.231,1.742 3.891,1.277 4.664,-0.63 z"
   id="path376" />

				<path
   style="fill:#e93842"
   d="m 513.188,341.41 c 1.035,1.933 0.315,4.049 -1.081,5.536 -0.183,-0.393 -0.38,-0.786 -0.609,-1.173 -3.25,-5.327 -10.561,-5.202 -13.902,-0.124 -0.681,-1.002 -1.317,-2.293 -0.773,-3.499 0.518,-1.16 1.887,-1.507 2.929,-0.865 0.275,0.17 0.57,-0.216 0.347,-0.439 -0.118,-0.118 -0.242,-0.203 -0.373,-0.282 -1.343,-2.116 1.789,-4.213 3.669,-4.226 1.998,-0.02 3.387,1.54 3.656,3.42 0.026,0.138 0.131,0.203 0.249,0.21 0.098,0.098 0.275,0.111 0.341,-0.046 1.158,-2.535 4.748,0.007 5.547,1.488 z"
   id="path377" />

				<path
   style="fill:#1d1d1b"
   d="m 513.038,366.922 c 0.092,0.157 -0.151,0.295 -0.242,0.144 -0.491,-0.812 -0.799,-1.716 -0.878,-2.66 -0.007,-0.098 0.157,-0.118 0.177,-0.02 0.183,0.904 0.484,1.73 0.943,2.536 z"
   id="path378" />

				<path
   style="fill:#fbba00"
   d="m 513.542,415.561 c -1.317,-0.164 -2.627,-0.105 -3.951,0.203 -0.085,-0.02 -0.17,-0.046 -0.255,-0.065 -0.36,-0.092 -0.511,0.452 -0.157,0.55 1.513,0.419 2.981,0.963 3.806,2.221 -1.016,-0.891 -2.352,-1.376 -3.715,-1.382 -0.249,-0.007 -0.341,0.341 -0.124,0.465 0.884,0.504 1.468,1.317 1.677,2.28 -2.667,-2.339 -6.807,-2.771 -9.834,-0.858 0.596,-2.352 2.529,-3.538 4.842,-3.78 0.138,0.111 0.393,0.052 0.4,-0.177 0.026,-1.035 0.02,-2.083 -0.059,-3.112 0.354,0.072 0.708,0.092 1.061,0.046 -0.02,0.033 -0.033,0.072 -0.033,0.118 -0.013,1.029 -0.046,2.083 0.059,3.112 0.026,0.229 0.301,0.242 0.373,0.052 0.02,-0.007 0.033,0 0.052,-0.007 2.038,-0.708 4.056,-0.714 5.858,0.334 z"
   id="path379" />

				<path
   style="fill:#1d1d1b"
   d="m 512.658,367.223 c 0.138,0.131 -0.033,0.334 -0.19,0.255 -0.662,-0.347 -1.042,-1.212 -1.068,-1.926 -0.007,-0.144 0.229,-0.184 0.256,-0.033 0.052,0.334 0.151,0.662 0.321,0.957 0.183,0.308 0.438,0.505 0.681,0.747 z"
   id="path380" />

				<path
   style="fill:#1d1d1b"
   d="m 511.229,385.325 c 0.236,0.622 -0.183,1.363 -0.74,1.651 -0.157,0.079 -0.282,-0.138 -0.138,-0.229 0.498,-0.328 0.577,-0.826 0.505,-1.376 -0.033,-0.229 0.308,-0.236 0.373,-0.046 z"
   id="path381" />

				<path
   style="fill:#1d1d1b"
   d="m 510.253,384.834 c 0.079,-0.21 0.413,-0.124 0.341,0.092 -0.203,0.635 -0.629,1.192 -1.14,1.612 -0.098,0.079 -0.229,-0.046 -0.138,-0.138 0.446,-0.459 0.728,-0.97 0.937,-1.566 z"
   id="path382" />

				<path
   style="fill:#1d1d1b"
   d="m 509.546,384.054 c 0.17,1.461 -1.553,2.372 -2.699,1.671 -0.249,1.592 -2.562,2.313 -3.518,0.747 -0.066,-0.111 0.098,-0.242 0.19,-0.144 1.127,1.251 2.883,0.55 2.87,-1.12 0,-0.262 0.426,-0.334 0.465,-0.065 0.013,0.052 0.007,0.098 0.013,0.151 1.029,0.537 2.064,-0.039 2.129,-1.238 0.012,-0.362 0.51,-0.349 0.55,-0.002 z"
   id="path383" />

				<path
   style="fill:#1d1d1b"
   d="m 509.284,353.445 c 0.079,1.343 -0.97,2.68 -2.359,2.745 -1.33,0.066 -2.594,-1.087 -2.536,-2.437 0.007,-0.21 0.321,-0.262 0.374,-0.052 0.242,1.009 1.002,1.9 2.116,1.835 1.081,-0.059 1.775,-1.081 1.743,-2.09 -0.013,-0.433 0.635,-0.427 0.662,-0.001 z"
   id="path384" />

				<path
   style="fill:#1d1d1b"
   d="m 507.456,409.887 c 0.197,0.007 0.255,0.321 0.052,0.354 -0.767,0.105 -1.664,-0.216 -2.162,-0.812 -0.079,-0.098 0.033,-0.275 0.151,-0.19 0.629,0.458 1.186,0.642 1.959,0.648 z"
   id="path385" />

				<path
   style="fill:#1d1d1b"
   d="m 507.39,344.103 c 0.21,0.138 0.026,0.419 -0.19,0.328 -0.681,-0.288 -1.278,-0.38 -2.005,-0.236 -0.216,0.046 -0.295,-0.249 -0.092,-0.321 0.728,-0.269 1.638,-0.204 2.287,0.229 z"
   id="path386" />

				<path
   style="fill:#1d1d1b"
   d="m 506.578,343.27 c 0.151,0.105 0.059,0.4 -0.138,0.321 -0.858,-0.347 -1.527,-0.374 -2.405,-0.065 -0.157,0.052 -0.216,-0.164 -0.105,-0.242 0.735,-0.525 1.907,-0.538 2.648,-0.014 z"
   id="path387" />

				<path
   style="fill:#1d1d1b"
   d="m 506.368,410.398 c 0.183,0.059 0.105,0.334 -0.079,0.288 -0.819,-0.19 -1.52,-0.754 -1.952,-1.461 -0.072,-0.118 0.105,-0.21 0.177,-0.105 0.472,0.649 1.094,1.042 1.854,1.278 z"
   id="path388" />

				<path
   style="fill:#1d1d1b"
   d="m 505.536,360.069 c 0.039,1.035 -0.347,1.854 -0.957,2.503 0.052,0.033 0.098,0.079 0.125,0.157 0.753,2.182 -1.461,3.656 -3.427,3.42 -1.906,-0.236 -3.8,-1.9 -3.046,-3.879 -0.518,-0.518 -0.878,-1.12 -0.878,-1.913 0,-2.182 2.293,-3.151 4.16,-3.197 1.887,-0.046 3.931,0.76 4.023,2.909 z m -4.003,3.629 c 1.579,-0.694 3.446,-1.585 3.341,-3.63 -0.118,-2.267 -2.883,-2.496 -4.579,-2.103 -1.173,0.275 -2.26,1.107 -2.247,2.391 0.007,0.911 0.537,1.454 1.238,1.965 0.767,0.563 1.579,0.996 2.123,1.802 0.131,0.197 -0.151,0.38 -0.314,0.242 -0.708,-0.616 -1.756,-1.14 -2.562,-1.828 -0.059,1.487 0.753,2.627 2.326,2.981 1.658,0.38 3.872,-0.577 3.315,-2.562 -0.688,0.57 -1.559,0.989 -2.411,1.277 -0.138,0.046 -0.255,-0.02 -0.321,-0.131 -0.086,-0.128 -0.086,-0.331 0.091,-0.404 z"
   id="path389" />

				<path
   style="fill:#1d1d1b"
   d="m 500.242,395.611 c -0.21,1.776 -1.664,3.322 -3.499,3.42 -1.638,0.092 -3.263,-1.035 -3.728,-2.588 -0.629,0.78 -1.867,1.035 -2.739,0.544 -0.917,-0.524 -1.114,-1.848 -0.262,-2.522 0.131,-0.111 0.328,0.072 0.19,0.19 -0.806,0.701 -0.341,1.9 0.629,2.136 0.904,0.223 1.533,-0.314 2.064,-0.963 0.006,-0.144 0.183,-0.164 0.269,-0.066 0.059,0.039 0.098,0.105 0.105,0.183 0.583,1.461 1.743,2.614 3.433,2.516 1.658,-0.105 2.804,-1.54 2.994,-3.099 0.046,-0.36 0.596,-0.38 0.577,0 0,0.033 -0.013,0.066 -0.013,0.098 0.059,-0.072 0.164,-0.105 0.242,-0.033 1.317,1.251 3.105,1.016 3.931,-0.636 0.131,-0.262 0.59,-0.072 0.478,0.203 -0.773,1.907 -3.433,2.372 -4.665,0.629 -0.006,0.001 -0.006,-0.005 -0.006,-0.012 z"
   id="path390" />

				<path
   style="fill:#fbba00"
   d="m 504.874,360.069 c 0.105,2.044 -1.762,2.935 -3.341,3.63 -0.177,0.072 -0.177,0.275 -0.092,0.406 l -0.033,0.02 c -0.544,-0.806 -1.356,-1.238 -2.123,-1.802 -0.701,-0.511 -1.232,-1.055 -1.238,-1.965 -0.013,-1.284 1.074,-2.116 2.247,-2.391 1.698,-0.394 4.462,-0.165 4.58,2.102 z"
   id="path391" />

				<path
   style="fill:#fbba00"
   d="m 504.173,362.958 c 0.557,1.985 -1.658,2.942 -3.315,2.562 -1.572,-0.354 -2.385,-1.494 -2.326,-2.981 0.806,0.688 1.854,1.212 2.562,1.828 0.164,0.138 0.445,-0.046 0.314,-0.242 l 0.033,-0.02 c 0.065,0.111 0.183,0.177 0.321,0.131 0.852,-0.289 1.723,-0.708 2.411,-1.278 z"
   id="path392" />

				<path
   style="fill:#1d1d1b"
   d="m 498.264,353.589 c 0.046,-0.406 0.681,-0.419 0.649,0 -0.105,1.343 -1.245,2.555 -2.647,2.49 -1.323,-0.059 -2.496,-1.323 -2.326,-2.653 0.02,-0.17 0.288,-0.249 0.328,-0.046 0.164,0.983 0.74,1.867 1.789,2.038 1.126,0.183 2.082,-0.754 2.207,-1.829 z"
   id="path393" />

				<path
   style="fill:#fbba00"
   d="m 491.07,414.487 c 2.346,0.164 3.158,2.221 3.675,4.173 -2.614,-2.346 -6.971,-0.904 -8.235,2.28 -0.157,-1.277 0.236,-2.496 1.363,-3.256 0.255,-0.17 0.105,-0.642 -0.223,-0.524 -1.612,0.557 -3.269,1.12 -4.842,1.821 0.465,-0.78 1.042,-1.441 1.802,-1.959 0.616,-0.426 1.566,-0.963 2.391,-0.989 0.144,0.013 0.282,0.02 0.426,0.033 0,-0.007 0,-0.007 0,-0.013 0.262,-0.013 0.354,-0.426 0.066,-0.472 -1.651,-0.242 -3.354,-0.242 -5.005,0.039 0.111,-0.884 3.086,-1.271 3.617,-1.297 0.93,-0.052 1.821,0.131 2.738,0.236 0.151,0.19 0.537,0.039 0.491,-0.262 -0.177,-1.12 -0.072,-2.195 -0.059,-3.296 0.138,0.059 0.282,0.105 0.426,0.151 0.262,0.072 0.511,0.105 0.753,0.131 -0.19,0.937 -0.131,2.07 0.098,2.968 0.033,0.151 0.197,0.197 0.315,0.157 0.052,0.039 0.118,0.079 0.203,0.079 z"
   id="path394" />

				<path
   style="fill:#1d1d1b"
   d="m 489.399,368.874 c 0.098,-0.164 0.387,-0.053 0.308,0.131 -0.314,0.78 -0.956,1.468 -1.664,1.907 -0.118,0.065 -0.249,-0.105 -0.144,-0.19 0.642,-0.531 1.081,-1.134 1.5,-1.848 z"
   id="path395" />

				<path
   style="fill:#b17f4a"
   d="m 489.15,376.029 c 0.144,2.457 -0.721,4.678 -2.411,6.466 0.046,-0.793 0.046,-1.579 -0.007,-2.378 -0.026,-0.419 -0.688,-0.426 -0.662,0 0.105,1.769 0.026,3.492 -0.367,5.228 -0.347,1.513 -1.055,4.724 -2.739,5.366 -0.046,-1.225 -0.19,-2.385 -0.373,-3.302 -0.059,-0.288 -0.537,-0.223 -0.518,0.072 0.242,3.158 0.786,7.908 -1.277,10.666 -0.308,-1.474 -0.976,-2.739 -1.422,-4.219 -0.085,-0.282 -0.577,-0.242 -0.537,0.072 0.164,1.382 1.002,2.555 1.297,3.918 0.459,2.083 0.033,3.911 -0.301,5.949 -0.013,-0.059 -0.046,-0.111 -0.111,-0.157 -1.409,-0.93 -2.516,-2.083 -3.354,-3.394 0.485,0.629 1.179,1.107 1.913,1.35 0.092,0.033 0.157,-0.111 0.065,-0.157 -0.976,-0.491 -1.612,-1.225 -2.162,-2.149 -0.085,-0.151 -0.354,-0.052 -0.288,0.118 0.033,0.098 0.079,0.197 0.125,0.288 -4.75,-8.386 0.793,-22.413 9.1,-26.148 0.059,-0.026 0.072,-0.072 0.079,-0.124 0.937,-0.013 1.867,-0.17 2.771,-0.452 -0.806,0.904 -1.402,1.952 -1.559,3.191 -0.02,0.151 0.144,0.288 0.282,0.282 0.838,-0.041 1.664,-0.205 2.456,-0.486 z m -11.065,24.509 c 0.138,0.066 0.249,-0.124 0.118,-0.21 -0.773,-0.472 -1.179,-1.199 -1.356,-2.07 -0.046,-0.197 -0.373,-0.157 -0.36,0.052 0.071,0.97 0.733,1.815 1.598,2.228 z"
   id="path396" />

				<path
   style="fill:#1d1d1b"
   d="m 488.652,369.012 c 0.118,-0.092 0.269,0.053 0.17,0.17 -0.465,0.55 -1.035,1.107 -1.645,1.487 -0.046,0.033 -0.098,-0.026 -0.072,-0.066 0.408,-0.595 0.984,-1.146 1.547,-1.591 z"
   id="path397" />

				<path
   style="fill:#1d1d1b"
   d="m 478.203,400.328 c 0.131,0.085 0.02,0.275 -0.118,0.21 -0.865,-0.413 -1.526,-1.258 -1.599,-2.227 -0.013,-0.21 0.315,-0.249 0.36,-0.052 0.177,0.87 0.584,1.598 1.357,2.069 z"
   id="path398" />

			</g>
    </g>
  </g>
</svg>
