<?xml version="1.0" encoding="utf-8"?>
<svg xmlns="http://www.w3.org/2000/svg" viewBox="221.029 223.881 14.106 23.981" width="100%" height="100%"><g id="object-4" transform="matrix(1, 0, 0, 1, -2.842170943040401e-14, -2.842170943040401e-14)"><path d="M 221.734 223.881 C 221.345 223.881 221.029 224.197 221.029 224.586 L 221.029 228.465 C 221.029 228.855 221.345 229.17 221.734 229.171 L 227.729 229.171 C 228.119 229.17 228.434 228.855 228.435 228.465 L 228.435 224.586 C 228.434 224.197 228.119 223.881 227.729 223.881 L 221.734 223.881 Z" stroke-width="0.352671" style="stroke-width: 0.353; fill: rgb(255, 255, 255);" id="object-1"/><path d="M 228.435 234.108 C 228.045 234.109 227.73 234.424 227.729 234.813 L 227.729 238.693 C 227.73 239.082 228.045 239.398 228.435 239.398 L 234.43 239.398 C 234.819 239.398 235.135 239.082 235.135 238.693 L 235.135 234.813 C 235.135 234.424 234.819 234.109 234.43 234.108 L 228.435 234.108 Z" stroke-width="0.352671" style="stroke-width: 0.353; fill: rgb(255, 255, 255);" id="object-2"/><path d="M 222.087 242.572 C 221.697 242.573 221.382 242.888 221.381 243.278 L 221.381 247.157 C 221.382 247.546 221.697 247.862 222.087 247.862 L 228.082 247.862 C 228.471 247.862 228.787 247.546 228.787 247.157 L 228.787 243.278 C 228.787 242.888 228.471 242.573 228.082 242.572 L 222.087 242.572 Z" stroke-width="0.352671" style="stroke-width: 0.353; fill: rgb(255, 255, 255);" id="object-3"/></g></svg>