<?xml version="1.0" encoding="utf-8"?>
<svg width="100%" height="100%" viewBox="0 0 300 269" version="1.1" id="svg1" xmlns="http://www.w3.org/2000/svg"><g transform="matrix(1, 0, 0, 1, -251.896835, 0)" style="transform-origin: 105.908px 195.825px;" id="object-0"><title>cuerpo</title><path d="m 157.79236,195.78296 a 51.884978,51.884978 0 1 1 -51.8426,-51.84259 51.668047,51.668047 0 0 1 51.8426,51.84259 z" fill="#3f3d56" id="path4" style="stroke-width:0.352671"/><path d="m 157.79236,195.78296 a 51.668047,51.668047 0 0 1 -4.65878,21.50939 61.407278,61.407278 0 0 1 -59.693047,-71.83198 51.884978,51.884978 0 0 1 64.351827,50.32259 z" fill="#6c63ff" id="path5" style="stroke-width: 0.352671;"/><animateMotion path="M -1.125 0 L 249.944 0" calcMode="linear" dur="7s" fill="freeze" end="7s" max="7s"/><animateTransform type="translate" additive="sum" attributeName="transform" values="0 0;0 2;0 5;0 0" begin="0s" dur="0.7s" fill="freeze" keyTimes="0; 0.392105; 0.745892; 1" repeatCount="indefinite" end="7s" max="7s" calcMode="spline" keySplines="0.45 0 0.55 1; 0 0 1 1; 0 0 1 1"/><animateTransform type="rotate" additive="sum" attributeName="transform" values="0;4;0" begin="0s" dur="0.53s" fill="freeze" keyTimes="0; 0.483492; 1" repeatCount="indefinite" end="7s" max="7s" calcMode="spline" keySplines="0.42 0 0.58 1; 0 0 1 1"/></g><g transform="matrix(1, 0, 0, 1, -251.896835, 0)" style="transform-origin: 157.263px 132.754px;" id="object-1"><title>cabeza</title><circle cx="99.601692" cy="95.624474" r="20.10223" fill="#3f3d56" id="circle1" style="stroke-width:0.352671"/><circle cx="214.92502" cy="102.32522" r="20.10223" fill="#3f3d56" id="circle2" style="stroke-width:0.352671"/><path d="M 215.27768,81.517651 A 20.100883,20.100883 0 0 0 196.97443,93.310314 20.099272,20.099272 0 0 1 228.64359,116.63019 20.098933,20.098933 0 0 0 215.27768,81.517651 Z" fill="#6c63ff" id="path2" style="stroke-width:0.352671"/><path d="M 99.249019,74.816907 A 20.100883,20.100883 0 0 1 117.55228,86.60957 20.099272,20.099272 0 0 0 85.883117,109.92945 20.098933,20.098933 0 0 1 99.249019,74.816907 Z" fill="#6c63ff" id="path3" style="stroke-width:0.352671"/><circle cx="153.91298" cy="148.17241" r="61.364704" fill="#3f3d56" id="circle5" style="stroke-width:0.352671"/><circle cx="158.4977" cy="150.28844" r="3.8793778" fill="#ff6584" id="circle9" style="stroke-width:0.352671"/><path d="m 128.82478,92.692625 c -2.55679,-4.116418 -4.27418,-8.951939 -3.74205,-13.768465 0.53214,-4.816527 3.68728,-9.516428 8.33236,-10.896735 4.64508,-1.380308 10.39928,1.479305 11.27467,6.245413 a 39.191464,39.191464 0 0 1 20.76477,-17.293772 c 4.05977,-1.430556 9.45492,-1.754964 11.80238,1.853031 1.16181,1.78567 1.28608,4.213505 2.84238,5.668264 2.43973,2.280552 6.35206,0.674307 9.68601,0.869231 4.68846,0.27411 8.46274,4.649724 9.05335,9.308902 0.59061,4.659179 -1.47297,9.341398 -4.51892,12.916167 -3.04595,3.574769 -7.00825,6.226778 -10.91637,8.831276" fill="#3f3d56" id="path11" style="stroke-width: 0.352671; transform-box: fill-box; transform-origin: 50% 50%;"><animateTransform type="translate" additive="sum" attributeName="transform" values="0 0;0 3;0 0" dur="0.47s" fill="freeze" keyTimes="0; 0.430449; 1" calcMode="spline" keySplines="0.33 1 0.68 1; 0 0 1 1" repeatCount="indefinite" end="7s" max="7s"/></path><path d="m 168.82539,150.27141 a 20.102026,20.102026 0 0 1 28.07981,-4.15079 20.102971,20.102971 0 1 0 -28.07981,4.15079 z" fill="#ffffff" id="path6" style="stroke-width:0.352671"/><path d="M 121.92019,154.15079 A 20.102026,20.102026 0 0 1 150,150 a 20.102971,20.102971 0 1 0 -28.07981,4.15079 z" fill="#ffffff" id="path7" style="stroke-width:0.352671"/><animateMotion path="M 1.134 0 L 255.357 0" calcMode="linear" dur="7s" fill="freeze" end="7s" max="7s"/><animateTransform type="translate" additive="sum" attributeName="transform" values="0 0;0 -3;0 6;0 0;0 8;0 -2;0 0" begin="0s" dur="1.46s" fill="freeze" keyTimes="0; 0.165928; 0.25031; 0.3675; 0.531562; 0.672191; 1" calcMode="spline" keySplines="0.45 0 0.55 1; 0.33 1 0.68 1; 0 0 1 1; 0 0 1 1; 0.33 1 0.68 1; 0 0 1 1" end="7s" repeatCount="indefinite" max="7s"/><animateTransform type="rotate" additive="sum" attributeName="transform" values="0;5;-4;0" begin="0s" dur="0.71s" fill="freeze" keyTimes="0; 0.392888; 0.675679; 1" end="7s" repeatCount="indefinite" max="7s"/></g><g transform="matrix(1, 0, 0, 1, -251.896835, 0)" id="object-2" style="transform-origin: 159.203px 131.244px;"><title>ojos</title><circle cx="135.22144" cy="134.06558" r="7.406085" fill="#3f3d56" id="circle7" style="stroke-width:0.352671"/><circle cx="183.18465" cy="128.42285" r="7.406085" fill="#3f3d56" id="circle8" style="stroke-width:0.352671"/><animateMotion path="M -0.806 0 L 259.27 0" calcMode="linear" dur="7s" fill="freeze" end="7s" max="7s"/><animateTransform type="rotate" additive="sum" attributeName="transform" values="0;-9;5;0" begin="0s" dur="1.13s" fill="freeze" end="7s" max="7s" repeatCount="indefinite" keyTimes="0; 0.28494; 0.575761; 1" calcMode="spline" keySplines="0 0 1 1; 0.33 1 0.68 1; 0 0 1 1"/></g><path d="M -151.59 260.1 L -151.59 243.041 L -157.24 243.041 L -157.24 260.1 C -160.62 261.296 -162.88 264.493 -162.88 268.08 L -145.95 268.08 C -145.95 264.493 -148.21 261.296 -151.59 260.1 Z" fill="#3f3d56" id="path9" style="stroke-width:0.352671"><title>pata</title><animateMotion path="M -7.562 0 C 12.735 0 244.809 0 244.809 0" calcMode="linear" dur="7s" fill="freeze" end="7s" max="7s"/><animateTransform type="translate" additive="sum" attributeName="transform" values="0 0;0 0;0 -11;0 0" dur="0.4s" fill="freeze" end="7s" max="7s" keyTimes="0; 0.5; 0.750743; 1" repeatCount="indefinite" calcMode="spline" keySplines="0 0 1 1; 0.32 0 0.67 0; 0 0 1 1"/></path><path d="M -130.79 260.1 L -130.79 243.041 L -136.43 243.041 L -136.43 260.1 C -139.81 261.296 -142.07 264.493 -142.07 268.08 L -125.14 268.08 C -125.14 264.493 -127.4 261.296 -130.79 260.1 Z" fill="#3f3d56" id="path10" style="stroke-width:0.352671"><title>pata</title><animateMotion path="M -7.722 0 L 242.044 0" calcMode="linear" dur="7s" fill="freeze" end="7s" max="7s"/><animateTransform type="translate" additive="sum" attributeName="transform" values="0 0;0 -11;0 0;0 0" dur="0.4s" fill="freeze" max="7s" end="7s" keyTimes="0; 0.238243; 0.5; 1" repeatCount="indefinite" calcMode="spline" keySplines="0.5 1 0.89 1; 0 0 1 1; 0 0 1 1"/></path><path d="M -174.86 223.7 C -173.02 224.309 -171.73 225.87 -170.66 227.401 C -169.55 228.978 -168.53 230.691 -167.02 231.924 C -165.73 233.042 -164.03 233.555 -162.33 233.331 C -160.67 233.081 -159.27 231.92 -159.01 230.207 C -158.68 227.952 -160.26 225.864 -161.64 224.26 L -162.02 225.163 C -159.81 225.401 -157.89 226.658 -155.87 227.468 C -153.94 228.244 -151.65 228.667 -149.71 227.656 C -148.23 226.88 -147.31 225.328 -146.99 223.719 C -146.67 221.963 -146.94 220.15 -147.76 218.563 C -148.78 216.458 -150.47 214.757 -152.11 213.119 L -152.63 214.004 C -150.19 214.369 -147.48 214.71 -145.36 213.146 C -144.52 212.55 -143.92 211.671 -143.67 210.668 C -143.45 209.56 -143.64 208.411 -144.18 207.425 C -145.29 205.262 -147.39 203.737 -149.27 202.286 C -153.66 198.897 -158.41 196.009 -163.43 193.678 C -164.05 193.392 -164.58 194.304 -163.97 194.591 C -159.66 196.591 -155.55 198.998 -151.7 201.779 C -149.85 203.118 -147.89 204.499 -146.35 206.197 C -145.04 207.639 -143.85 209.845 -145.28 211.628 C -146.96 213.725 -150.01 213.334 -152.34 212.983 C -152.74 212.887 -153.1 213.258 -152.98 213.653 C -152.96 213.733 -152.92 213.806 -152.86 213.868 C -150.42 216.309 -147.52 219.24 -147.94 222.998 C -148.11 224.422 -148.78 225.877 -150.05 226.631 C -151.77 227.655 -153.93 227.127 -155.66 226.419 C -157.77 225.56 -159.71 224.354 -162.02 224.105 C -162.51 224.051 -162.66 224.698 -162.39 225.008 C -161.27 226.305 -159.93 227.993 -160.03 229.812 C -160.11 231.334 -161.44 232.245 -162.86 232.331 C -166.48 232.55 -168.31 228.781 -170.15 226.309 C -171.31 224.745 -172.69 223.308 -174.58 222.68 C -175.23 222.465 -175.5 223.486 -174.86 223.7 Z" fill="#6c63ff" id="path18" style="stroke-width: 0.352671; transform-box: fill-box; transform-origin: 0.32023% 0.10349%;"><title>mano</title><animateMotion path="M 1.507 0 L 246.731 0" calcMode="linear" dur="7s" fill="freeze" end="7s" max="7s"/><animateTransform type="rotate" additive="sum" attributeName="transform" values="0;13;-17;14;0;-27;0" begin="0s" dur="2.46s" fill="freeze" keyTimes="0; 0.135; 0.18485; 0.29033; 0.763736; 0.851392; 1" end="7s" max="7s" repeatCount="indefinite" calcMode="spline" keySplines="0 0 1 1; 0 0 1 1; 0 0 1 1; 0 0 1 1; 0.65 0 0.35 1; 0 0 1 1"/></path></svg>