<?xml version="1.0" encoding="utf-8"?>
<svg width="100%" height="100%" viewBox="0 0 300 269" version="1.1" id="svg1" xmlns="http://www.w3.org/2000/svg"><g transform="matrix(1, 0, 0, 1, -0.1899, 0)" style="transform-origin: 105.908px 195.825px;" id="object-0"><title>cuerpo</title><path d="m 157.79236,195.78296 a 51.884978,51.884978 0 1 1 -51.8426,-51.84259 51.668047,51.668047 0 0 1 51.8426,51.84259 z" fill="#3f3d56" id="path4" style="stroke-width:0.352671"/><path d="m 157.79236,195.78296 a 51.668047,51.668047 0 0 1 -4.65878,21.50939 61.407278,61.407278 0 0 1 -59.693047,-71.83198 51.884978,51.884978 0 0 1 64.351827,50.32259 z" fill="#6c63ff" id="path5" style="stroke-width: 0.352671;"/><animateTransform type="translate" additive="sum" attributeName="transform" values="0 0;0 -2;0 1;0 0" begin="0.03s" dur="1.13s" fill="freeze" repeatCount="indefinite" keyTimes="0; 0.313796; 0.579291; 1" calcMode="spline" keySplines="0.32 0 0.67 0; 0.5 1 0.89 1; 0 0 1 1"/><animateTransform type="rotate" additive="sum" attributeName="transform" values="0;-4;0" begin="0s" dur="0.7s" fill="freeze" repeatCount="indefinite" keyTimes="0; 0.376431; 1" calcMode="spline" keySplines="0.11 0 0.5 0; 0 0 1 1"/></g><g transform="matrix(1, 0, 0, 1, -0.1899, 0)" style="transform-origin: 157.263px 132.754px;" id="object-1"><title>cabeza</title><circle cx="99.601692" cy="95.624474" r="20.10223" fill="#3f3d56" id="circle1" style="stroke-width:0.352671"/><circle cx="214.92502" cy="102.32522" r="20.10223" fill="#3f3d56" id="circle2" style="stroke-width:0.352671"/><path d="M 215.27768,81.517651 A 20.100883,20.100883 0 0 0 196.97443,93.310314 20.099272,20.099272 0 0 1 228.64359,116.63019 20.098933,20.098933 0 0 0 215.27768,81.517651 Z" fill="#6c63ff" id="path2" style="stroke-width:0.352671"/><path d="M 99.249019,74.816907 A 20.100883,20.100883 0 0 1 117.55228,86.60957 20.099272,20.099272 0 0 0 85.883117,109.92945 20.098933,20.098933 0 0 1 99.249019,74.816907 Z" fill="#6c63ff" id="path3" style="stroke-width:0.352671"/><circle cx="153.91298" cy="148.17241" r="61.364704" fill="#3f3d56" id="circle5" style="stroke-width:0.352671"/><circle cx="158.4977" cy="150.28844" r="3.8793778" fill="#ff6584" id="circle9" style="stroke-width:0.352671"/><path d="m 128.82478,92.692625 c -2.55679,-4.116418 -4.27418,-8.951939 -3.74205,-13.768465 0.53214,-4.816527 3.68728,-9.516428 8.33236,-10.896735 4.64508,-1.380308 10.39928,1.479305 11.27467,6.245413 a 39.191464,39.191464 0 0 1 20.76477,-17.293772 c 4.05977,-1.430556 9.45492,-1.754964 11.80238,1.853031 1.16181,1.78567 1.28608,4.213505 2.84238,5.668264 2.43973,2.280552 6.35206,0.674307 9.68601,0.869231 4.68846,0.27411 8.46274,4.649724 9.05335,9.308902 0.59061,4.659179 -1.47297,9.341398 -4.51892,12.916167 -3.04595,3.574769 -7.00825,6.226778 -10.91637,8.831276" fill="#3f3d56" id="path11" style="stroke-width: 0.352671; transform-box: fill-box; transform-origin: 50% 50%;"><animateTransform type="skewX" additive="sum" attributeName="transform" values="0;0;-9;0" begin="0s" dur="2s" fill="freeze" repeatCount="indefinite" keyTimes="0; 0.541689; 0.766699; 1" calcMode="spline" keySplines="0 0 1 1; 0.5 1 0.89 1; 0 0 1 1"/></path><path d="m 168.82539,150.27141 a 20.102026,20.102026 0 0 1 28.07981,-4.15079 20.102971,20.102971 0 1 0 -28.07981,4.15079 z" fill="#ffffff" id="path6" style="stroke-width:0.352671"/><path d="M 121.92019,154.15079 A 20.102026,20.102026 0 0 1 150,150 a 20.102971,20.102971 0 1 0 -28.07981,4.15079 z" fill="#ffffff" id="path7" style="stroke-width:0.352671"/><animateTransform type="translate" additive="sum" attributeName="transform" values="0 0;0 5;0 -2;0 2;0 0" begin="0s" dur="2s" fill="freeze" keyTimes="0; 0.231964; 0.434914; 0.704044; 1" repeatCount="indefinite" calcMode="spline" keySplines="0.5 1 0.89 1; 0.45 0 0.55 1; 0.11 0 0.5 0; 0 0 1 1"/><animateTransform type="rotate" additive="sum" attributeName="transform" values="0;8;-3;0" begin="0s" dur="1.3s" fill="freeze" repeatCount="indefinite" keyTimes="0; 0.275413; 0.689455; 1"/></g><g transform="matrix(1, 0, 0, 1, -0.1899, 0)" id="object-2" style="transform-origin: 159.203px 131.244px;"><title>ojos</title><circle cx="135.22144" cy="134.06558" r="7.406085" fill="#3f3d56" id="circle7" style="stroke-width:0.352671"/><circle cx="183.18465" cy="128.42285" r="7.406085" fill="#3f3d56" id="circle8" style="stroke-width:0.352671"/><animateTransform type="rotate" additive="sum" attributeName="transform" values="0;-3;0;8;0;0" begin="0s" dur="3.03s" fill="freeze" keyTimes="0; 0.148584; 0.337873; 0.463095; 0.588317; 1" calcMode="spline" keySplines="0.5 1 0.89 1; 0 0 1 1; 0 0 1 1; 0 0 1 1; 0 0 1 1" repeatCount="indefinite"/></g><path d="M 100.121 260.1 L 100.121 243.041 L 94.471 243.041 L 94.471 260.1 C 91.091 261.296 88.831 264.493 88.831 268.08 L 105.761 268.08 C 105.761 264.493 103.501 261.296 100.121 260.1 Z" fill="#3f3d56" id="path9" style="stroke-width:0.352671"><title>pata</title><animateTransform type="translate" additive="sum" attributeName="transform" values="0 0;0 -9;0 0;0 0" dur="5s" fill="freeze" keyTimes="0; 0.093287; 0.2; 1" repeatCount="indefinite" calcMode="spline" keySplines="0.45 0 0.55 1; 0 0 1 1; 0 0 1 1"/></path><path d="M 120.921 260.1 L 120.921 243.041 L 115.281 243.041 L 115.281 260.1 C 111.901 261.296 109.641 264.493 109.641 268.08 L 126.571 268.08 C 126.571 264.493 124.311 261.296 120.921 260.1 Z" fill="#3f3d56" id="path10" style="stroke-width:0.352671"><title>pata</title><animateTransform type="translate" additive="sum" attributeName="transform" values="0 0;0 0;0 -10;0 0;0 0" begin="0s" dur="5s" fill="freeze" keyTimes="0; 0.603296; 0.70918; 0.806241; 1" repeatCount="indefinite" calcMode="spline" keySplines="0 0 1 1; 0.5 1 0.89 1; 0 0 1 1; 0 0 1 1"/></path><path d="M 76.851 223.7 C 78.691 224.309 79.981 225.87 81.051 227.401 C 82.161 228.978 83.181 230.691 84.691 231.924 C 85.981 233.042 87.681 233.555 89.381 233.331 C 91.041 233.081 92.441 231.92 92.701 230.207 C 93.031 227.952 91.451 225.864 90.071 224.26 L 89.691 225.163 C 91.901 225.401 93.821 226.658 95.841 227.468 C 97.771 228.244 100.061 228.667 102.001 227.656 C 103.481 226.88 104.401 225.328 104.721 223.719 C 105.041 221.963 104.771 220.15 103.951 218.563 C 102.931 216.458 101.241 214.757 99.601 213.119 L 99.081 214.004 C 101.521 214.369 104.231 214.71 106.351 213.146 C 107.191 212.55 107.791 211.671 108.041 210.668 C 108.261 209.56 108.071 208.411 107.531 207.425 C 106.421 205.262 104.321 203.737 102.441 202.286 C 98.051 198.897 93.301 196.009 88.281 193.678 C 87.661 193.392 87.131 194.304 87.741 194.591 C 92.051 196.591 96.161 198.998 100.011 201.779 C 101.861 203.118 103.821 204.499 105.361 206.197 C 106.671 207.639 107.861 209.845 106.431 211.628 C 104.751 213.725 101.701 213.334 99.371 212.983 C 98.971 212.887 98.611 213.258 98.731 213.653 C 98.751 213.733 98.791 213.806 98.851 213.868 C 101.291 216.309 104.191 219.24 103.771 222.998 C 103.601 224.422 102.931 225.877 101.661 226.631 C 99.941 227.655 97.781 227.127 96.051 226.419 C 93.941 225.56 92.001 224.354 89.691 224.105 C 89.201 224.051 89.051 224.698 89.321 225.008 C 90.441 226.305 91.781 227.993 91.681 229.812 C 91.601 231.334 90.271 232.245 88.851 232.331 C 85.231 232.55 83.401 228.781 81.561 226.309 C 80.401 224.745 79.021 223.308 77.131 222.68 C 76.481 222.465 76.211 223.486 76.851 223.7 Z" fill="#6c63ff" id="path18" style="stroke-width: 0.352671; transform-box: fill-box; transform-origin: 0.32023% 0.10349%;"><title>mano</title><animateTransform type="rotate" additive="sum" attributeName="transform" values="0;17;-15;3;-23;17;8;0" dur="3.06s" fill="freeze" keyTimes="0; 0.07117; 0.1871; 0.2745; 0.41687; 0.49223; 0.58216; 1" calcMode="spline" keySplines="0.11 0 0.5 0; 0.33 1 0.68 1; 0 0 1 1; 0.45 0 0.55 1; 0.11 0 0.5 0; 0 0 1 1; 0 0 1 1" repeatCount="indefinite"/></path></svg>