<?xml version="1.0" encoding="UTF-8" standalone="no"?>
<!-- Created with Inkscape (http://www.inkscape.org/) -->

<svg
   width="185.27412mm"
   height="53.767601mm"
   viewBox="0 0 185.27412 53.767601"
   version="1.1"
   id="svg1"
   xml:space="preserve"
   xmlns="http://www.w3.org/2000/svg"
   xmlns:svg="http://www.w3.org/2000/svg"><defs
     id="defs1" /><path
     fill-rule="nonzero"
     fill="#008000"
     fill-opacity="1"
     d="m 92.169948,24.770308 c -0.6391,-3.83461 -2.542807,-5.79551 -5.750897,-5.28126 3.55479,-1.06919 6.571416,1.03563 7.515256,5.06132 0.63275,-5.61944 -1.336679,-11.95628 -7.645696,-11.95628 6.120227,-1.92799 9.055616,5.24973 9.671706,10.78258 0,0 0.92502,-1.29765 -0.39221,-7.70175 1.19518,2.42799 2.09109,4.86858 2.09109,7.77498 0.31644,-3.68586 0.36882,-7.89538 2.614123,-10.41542 -0.598163,2.75079 -1.111143,7.15241 -0.326733,9.75534 0.284403,-5.69686 1.667363,-8.52316 4.116713,-10.92891 -2.31332,3.52795 -1.63341,8.06752 -1.63341,12.39578 0.43124,-6.31841 2.7527,-9.60851 8.29928,-9.60851 -7.07714,2.06109 -6.66587,6.07305 -6.66587,11.44254 0.31962,-2.16687 1.77517,-4.33971 2.87551,-5.57481 -1.13911,2.30163 -1.30706,4.76179 -1.30706,7.33523 -4.44357,0 -8.887403,0 -13.331232,0 0.2933,-1.11725 0.007,-2.00159 -0.13057,-3.08083"
     id="path2"
     style="stroke-width:0.0325462" /><path
     fill-rule="nonzero"
     fill="#008000"
     fill-opacity="1"
     d="m 34.835617,19.697158 c -0.724838,-2.22761 -2.312585,-0.55257 -3.093869,-1.77218 -1.533453,-2.39343 2.273956,-3.11445 3.659873,0.11233 -0.46934,-2.16592 -1.563986,-2.98846 -2.711575,-3.86274 -3.244113,-2.47142 3.062229,-4.09988 3.758999,2.27355 -4.212357,-13.0006005 -0.45137,-12.7489305 0.78843,-0.0556 -0.474186,-12.3187005 1.843733,-9.0949405 0.974372,0.37793 1.292668,-12.6550505 1.61868,-4.71787 1.861297,0.76212 0.03233,-6.66908 1.605874,-13.9184605 1.83236,-7.48255 0.09499,2.70299 -0.392549,4.59076 -0.708225,6.80819 1.244658,-7.6346205 4.448859,-5.33761 0.894241,0.68111 4.584003,-6.4123 5.993449,-1.97847 1.068972,0.78677 3.943827,-1.5438 4.298133,1.5511 -0.09484,1.15688 -0.226085,1.51963 -7.190879,1.70239 -8.230037,0.21416"
     id="path4"
     style="stroke-width:0.0203507" /><path
     fill-rule="nonzero"
     fill="#55d400"
     fill-opacity="1"
     d="m 50.788821,35.340978 c -4.316639,-0.61579 -5.248787,-2.81274 -6.248454,-5.72917 3.135541,0.77572 3.910501,2.47838 5.311286,3.64584 -2.402723,-3.40712 -5.128439,-5.48817 -6.261049,-8.64512 5.024275,1.3648 5.293015,5.02589 8.291724,8.77532 -1.31726,-2.61833 -2.030675,-5.42056 -2.030675,-8.33368 1.813171,2.10056 3.905302,5.35078 3.905302,8.07328 -0.343923,-5.01737 0.145353,-9.87802 2.811885,-14.32334 -0.09024,4.87655 0.396477,9.9762 -1.093507,14.32334 0.592299,-2.5727 2.712368,-5.08308 4.530173,-6.90118 -0.219776,2.88595 -0.936223,5.6627 -2.655643,7.81269 1.27219,-1.56138 3.342356,-1.96619 5.155051,-2.34392 -1.903981,1.77737 -3.44538,3.06367 -5.467535,3.90653 -2.389368,0.005 -4.359258,0.52696 -6.248558,-0.26059"
     id="path5"
     style="stroke-width:0.0242412" /><path
     fill-rule="nonzero"
     fill="#71c837"
     fill-opacity="1"
     d="m 121.20413,35.963718 c 2.99844,-0.26135 4.21363,0.0456 5.58849,1.97481 -1.98555,-7.21863 -5.8896,-4.10159 -6.49562,-10.33824 3.01908,4.5639 4.54364,0.47192 8.60681,9.40894 -0.2625,-7.28596 -4.70371,-6.73196 -2.04908,-13.93927 -0.31604,2.88907 1.16278,4.27116 1.86276,6.56315 1.22736,2.71454 1.55244,5.33713 1.55244,8.42154 -0.14219,-5.58069 4.92226,-8.16209 4.22228,-14.0554 1.49717,5.86316 -2.60784,9.23813 -2.60784,14.98469 -2.80138,-6.70315 8.67405,-5.66534 9.0658,-8.59587 -1.35347,4.4376 -7.32715,2.99483 -7.32715,8.59587 0.98218,-3.10021 4.41611,-3.55843 7.20293,-4.76258 -5.01433,4.42324 -4.74992,3.80152 -5.34007,7.66658 -2.90495,0.13695 -6.33203,0.058 -9.25201,0.058 -0.40716,-3.2383 -0.57121,-4.07277 -5.02974,-5.98224"
     id="path7-5"
     style="stroke-width:0.0243474" /><path
     fill-rule="nonzero"
     fill="#71c837"
     fill-opacity="1"
     d="M 6.9366696,32.486458 C 5.6467696,29.083098 3.6507696,27.455788 -1.5925324e-8,25.731348 3.0219696,25.252688 5.0296596,26.133978 6.9366696,28.759538 6.6888896,22.885588 2.10508,20.321168 0.67660998,16.879788 3.9462296,18.816168 7.4622396,21.625558 8.4594696,26.430198 8.3812696,18.934908 6.1929396,9.9455375 2.19954,5.2329475 6.4910696,7.7246475 8.8734196,16.916538 10.48967,24.333768 9.9929596,18.074088 9.5523196,11.314258 8.2902596,5.2329475 9.9585096,9.6565675 10.87145,16.362108 11.67405,20.782028 11.51908,13.790828 11.26913,8.2568275 14.82976,3.3546775 12.16936,12.232548 13.05142,16.715538 13.05142,24.306808 c -0.39348,-4.81696 1.93357,-10.77089 3.35976,-13.71632 -0.93151,5.65402 -2.13216,10.64109 -2.13216,16.50106 -0.13019,-4.17087 2.34523,-7.93301 5.17752,-9.04708 -2.2223,2.5428 -3.1697,5.24756 -3.91509,8.8396 1.21439,-2.26311 2.7883,-2.1956 4.59194,-2.5503 -3.64937,2.63688 -3.72221,3.85863 -4.56816,8.3856 -2.86369,-0.17785 -5.8091204,0.32165 -8.6285604,-0.23291"
     id="path9"
     style="stroke-width:0.0325462" /><path
     fill-rule="nonzero"
     fill="#55d400"
     fill-opacity="1"
     d="m 78.026574,49.850808 c -4.316639,-0.61579 -5.248787,-2.81274 -6.248454,-5.72917 3.135541,0.77572 3.910501,2.47838 5.311286,3.64584 -2.402723,-3.40712 -5.128439,-5.48817 -6.261049,-8.64512 5.024275,1.3648 5.293015,5.02589 8.291724,8.77532 -1.31726,-2.61833 -2.030675,-5.42056 -2.030675,-8.33368 1.813171,2.10056 3.905302,5.35078 3.905302,8.07328 -0.343923,-5.01737 0.145353,-9.87802 2.811885,-14.32334 -0.09024,4.87655 0.396477,9.9762 -1.093507,14.32334 0.592299,-2.5727 2.712368,-5.08308 4.530173,-6.90118 -0.219776,2.88595 -0.936223,5.6627 -2.655643,7.81269 1.27219,-1.56138 3.342356,-1.96619 5.155051,-2.34392 -1.903981,1.77737 -3.44538,3.06367 -5.467535,3.90653 -2.389368,0.005 -4.359258,0.52696 -6.248558,-0.26059"
     id="path15"
     style="stroke-width:0.0242412" /><path
     fill-rule="nonzero"
     fill="#71c837"
     fill-opacity="1"
     d="m 148.83204,29.131788 c -1.2899,-3.40336 -3.2859,-5.03067 -6.93667,-6.75511 3.02197,-0.47866 5.02966,0.40263 6.93667,3.02819 -0.24778,-5.87395 -4.83159,-8.43837 -6.26006,-11.87975 3.26962,1.93638 6.78563,4.74577 7.78286,9.55041 -0.0782,-7.49529 -2.26653,-16.4846605 -6.25993,-21.1972505 4.29153,2.4917 6.67388,11.6835905 8.29013,19.1008205 -0.49671,-6.25968 -0.93735,-13.0195105 -2.19941,-19.1008205 1.66825,4.42362 2.58119,11.1291605 3.38379,15.5490805 C 153.41445,10.436158 153.1645,4.9021575 156.72513,7.4490411e-6 154.06473,8.8778775 154.94679,13.360868 154.94679,20.952138 c -0.39348,-4.81696 1.93357,-10.77089 3.35976,-13.7163205 -0.93151,5.6540205 -2.13216,10.6410905 -2.13216,16.5010605 -0.13019,-4.17087 2.34523,-7.93301 5.17752,-9.04708 -2.2223,2.5428 -3.1697,5.24756 -3.91509,8.8396 1.21439,-2.26311 2.7883,-2.1956 4.59194,-2.5503 -3.64937,2.63688 -3.72221,3.85863 -4.56816,8.3856 -2.86369,-0.17785 -5.80912,0.32165 -8.62856,-0.23291"
     id="path16"
     style="stroke-width:0.0325462" /><path
     fill-rule="nonzero"
     fill="#008000"
     fill-opacity="1"
     d="m 157.07246,52.651728 c -0.78854,-2.42338 -2.51582,-0.60113 -3.36577,-1.92793 -1.66822,-2.60377 2.4738,-3.38816 3.98151,0.1222 -0.51058,-2.35626 -1.70143,-3.25109 -2.94987,-4.20221 -3.52922,-2.68861 3.33134,-4.46018 4.08935,2.47336 -4.58255,-14.14313 -0.49104,-13.86934 0.85772,-0.0605 -0.51586,-13.4013 2.00576,-9.89423 1.06,0.41114 1.40627,-13.76721 1.76093,-5.13249 2.02487,0.82909 0.0352,-7.25516 1.74701,-15.14165 1.9934,-8.14013 0.10334,2.94054 -0.42705,4.99421 -0.77047,7.40651 1.35404,-8.30557 4.83984,-5.8067 0.97283,0.74097 4.98686,-6.97584 6.52017,-2.15234 1.16292,0.85591 4.29042,-1.67947 4.67586,1.68742 -0.10318,1.25856 -0.24595,1.65317 -7.82283,1.85199 -8.95331,0.23298"
     id="path17"
     style="stroke-width:0.0221392" /><path
     fill-rule="nonzero"
     fill="#008000"
     fill-opacity="1"
     d="m 19.475897,52.162308 c -1.134387,-3.48624 -3.619247,-0.86478 -4.841974,-2.7735 -2.399888,-3.74577 3.558792,-4.87418 5.727783,0.1758 -0.734527,-3.38971 -2.447673,-4.67701 -4.243675,-6.04528 -5.07711,-3.86782 4.792457,-6.4164 5.882917,3.55816 -6.592433,-20.34623 -0.706404,-19.95234 1.233911,-0.087 -0.742112,-19.27905 2.885483,-14.23379 1.524914,0.59145 2.023054,-19.80544 2.53327,-7.38357 2.912971,1.19273 0.0506,-10.43724 2.513229,-21.7827 2.867685,-11.71035 0.148661,4.23024 -0.614348,7.18464 -1.108388,10.65497 1.947917,-11.94836 6.962564,-8.35348 1.399507,1.06595 7.174067,-10.0354 9.379882,-3.09635 1.672965,1.23131 6.172178,-2.41608 6.726674,2.42751 -0.148427,1.81054 -0.353828,2.37826 -11.253886,2.66428 -12.880192,0.33518"
     id="path18"
     style="stroke-width:0.0318493" /><path
     fill-rule="nonzero"
     fill="#008000"
     fill-opacity="1"
     d="m 176.2041,26.971648 c -0.57588,-1.76987 -1.83737,-0.43902 -2.45813,-1.40803 -1.21835,-1.90161 1.8067,-2.47448 2.90783,0.0893 -0.37289,-1.72084 -1.24261,-2.37437 -2.15438,-3.069 -2.5775,-1.96358 2.43299,-3.25741 2.98658,1.80638 -3.34678,-10.32918 -0.35862,-10.12923 0.62642,-0.0442 -0.37674,-9.7874 1.46488,-7.22607 0.77415,0.30026 1.02705,-10.05463 1.28606,-3.74842 1.47883,0.60551 0.0257,-5.29866 1.2759,-11.05842 1.45584,-5.94498 0.0754,2.14756 -0.31189,3.64743 -0.56269,5.40919 0.98889,-6.0658 3.53468,-4.2408 0.71048,0.54117 3.64207,-5.09468 4.76189,-1.57193 0.84932,0.6251 3.13343,-1.22658 3.41493,1.23237 -0.0754,0.91916 -0.17963,1.20736 -5.71326,1.35257 -6.5389,0.17015"
     id="path19"
     style="stroke-width:0.0161689" /></svg>
