<?xml version="1.0" encoding="utf-8"?>
<svg xmlns="http://www.w3.org/2000/svg" viewBox="183.2268 153.471 52.3894 114.4677" width="46.9758px" height="114.468px" preserveAspectRatio="none">
  <path d="M 185.934 160.824 C 186.186 160.557 186.447 160.299 186.72 160.052 C 186.84 159.943 186.963 159.836 187.087 159.731 C 187.164 159.666 187.243 159.601 187.322 159.538 C 187.458 159.428 187.502 159.401 187.336 159.524 C 187.936 159.075 188.567 158.671 189.226 158.314 C 189.529 158.151 189.837 157.999 190.151 157.857 C 190.225 157.824 190.299 157.792 190.373 157.759 C 190.041 157.907 190.301 157.789 190.387 157.755 C 190.575 157.679 190.765 157.607 190.956 157.539 C 191.665 157.286 192.39 157.082 193.127 156.929 C 193.467 156.859 193.808 156.804 194.151 156.749 C 194.381 156.712 193.86 156.781 194.093 156.757 C 194.194 156.747 194.295 156.733 194.397 156.723 C 194.6 156.701 194.803 156.684 195.007 156.67 C 195.74 156.62 196.476 156.617 197.21 156.662 C 197.576 156.684 197.941 156.722 198.306 156.765 C 197.938 156.721 198.359 156.775 198.489 156.796 C 198.69 156.829 198.89 156.866 199.089 156.906 C 199.806 157.05 200.512 157.244 201.203 157.485 C 201.375 157.545 201.546 157.608 201.716 157.674 C 201.81 157.711 201.904 157.749 201.998 157.787 C 201.95 157.768 201.688 157.65 201.954 157.77 C 202.285 157.921 202.614 158.076 202.936 158.247 C 203.596 158.603 204.229 159.006 204.83 159.454 C 205.013 159.588 204.624 159.284 204.797 159.43 C 204.875 159.496 204.956 159.558 205.034 159.624 C 205.159 159.728 205.282 159.835 205.403 159.944 C 205.714 160.224 206.011 160.518 206.298 160.822 C 206.559 161.099 206.811 161.386 207.052 161.681 C 207.049 161.677 207.324 162.019 207.178 161.835 C 207.055 161.68 207.229 161.902 207.256 161.939 C 207.402 162.134 207.544 162.333 207.682 162.535 C 208.13 163.194 208.535 163.881 208.894 164.592 C 209.065 164.929 209.226 165.27 209.377 165.616 C 209.411 165.692 209.526 165.972 209.401 165.667 C 209.435 165.75 209.469 165.832 209.502 165.915 C 209.585 166.123 209.666 166.332 209.743 166.542 C 210.298 168.084 210.724 169.67 211.016 171.284 C 211.093 171.693 211.164 172.104 211.227 172.516 C 211.256 172.7 211.283 172.884 211.31 173.068 C 211.309 173.063 211.37 173.517 211.338 173.273 C 211.31 173.055 211.359 173.437 211.364 173.478 C 211.471 174.337 211.555 175.199 211.624 176.061 C 211.758 177.754 211.83 179.45 211.881 181.147 C 212.012 185.452 212.123 189.757 212.244 194.061 L 212.984 220.428 L 213.723 259.796 L 213.815 263.069 C 213.817 264.29 215.141 265.051 216.198 264.438 C 216.687 264.155 216.988 263.633 216.989 263.069 L 216.229 222.974 L 215.474 196.062 L 215.094 182.514 C 214.992 178.887 214.846 175.263 214.288 171.672 C 213.26 165.059 210.273 158.183 203.887 155.18 C 197.923 152.376 190.542 153.026 185.316 157.105 C 184.738 157.555 184.194 158.048 183.69 158.579 C 182.826 159.444 183.221 160.919 184.402 161.234 C 184.949 161.381 185.533 161.224 185.934 160.824 Z" fill="#6c63ff" id="path12" style="stroke-width: 0.353;"/>
  <path d="M 197.88 210.806 C 196.906 210.807 196.117 211.596 196.116 212.569 L 199.642 266.152 C 199.634 267.134 200.425 267.935 201.406 267.939 L 230.325 267.939 C 231.299 267.938 232.088 267.149 232.089 266.175 L 235.616 212.546 C 235.604 211.581 234.818 210.805 233.852 210.806 L 197.88 210.806 Z" id="path13" style="stroke-width: 0.353; fill: rgba(255, 255, 255, 0.72);"/>
</svg>